M48
; DRILL file {KiCad 9.0.9-9.0.9~ubuntu24.04.1} date 2026-09-21T23:16:20+0200
; FORMAT={-:-/ absolute / metric / decimal}
; #@! TF.CreationDate,2026-09-21T23:16:20+02:00
; #@! TF.GenerationSoftware,Kicad,Pcbnew,9.0.9-9.0.9~ubuntu24.04.1
; #@! TF.FileFunction,Plated,1,4,PTH
FMAT,2
METRIC
; #@! TA.AperFunction,Plated,PTH,ViaDrill
T1C0.300
; #@! TA.AperFunction,Plated,PTH,ComponentDrill
T2C0.300
; #@! TA.AperFunction,Plated,PTH,ComponentDrill
T3C1.000
; #@! TA.AperFunction,Plated,PTH,ComponentDrill
T4C1.020
; #@! TA.AperFunction,Plated,PTH,ComponentDrill
T5C1.070
%
G90
G05
T1
X107.62Y-79.54
X108.13Y-81.59
X112.06Y-76.61
X113.72Y-72.44
X114.1Y-74.6
X114.756Y-82.776
X114.965Y-83.875
X115.05Y-79.19
X117.505Y-76.315
X118.78Y-80.59
X120.16Y-119.08
X120.4Y-76.39
X121.88Y-123.14
X122.06Y-143.03
X122.5Y-135.0
X125.65Y-63.37
X127.06Y-125.37
X127.28Y-74.27
X127.52Y-77.42
X127.68Y-107.94
X127.98Y-118.975
X128.09Y-74.14
X128.375Y-121.113
X129.26Y-126.07
X129.4Y-81.4
X130.0Y-116.75
X130.28Y-69.94
X130.32Y-71.12
X131.215Y-80.885
X132.33Y-123.43
X132.58Y-119.33
X133.59Y-63.67
X139.321Y-73.74
X144.31Y-77.3
X145.951Y-75.78
X147.491Y-77.01
X147.925Y-125.23
X148.571Y-79.88
X156.78Y-63.77
X157.19Y-98.92
X157.43Y-108.41
X157.49Y-105.9
X158.14Y-115.92
X158.17Y-111.07
X158.32Y-113.51
X158.47Y-100.77
X158.55Y-103.66
X158.74Y-75.9
X159.05Y-105.9
X159.25Y-108.51
X160.5Y-83.4
X160.54Y-77.17
X161.72Y-76.07
X164.21Y-72.29
X164.23Y-71.37
X164.85Y-63.79
T2
X126.145Y-119.25
X126.145Y-120.25
X126.145Y-121.25
T3
X155.43Y-97.93
X155.43Y-100.47
X155.43Y-103.01
X155.43Y-105.55
X155.43Y-108.09
X155.43Y-110.63
X155.43Y-113.17
X155.43Y-115.71
T4
X105.0Y-93.4
X105.0Y-95.94
X105.0Y-98.48
X105.0Y-101.02
X105.0Y-103.56
X105.0Y-106.1
X105.0Y-108.64
X105.0Y-111.18
X105.0Y-113.72
X105.0Y-116.26
X105.0Y-118.8
X105.0Y-121.34
X105.0Y-123.88
X105.0Y-126.42
X105.0Y-128.96
X105.0Y-131.5
X105.0Y-134.04
X105.0Y-136.58
X105.0Y-139.12
X107.54Y-93.4
X107.54Y-95.94
X107.54Y-98.48
X107.54Y-101.02
X107.54Y-103.56
X107.54Y-106.1
X107.54Y-108.64
X107.54Y-111.18
X107.54Y-113.72
X107.54Y-116.26
X107.54Y-118.8
X107.54Y-121.34
X107.54Y-123.88
X107.54Y-126.42
X107.54Y-128.96
X107.54Y-131.5
X107.54Y-134.04
X107.54Y-136.58
X107.54Y-139.12
X165.96Y-93.4
X165.96Y-95.94
X165.96Y-98.48
X165.96Y-101.02
X165.96Y-103.56
X165.96Y-106.1
X165.96Y-108.64
X165.96Y-111.18
X165.96Y-113.72
X165.96Y-116.26
X165.96Y-118.8
X165.96Y-121.34
X165.96Y-123.88
X165.96Y-126.42
X165.96Y-128.96
X165.96Y-131.5
X165.96Y-134.04
X165.96Y-136.58
X165.96Y-139.12
X168.5Y-93.4
X168.5Y-95.94
X168.5Y-98.48
X168.5Y-101.02
X168.5Y-103.56
X168.5Y-106.1
X168.5Y-108.64
X168.5Y-111.18
X168.5Y-113.72
X168.5Y-116.26
X168.5Y-118.8
X168.5Y-121.34
X168.5Y-123.88
X168.5Y-126.42
X168.5Y-128.96
X168.5Y-131.5
X168.5Y-134.04
X168.5Y-136.58
X168.5Y-139.12
T5
X112.62Y-103.56
X112.62Y-106.1
X112.62Y-108.64
X112.62Y-111.18
X112.62Y-113.72
X112.62Y-116.26
X112.62Y-118.8
X112.62Y-121.34
X112.62Y-126.42
X112.62Y-128.96
X112.62Y-131.5
X112.62Y-134.04
X112.62Y-136.58
X112.62Y-139.12
X160.88Y-94.42
X160.88Y-96.96
X160.88Y-99.5
X160.88Y-102.04
X160.88Y-104.58
X160.88Y-107.12
X160.88Y-109.66
X160.88Y-112.2
X160.88Y-114.74
X160.88Y-117.28
X160.88Y-121.34
X160.88Y-123.88
X160.88Y-126.42
X160.88Y-128.96
X160.88Y-131.5
X160.88Y-134.04
X160.88Y-136.58
X160.88Y-139.12
M30
