%TF.GenerationSoftware,KiCad,Pcbnew,9.0.9-9.0.9~ubuntu24.04.1*%
%TF.CreationDate,2026-09-21T23:16:25+02:00*%
%TF.ProjectId,STM_SHIELD,53544d5f-5348-4494-954c-442e6b696361,rev?*%
%TF.SameCoordinates,Original*%
%TF.FileFunction,Paste,Top*%
%TF.FilePolarity,Positive*%
%FSLAX46Y46*%
G04 Gerber Fmt 4.6, Leading zero omitted, Abs format (unit mm)*
G04 Created by KiCad (PCBNEW 9.0.9-9.0.9~ubuntu24.04.1) date 2026-09-21 23:16:25*
%MOMM*%
%LPD*%
G01*
G04 APERTURE LIST*
G04 Aperture macros list*
%AMRoundRect*
0 Rectangle with rounded corners*
0 $1 Rounding radius*
0 $2 $3 $4 $5 $6 $7 $8 $9 X,Y pos of 4 corners*
0 Add a 4 corners polygon primitive as box body*
4,1,4,$2,$3,$4,$5,$6,$7,$8,$9,$2,$3,0*
0 Add four circle primitives for the rounded corners*
1,1,$1+$1,$2,$3*
1,1,$1+$1,$4,$5*
1,1,$1+$1,$6,$7*
1,1,$1+$1,$8,$9*
0 Add four rect primitives between the rounded corners*
20,1,$1+$1,$2,$3,$4,$5,0*
20,1,$1+$1,$4,$5,$6,$7,0*
20,1,$1+$1,$6,$7,$8,$9,0*
20,1,$1+$1,$8,$9,$2,$3,0*%
G04 Aperture macros list end*
%ADD10RoundRect,0.237500X-0.237500X0.250000X-0.237500X-0.250000X0.237500X-0.250000X0.237500X0.250000X0*%
%ADD11RoundRect,0.237500X-0.250000X-0.237500X0.250000X-0.237500X0.250000X0.237500X-0.250000X0.237500X0*%
%ADD12RoundRect,0.237500X0.250000X0.237500X-0.250000X0.237500X-0.250000X-0.237500X0.250000X-0.237500X0*%
%ADD13RoundRect,0.237500X0.237500X-0.300000X0.237500X0.300000X-0.237500X0.300000X-0.237500X-0.300000X0*%
%ADD14R,0.950000X0.800000*%
%ADD15RoundRect,0.062500X-0.187500X-0.062500X0.187500X-0.062500X0.187500X0.062500X-0.187500X0.062500X0*%
%ADD16RoundRect,0.100000X-0.100000X0.712500X-0.100000X-0.712500X0.100000X-0.712500X0.100000X0.712500X0*%
%ADD17RoundRect,0.237500X0.237500X-0.287500X0.237500X0.287500X-0.237500X0.287500X-0.237500X-0.287500X0*%
%ADD18RoundRect,0.237500X-0.237500X0.300000X-0.237500X-0.300000X0.237500X-0.300000X0.237500X0.300000X0*%
%ADD19RoundRect,0.100000X-0.712500X-0.100000X0.712500X-0.100000X0.712500X0.100000X-0.712500X0.100000X0*%
%ADD20RoundRect,0.237500X-0.300000X-0.237500X0.300000X-0.237500X0.300000X0.237500X-0.300000X0.237500X0*%
%ADD21RoundRect,0.237500X-0.287500X-0.237500X0.287500X-0.237500X0.287500X0.237500X-0.287500X0.237500X0*%
%ADD22RoundRect,0.237500X0.300000X0.237500X-0.300000X0.237500X-0.300000X-0.237500X0.300000X-0.237500X0*%
%ADD23RoundRect,0.237500X-0.237500X0.287500X-0.237500X-0.287500X0.237500X-0.287500X0.237500X0.287500X0*%
G04 APERTURE END LIST*
D10*
%TO.C,R35*%
X170610000Y-131775000D03*
X170610000Y-133600000D03*
%TD*%
D11*
%TO.C,R24*%
X111244611Y-73535000D03*
X113069611Y-73535000D03*
%TD*%
D12*
%TO.C,R17*%
X150505956Y-76920000D03*
X148680956Y-76920000D03*
%TD*%
D13*
%TO.C,C6*%
X163220000Y-70875000D03*
X163220000Y-69150000D03*
%TD*%
D10*
%TO.C,R33*%
X125350000Y-140175000D03*
X125350000Y-142000000D03*
%TD*%
D14*
%TO.C,U5*%
X126145000Y-119750000D03*
X126145000Y-120750000D03*
D15*
X125195000Y-119000000D03*
X125195000Y-119500000D03*
X125195000Y-120000000D03*
X125195000Y-120500000D03*
X125195000Y-121000000D03*
X125195000Y-121500000D03*
X127095000Y-121500000D03*
X127095000Y-121000000D03*
X127095000Y-120500000D03*
X127095000Y-120000000D03*
X127095000Y-119500000D03*
X127095000Y-119000000D03*
%TD*%
D11*
%TO.C,R21*%
X153855956Y-74920000D03*
X155680956Y-74920000D03*
%TD*%
D13*
%TO.C,C4*%
X126000000Y-125225000D03*
X126000000Y-123500000D03*
%TD*%
D16*
%TO.C,U4*%
X163217500Y-77427500D03*
X162567500Y-77427500D03*
X161917500Y-77427500D03*
X161267500Y-77427500D03*
X161267500Y-81652500D03*
X161917500Y-81652500D03*
X162567500Y-81652500D03*
X163217500Y-81652500D03*
%TD*%
D11*
%TO.C,R18*%
X141355956Y-76170000D03*
X143180956Y-76170000D03*
%TD*%
D12*
%TO.C,R16*%
X143180956Y-74420000D03*
X141355956Y-74420000D03*
%TD*%
D10*
%TO.C,R32*%
X118790000Y-140065000D03*
X118790000Y-141890000D03*
%TD*%
D17*
%TO.C,D6*%
X122000000Y-137750000D03*
X122000000Y-136000000D03*
%TD*%
D16*
%TO.C,U3*%
X129495000Y-75657500D03*
X128845000Y-75657500D03*
X128195000Y-75657500D03*
X127545000Y-75657500D03*
X127545000Y-79882500D03*
X128195000Y-79882500D03*
X128845000Y-79882500D03*
X129495000Y-79882500D03*
%TD*%
D12*
%TO.C,R9*%
X110407111Y-80535000D03*
X108582111Y-80535000D03*
%TD*%
%TO.C,R3*%
X123670000Y-118880000D03*
X121845000Y-118880000D03*
%TD*%
D18*
%TO.C,C11*%
X145800000Y-76975000D03*
X145800000Y-78700000D03*
%TD*%
D19*
%TO.C,U2*%
X113232111Y-77260000D03*
X113232111Y-77910000D03*
X113232111Y-78560000D03*
X113232111Y-79210000D03*
X117457111Y-79210000D03*
X117457111Y-78560000D03*
X117457111Y-77910000D03*
X117457111Y-77260000D03*
%TD*%
D11*
%TO.C,R8*%
X108669611Y-78785000D03*
X110494611Y-78785000D03*
%TD*%
%TO.C,R28*%
X147885000Y-123430000D03*
X149710000Y-123430000D03*
%TD*%
D20*
%TO.C,C1*%
X129345000Y-120750000D03*
X131070000Y-120750000D03*
%TD*%
D12*
%TO.C,R20*%
X143180956Y-72670000D03*
X141355956Y-72670000D03*
%TD*%
D21*
%TO.C,D4*%
X154010000Y-127820000D03*
X155760000Y-127820000D03*
%TD*%
D20*
%TO.C,C5*%
X121870000Y-120630000D03*
X123595000Y-120630000D03*
%TD*%
D21*
%TO.C,D3*%
X154050000Y-130500000D03*
X155800000Y-130500000D03*
%TD*%
D11*
%TO.C,R19*%
X148680956Y-78670000D03*
X150505956Y-78670000D03*
%TD*%
D21*
%TO.C,D1*%
X154010000Y-123220000D03*
X155760000Y-123220000D03*
%TD*%
D10*
%TO.C,R23*%
X152180956Y-73170000D03*
X152180956Y-74995000D03*
%TD*%
D20*
%TO.C,C2*%
X121870000Y-122130000D03*
X123595000Y-122130000D03*
%TD*%
D10*
%TO.C,R34*%
X122070000Y-140105000D03*
X122070000Y-141930000D03*
%TD*%
D11*
%TO.C,R31*%
X147885000Y-127790000D03*
X149710000Y-127790000D03*
%TD*%
D12*
%TO.C,R22*%
X145680956Y-70670000D03*
X143855956Y-70670000D03*
%TD*%
D22*
%TO.C,C3*%
X131070000Y-119000000D03*
X129345000Y-119000000D03*
%TD*%
D10*
%TO.C,R7*%
X161720000Y-70550000D03*
X161720000Y-72375000D03*
%TD*%
D12*
%TO.C,R25*%
X121847111Y-80615000D03*
X120022111Y-80615000D03*
%TD*%
D11*
%TO.C,R5*%
X129270000Y-122750000D03*
X131095000Y-122750000D03*
%TD*%
D12*
%TO.C,R27*%
X155680956Y-73420000D03*
X153855956Y-73420000D03*
%TD*%
D11*
%TO.C,R2*%
X121770000Y-117380000D03*
X123595000Y-117380000D03*
%TD*%
%TO.C,R26*%
X143855956Y-68920000D03*
X145680956Y-68920000D03*
%TD*%
%TO.C,R30*%
X147925000Y-130550000D03*
X149750000Y-130550000D03*
%TD*%
D20*
%TO.C,C10*%
X113675000Y-80800000D03*
X115400000Y-80800000D03*
%TD*%
D11*
%TO.C,R14*%
X119989611Y-79035000D03*
X121814611Y-79035000D03*
%TD*%
D18*
%TO.C,C7*%
X163220000Y-72650000D03*
X163220000Y-74375000D03*
%TD*%
D10*
%TO.C,R6*%
X127960000Y-69630000D03*
X127960000Y-71455000D03*
%TD*%
D13*
%TO.C,C8*%
X129460000Y-69955000D03*
X129460000Y-68230000D03*
%TD*%
D21*
%TO.C,D2*%
X154010000Y-120460000D03*
X155760000Y-120460000D03*
%TD*%
D11*
%TO.C,R13*%
X115849611Y-82305000D03*
X117674611Y-82305000D03*
%TD*%
D17*
%TO.C,D5*%
X118750000Y-137875000D03*
X118750000Y-136125000D03*
%TD*%
D11*
%TO.C,R15*%
X119919611Y-77535000D03*
X121744611Y-77535000D03*
%TD*%
D19*
%TO.C,U6*%
X145975956Y-73090000D03*
X145975956Y-73740000D03*
X145975956Y-74390000D03*
X145975956Y-75040000D03*
X150200956Y-75040000D03*
X150200956Y-74390000D03*
X150200956Y-73740000D03*
X150200956Y-73090000D03*
%TD*%
D12*
%TO.C,R11*%
X112994611Y-75285000D03*
X111169611Y-75285000D03*
%TD*%
D18*
%TO.C,C9*%
X129460000Y-71705000D03*
X129460000Y-73430000D03*
%TD*%
D12*
%TO.C,R10*%
X110494611Y-77035000D03*
X108669611Y-77035000D03*
%TD*%
%TO.C,R1*%
X126920000Y-116130000D03*
X125095000Y-116130000D03*
%TD*%
D11*
%TO.C,R29*%
X147885000Y-120590000D03*
X149710000Y-120590000D03*
%TD*%
D12*
%TO.C,R4*%
X131075000Y-124250000D03*
X129250000Y-124250000D03*
%TD*%
%TO.C,R12*%
X117657111Y-83955000D03*
X115832111Y-83955000D03*
%TD*%
D23*
%TO.C,D7*%
X125310000Y-136125000D03*
X125310000Y-137875000D03*
%TD*%
M02*
