%TF.GenerationSoftware,KiCad,Pcbnew,9.0.9-9.0.9~ubuntu24.04.1*%
%TF.CreationDate,2026-09-21T23:16:25+02:00*%
%TF.ProjectId,STM_SHIELD,53544d5f-5348-4494-954c-442e6b696361,rev?*%
%TF.SameCoordinates,Original*%
%TF.FileFunction,Soldermask,Top*%
%TF.FilePolarity,Negative*%
%FSLAX46Y46*%
G04 Gerber Fmt 4.6, Leading zero omitted, Abs format (unit mm)*
G04 Created by KiCad (PCBNEW 9.0.9-9.0.9~ubuntu24.04.1) date 2026-09-21 23:16:25*
%MOMM*%
%LPD*%
G01*
G04 APERTURE LIST*
G04 Aperture macros list*
%AMRoundRect*
0 Rectangle with rounded corners*
0 $1 Rounding radius*
0 $2 $3 $4 $5 $6 $7 $8 $9 X,Y pos of 4 corners*
0 Add a 4 corners polygon primitive as box body*
4,1,4,$2,$3,$4,$5,$6,$7,$8,$9,$2,$3,0*
0 Add four circle primitives for the rounded corners*
1,1,$1+$1,$2,$3*
1,1,$1+$1,$4,$5*
1,1,$1+$1,$6,$7*
1,1,$1+$1,$8,$9*
0 Add four rect primitives between the rounded corners*
20,1,$1+$1,$2,$3,$4,$5,0*
20,1,$1+$1,$4,$5,$6,$7,0*
20,1,$1+$1,$6,$7,$8,$9,0*
20,1,$1+$1,$8,$9,$2,$3,0*%
G04 Aperture macros list end*
%ADD10RoundRect,0.237500X-0.237500X0.250000X-0.237500X-0.250000X0.237500X-0.250000X0.237500X0.250000X0*%
%ADD11RoundRect,0.237500X-0.250000X-0.237500X0.250000X-0.237500X0.250000X0.237500X-0.250000X0.237500X0*%
%ADD12RoundRect,0.237500X0.250000X0.237500X-0.250000X0.237500X-0.250000X-0.237500X0.250000X-0.237500X0*%
%ADD13C,1.000000*%
%ADD14RoundRect,0.237500X0.237500X-0.300000X0.237500X0.300000X-0.237500X0.300000X-0.237500X-0.300000X0*%
%ADD15RoundRect,0.062500X-0.187500X-0.062500X0.187500X-0.062500X0.187500X0.062500X-0.187500X0.062500X0*%
%ADD16R,1.000000X2.650000*%
%ADD17RoundRect,0.100000X-0.100000X0.712500X-0.100000X-0.712500X0.100000X-0.712500X0.100000X0.712500X0*%
%ADD18RoundRect,0.237500X0.237500X-0.287500X0.237500X0.287500X-0.237500X0.287500X-0.237500X-0.287500X0*%
%ADD19RoundRect,0.237500X-0.237500X0.300000X-0.237500X-0.300000X0.237500X-0.300000X0.237500X0.300000X0*%
%ADD20RoundRect,0.100000X-0.712500X-0.100000X0.712500X-0.100000X0.712500X0.100000X-0.712500X0.100000X0*%
%ADD21RoundRect,0.237500X-0.300000X-0.237500X0.300000X-0.237500X0.300000X0.237500X-0.300000X0.237500X0*%
%ADD22RoundRect,0.237500X-0.287500X-0.237500X0.287500X-0.237500X0.287500X0.237500X-0.287500X0.237500X0*%
%ADD23RoundRect,0.250000X0.385000X1.350000X-0.385000X1.350000X-0.385000X-1.350000X0.385000X-1.350000X0*%
%ADD24RoundRect,0.250000X0.425000X1.600000X-0.425000X1.600000X-0.425000X-1.600000X0.425000X-1.600000X0*%
%ADD25R,1.700000X1.700000*%
%ADD26C,1.700000*%
%ADD27RoundRect,0.237500X0.300000X0.237500X-0.300000X0.237500X-0.300000X-0.237500X0.300000X-0.237500X0*%
%ADD28RoundRect,0.237500X-0.237500X0.287500X-0.237500X-0.287500X0.237500X-0.287500X0.237500X0.287500X0*%
%ADD29C,3.000000*%
%ADD30RoundRect,0.102000X-0.802500X-0.802500X0.802500X-0.802500X0.802500X0.802500X-0.802500X0.802500X0*%
%ADD31C,1.809000*%
%ADD32RoundRect,0.102000X-0.765000X-0.765000X0.765000X-0.765000X0.765000X0.765000X-0.765000X0.765000X0*%
%ADD33C,1.734000*%
G04 APERTURE END LIST*
D10*
%TO.C,R35*%
X170610000Y-131775000D03*
X170610000Y-133600000D03*
%TD*%
D11*
%TO.C,R24*%
X111244611Y-73535000D03*
X113069611Y-73535000D03*
%TD*%
D12*
%TO.C,R17*%
X150505956Y-76920000D03*
X148680956Y-76920000D03*
%TD*%
D13*
%TO.C,TP16*%
X142960956Y-78250000D03*
%TD*%
D14*
%TO.C,C6*%
X163220000Y-70875000D03*
X163220000Y-69150000D03*
%TD*%
D13*
%TO.C,TP2*%
X106344611Y-72925000D03*
%TD*%
%TO.C,TP7*%
X119994611Y-83285000D03*
%TD*%
D10*
%TO.C,R33*%
X125350000Y-140175000D03*
X125350000Y-142000000D03*
%TD*%
D13*
%TO.C,TP15*%
X138100000Y-71000000D03*
%TD*%
D15*
%TO.C,U5*%
X125195000Y-119000000D03*
X125195000Y-119500000D03*
X125195000Y-120000000D03*
X125195000Y-120500000D03*
X125195000Y-121000000D03*
X125195000Y-121500000D03*
X127095000Y-121500000D03*
X127095000Y-121000000D03*
X127095000Y-120500000D03*
X127095000Y-120000000D03*
X127095000Y-119500000D03*
X127095000Y-119000000D03*
D16*
X126145000Y-120250000D03*
%TD*%
D13*
%TO.C,TP3*%
X109290000Y-82770000D03*
%TD*%
D11*
%TO.C,R21*%
X153855956Y-74920000D03*
X155680956Y-74920000D03*
%TD*%
D14*
%TO.C,C4*%
X126000000Y-125225000D03*
X126000000Y-123500000D03*
%TD*%
D17*
%TO.C,U4*%
X163217500Y-77427500D03*
X162567500Y-77427500D03*
X161917500Y-77427500D03*
X161267500Y-77427500D03*
X161267500Y-81652500D03*
X161917500Y-81652500D03*
X162567500Y-81652500D03*
X163217500Y-81652500D03*
%TD*%
D11*
%TO.C,R18*%
X141355956Y-76170000D03*
X143180956Y-76170000D03*
%TD*%
D12*
%TO.C,R16*%
X143180956Y-74420000D03*
X141355956Y-74420000D03*
%TD*%
D10*
%TO.C,R32*%
X118790000Y-140065000D03*
X118790000Y-141890000D03*
%TD*%
D18*
%TO.C,D6*%
X122000000Y-137750000D03*
X122000000Y-136000000D03*
%TD*%
D17*
%TO.C,U3*%
X129495000Y-75657500D03*
X128845000Y-75657500D03*
X128195000Y-75657500D03*
X127545000Y-75657500D03*
X127545000Y-79882500D03*
X128195000Y-79882500D03*
X128845000Y-79882500D03*
X129495000Y-79882500D03*
%TD*%
D13*
%TO.C,TP23*%
X134730000Y-124370000D03*
%TD*%
D12*
%TO.C,R9*%
X110407111Y-80535000D03*
X108582111Y-80535000D03*
%TD*%
%TO.C,R3*%
X123670000Y-118880000D03*
X121845000Y-118880000D03*
%TD*%
D19*
%TO.C,C11*%
X145800000Y-76975000D03*
X145800000Y-78700000D03*
%TD*%
D20*
%TO.C,U2*%
X113232111Y-77260000D03*
X113232111Y-77910000D03*
X113232111Y-78560000D03*
X113232111Y-79210000D03*
X117457111Y-79210000D03*
X117457111Y-78560000D03*
X117457111Y-77910000D03*
X117457111Y-77260000D03*
%TD*%
D11*
%TO.C,R8*%
X108669611Y-78785000D03*
X110494611Y-78785000D03*
%TD*%
D13*
%TO.C,TP6*%
X122244611Y-75535000D03*
%TD*%
D11*
%TO.C,R28*%
X147885000Y-123430000D03*
X149710000Y-123430000D03*
%TD*%
D21*
%TO.C,C1*%
X129345000Y-120750000D03*
X131070000Y-120750000D03*
%TD*%
D13*
%TO.C,TP4*%
X115494611Y-74035000D03*
%TD*%
%TO.C,TP12*%
X155160956Y-77182500D03*
%TD*%
%TO.C,TP10*%
X141900000Y-70800000D03*
%TD*%
%TO.C,TP21*%
X117595000Y-118630000D03*
%TD*%
D12*
%TO.C,R20*%
X143180956Y-72670000D03*
X141355956Y-72670000D03*
%TD*%
D22*
%TO.C,D4*%
X154010000Y-127820000D03*
X155760000Y-127820000D03*
%TD*%
D21*
%TO.C,C5*%
X121870000Y-120630000D03*
X123595000Y-120630000D03*
%TD*%
D22*
%TO.C,D3*%
X154050000Y-130500000D03*
X155800000Y-130500000D03*
%TD*%
D11*
%TO.C,R19*%
X148680956Y-78670000D03*
X150505956Y-78670000D03*
%TD*%
D23*
%TO.C,J1*%
X129500000Y-63412500D03*
D24*
X126675000Y-63662500D03*
X132325000Y-63662500D03*
%TD*%
D22*
%TO.C,D1*%
X154010000Y-123220000D03*
X155760000Y-123220000D03*
%TD*%
D25*
%TO.C,J3*%
X155430000Y-97930000D03*
D26*
X155430000Y-100470000D03*
X155430000Y-103010000D03*
X155430000Y-105550000D03*
X155430000Y-108090000D03*
X155430000Y-110630000D03*
X155430000Y-113170000D03*
X155430000Y-115710000D03*
%TD*%
D13*
%TO.C,TP14*%
X157290956Y-77062500D03*
%TD*%
%TO.C,TP11*%
X154430956Y-71420000D03*
%TD*%
D10*
%TO.C,R23*%
X152180956Y-73170000D03*
X152180956Y-74995000D03*
%TD*%
D21*
%TO.C,C2*%
X121870000Y-122130000D03*
X123595000Y-122130000D03*
%TD*%
D10*
%TO.C,R34*%
X122070000Y-140105000D03*
X122070000Y-141930000D03*
%TD*%
D11*
%TO.C,R31*%
X147885000Y-127790000D03*
X149710000Y-127790000D03*
%TD*%
D13*
%TO.C,TP17*%
X167290000Y-80350000D03*
%TD*%
D12*
%TO.C,R22*%
X145680956Y-70670000D03*
X143855956Y-70670000D03*
%TD*%
D13*
%TO.C,TP18*%
X126340000Y-81710000D03*
%TD*%
D27*
%TO.C,C3*%
X131070000Y-119000000D03*
X129345000Y-119000000D03*
%TD*%
D10*
%TO.C,R7*%
X161720000Y-70550000D03*
X161720000Y-72375000D03*
%TD*%
D12*
%TO.C,R25*%
X121847111Y-80615000D03*
X120022111Y-80615000D03*
%TD*%
D11*
%TO.C,R5*%
X129270000Y-122750000D03*
X131095000Y-122750000D03*
%TD*%
D12*
%TO.C,R27*%
X155680956Y-73420000D03*
X153855956Y-73420000D03*
%TD*%
D11*
%TO.C,R2*%
X121770000Y-117380000D03*
X123595000Y-117380000D03*
%TD*%
%TO.C,R26*%
X143855956Y-68920000D03*
X145680956Y-68920000D03*
%TD*%
%TO.C,R30*%
X147925000Y-130550000D03*
X149750000Y-130550000D03*
%TD*%
D21*
%TO.C,C10*%
X113675000Y-80800000D03*
X115400000Y-80800000D03*
%TD*%
D11*
%TO.C,R14*%
X119989611Y-79035000D03*
X121814611Y-79035000D03*
%TD*%
D19*
%TO.C,C7*%
X163220000Y-72650000D03*
X163220000Y-74375000D03*
%TD*%
D10*
%TO.C,R6*%
X127960000Y-69630000D03*
X127960000Y-71455000D03*
%TD*%
D13*
%TO.C,TP1*%
X105864611Y-75225000D03*
%TD*%
%TO.C,TP22*%
X132000000Y-116750000D03*
%TD*%
D14*
%TO.C,C8*%
X129460000Y-69955000D03*
X129460000Y-68230000D03*
%TD*%
D22*
%TO.C,D2*%
X154010000Y-120460000D03*
X155760000Y-120460000D03*
%TD*%
D13*
%TO.C,TP13*%
X152930956Y-80420000D03*
%TD*%
%TO.C,TP8*%
X122750000Y-83330000D03*
%TD*%
D11*
%TO.C,R13*%
X115849611Y-82305000D03*
X117674611Y-82305000D03*
%TD*%
D18*
%TO.C,D5*%
X118750000Y-137875000D03*
X118750000Y-136125000D03*
%TD*%
D11*
%TO.C,R15*%
X119919611Y-77535000D03*
X121744611Y-77535000D03*
%TD*%
D20*
%TO.C,U6*%
X145975956Y-73090000D03*
X145975956Y-73740000D03*
X145975956Y-74390000D03*
X145975956Y-75040000D03*
X150200956Y-75040000D03*
X150200956Y-74390000D03*
X150200956Y-73740000D03*
X150200956Y-73090000D03*
%TD*%
D12*
%TO.C,R11*%
X112994611Y-75285000D03*
X111169611Y-75285000D03*
%TD*%
D19*
%TO.C,C9*%
X129460000Y-71705000D03*
X129460000Y-73430000D03*
%TD*%
D12*
%TO.C,R10*%
X110494611Y-77035000D03*
X108669611Y-77035000D03*
%TD*%
D13*
%TO.C,TP9*%
X148180956Y-69670000D03*
%TD*%
D23*
%TO.C,J2*%
X160750000Y-63412500D03*
D24*
X157925000Y-63662500D03*
X163575000Y-63662500D03*
%TD*%
D12*
%TO.C,R1*%
X126920000Y-116130000D03*
X125095000Y-116130000D03*
%TD*%
D13*
%TO.C,TP20*%
X158180956Y-71420000D03*
%TD*%
D11*
%TO.C,R29*%
X147885000Y-120590000D03*
X149710000Y-120590000D03*
%TD*%
D13*
%TO.C,TP5*%
X119244611Y-75535000D03*
%TD*%
D12*
%TO.C,R4*%
X131075000Y-124250000D03*
X129250000Y-124250000D03*
%TD*%
%TO.C,R12*%
X117657111Y-83955000D03*
X115832111Y-83955000D03*
%TD*%
D28*
%TO.C,D7*%
X125310000Y-136125000D03*
X125310000Y-137875000D03*
%TD*%
D13*
%TO.C,TP19*%
X144680956Y-66920000D03*
%TD*%
D29*
%TO.C,U1*%
X128750000Y-90910000D03*
X145250000Y-90910000D03*
D30*
X160880000Y-117280000D03*
D31*
X160880000Y-114740000D03*
X160880000Y-112200000D03*
X160880000Y-109660000D03*
X160880000Y-107120000D03*
X160880000Y-104580000D03*
X160880000Y-102040000D03*
X160880000Y-99500000D03*
X160880000Y-96960000D03*
X160880000Y-94420000D03*
D30*
X112620000Y-103560000D03*
D31*
X112620000Y-106100000D03*
X112620000Y-108640000D03*
X112620000Y-111180000D03*
X112620000Y-113720000D03*
X112620000Y-116260000D03*
X112620000Y-118800000D03*
X112620000Y-121340000D03*
D32*
X105000000Y-93400000D03*
D33*
X107540000Y-93400000D03*
X105000000Y-95940000D03*
X107540000Y-95940000D03*
X105000000Y-98480000D03*
X107540000Y-98480000D03*
X105000000Y-101020000D03*
X107540000Y-101020000D03*
X105000000Y-103560000D03*
X107540000Y-103560000D03*
X105000000Y-106100000D03*
X107540000Y-106100000D03*
X105000000Y-108640000D03*
X107540000Y-108640000D03*
X105000000Y-111180000D03*
X107540000Y-111180000D03*
X105000000Y-113720000D03*
X107540000Y-113720000D03*
X105000000Y-116260000D03*
X107540000Y-116260000D03*
X105000000Y-118800000D03*
X107540000Y-118800000D03*
X105000000Y-121340000D03*
X107540000Y-121340000D03*
X105000000Y-123880000D03*
X107540000Y-123880000D03*
X105000000Y-126420000D03*
X107540000Y-126420000D03*
X105000000Y-128960000D03*
X107540000Y-128960000D03*
X105000000Y-131500000D03*
X107540000Y-131500000D03*
X105000000Y-134040000D03*
X107540000Y-134040000D03*
X105000000Y-136580000D03*
X107540000Y-136580000D03*
X105000000Y-139120000D03*
X107540000Y-139120000D03*
D30*
X112620000Y-126420000D03*
D31*
X112620000Y-128960000D03*
X112620000Y-131500000D03*
X112620000Y-134040000D03*
X112620000Y-136580000D03*
X112620000Y-139120000D03*
D30*
X160880000Y-139120000D03*
D31*
X160880000Y-136580000D03*
X160880000Y-134040000D03*
X160880000Y-131500000D03*
X160880000Y-128960000D03*
X160880000Y-126420000D03*
X160880000Y-123880000D03*
X160880000Y-121340000D03*
D32*
X165960000Y-93400000D03*
D33*
X168500000Y-93400000D03*
X165960000Y-95940000D03*
X168500000Y-95940000D03*
X165960000Y-98480000D03*
X168500000Y-98480000D03*
X165960000Y-101020000D03*
X168500000Y-101020000D03*
X165960000Y-103560000D03*
X168500000Y-103560000D03*
X165960000Y-106100000D03*
X168500000Y-106100000D03*
X165960000Y-108640000D03*
X168500000Y-108640000D03*
X165960000Y-111180000D03*
X168500000Y-111180000D03*
X165960000Y-113720000D03*
X168500000Y-113720000D03*
X165960000Y-116260000D03*
X168500000Y-116260000D03*
X165960000Y-118800000D03*
X168500000Y-118800000D03*
X165960000Y-121340000D03*
X168500000Y-121340000D03*
X165960000Y-123880000D03*
X168500000Y-123880000D03*
X165960000Y-126420000D03*
X168500000Y-126420000D03*
X165960000Y-128960000D03*
X168500000Y-128960000D03*
X165960000Y-131500000D03*
X168500000Y-131500000D03*
X165960000Y-134040000D03*
X168500000Y-134040000D03*
X165960000Y-136580000D03*
X168500000Y-136580000D03*
X165960000Y-139120000D03*
X168500000Y-139120000D03*
%TD*%
M02*
