%TF.GenerationSoftware,KiCad,Pcbnew,9.0.9-9.0.9~ubuntu24.04.1*%
%TF.CreationDate,2026-09-21T23:16:25+02:00*%
%TF.ProjectId,STM_SHIELD,53544d5f-5348-4494-954c-442e6b696361,rev?*%
%TF.SameCoordinates,Original*%
%TF.FileFunction,Copper,L2,Inr*%
%TF.FilePolarity,Positive*%
%FSLAX46Y46*%
G04 Gerber Fmt 4.6, Leading zero omitted, Abs format (unit mm)*
G04 Created by KiCad (PCBNEW 9.0.9-9.0.9~ubuntu24.04.1) date 2026-09-21 23:16:25*
%MOMM*%
%LPD*%
G01*
G04 APERTURE LIST*
%TA.AperFunction,ComponentPad*%
%ADD10C,0.600000*%
%TD*%
%TA.AperFunction,ComponentPad*%
%ADD11R,1.700000X1.700000*%
%TD*%
%TA.AperFunction,ComponentPad*%
%ADD12C,1.700000*%
%TD*%
%TA.AperFunction,ComponentPad*%
%ADD13R,1.605000X1.605000*%
%TD*%
%TA.AperFunction,ComponentPad*%
%ADD14C,1.605000*%
%TD*%
%TA.AperFunction,ComponentPad*%
%ADD15R,1.530000X1.530000*%
%TD*%
%TA.AperFunction,ComponentPad*%
%ADD16C,1.530000*%
%TD*%
%TA.AperFunction,ViaPad*%
%ADD17C,0.450000*%
%TD*%
G04 APERTURE END LIST*
D10*
%TO.N,GND*%
%TO.C,U5*%
X126145000Y-119250000D03*
X126145000Y-120250000D03*
X126145000Y-121250000D03*
%TD*%
D11*
%TO.N,Net-(J3-Pin_1)*%
%TO.C,J3*%
X155430000Y-97930000D03*
D12*
%TO.N,Net-(J3-Pin_2)*%
X155430000Y-100470000D03*
%TO.N,Net-(J3-Pin_3)*%
X155430000Y-103010000D03*
%TO.N,Net-(J3-Pin_4)*%
X155430000Y-105550000D03*
%TO.N,Net-(J3-Pin_5)*%
X155430000Y-108090000D03*
%TO.N,Net-(J3-Pin_6)*%
X155430000Y-110630000D03*
%TO.N,Net-(J3-Pin_7)*%
X155430000Y-113170000D03*
%TO.N,Net-(J3-Pin_8)*%
X155430000Y-115710000D03*
%TD*%
D13*
%TO.N,Net-(J3-Pin_8)*%
%TO.C,U1*%
X160880000Y-117280000D03*
D14*
%TO.N,Net-(J3-Pin_7)*%
X160880000Y-114740000D03*
%TO.N,Net-(J3-Pin_6)*%
X160880000Y-112200000D03*
%TO.N,Net-(J3-Pin_5)*%
X160880000Y-109660000D03*
%TO.N,Net-(J3-Pin_4)*%
X160880000Y-107120000D03*
%TO.N,Net-(J3-Pin_3)*%
X160880000Y-104580000D03*
%TO.N,GND*%
X160880000Y-102040000D03*
%TO.N,unconnected-(U1F-AREF-PadCN5_8)*%
X160880000Y-99500000D03*
%TO.N,Net-(J3-Pin_2)*%
X160880000Y-96960000D03*
%TO.N,Net-(J3-Pin_1)*%
X160880000Y-94420000D03*
D13*
%TO.N,N/C*%
X112620000Y-103560000D03*
D14*
%TO.N,unconnected-(U1C-CN6_IOREF-PadCN6_2)*%
X112620000Y-106100000D03*
%TO.N,unconnected-(U1C-CN6_RESET-PadCN6_3)*%
X112620000Y-108640000D03*
%TO.N,unconnected-(U1C-CN6_+3V3-PadCN6_4)*%
X112620000Y-111180000D03*
%TO.N,+5V*%
X112620000Y-113720000D03*
%TO.N,GND*%
X112620000Y-116260000D03*
X112620000Y-118800000D03*
%TO.N,unconnected-(U1C-CN6_VIN-PadCN6_8)*%
X112620000Y-121340000D03*
D15*
%TO.N,unconnected-(U1A-PC10-PadCN7_1)*%
X105000000Y-93400000D03*
D16*
%TO.N,unconnected-(U1A-PC11-PadCN7_2)*%
X107540000Y-93400000D03*
%TO.N,unconnected-(U1A-PC12-PadCN7_3)*%
X105000000Y-95940000D03*
%TO.N,unconnected-(U1A-PD2-PadCN7_4)*%
X107540000Y-95940000D03*
%TO.N,unconnected-(U1A-VDD-PadCN7_5)*%
X105000000Y-98480000D03*
%TO.N,unconnected-(U1A-E5V-PadCN7_6)*%
X107540000Y-98480000D03*
%TO.N,unconnected-(U1A-BOOT0-PadCN7_7)*%
X105000000Y-101020000D03*
%TO.N,GND*%
X107540000Y-101020000D03*
%TO.N,N/C*%
X105000000Y-103560000D03*
X107540000Y-103560000D03*
X105000000Y-106100000D03*
%TO.N,unconnected-(U1A-CN7_IOREF-PadCN7_12)*%
X107540000Y-106100000D03*
%TO.N,unconnected-(U1A-PA13-PadCN7_13)*%
X105000000Y-108640000D03*
%TO.N,unconnected-(U1A-CN7_RESET-PadCN7_14)*%
X107540000Y-108640000D03*
%TO.N,unconnected-(U1A-PA14-PadCN7_15)*%
X105000000Y-111180000D03*
%TO.N,unconnected-(U1A-CN7_+3V3-PadCN7_16)*%
X107540000Y-111180000D03*
%TO.N,unconnected-(U1A-PA15-PadCN7_17)*%
X105000000Y-113720000D03*
%TO.N,unconnected-(U1A-CN7_+5V-PadCN7_18)*%
X107540000Y-113720000D03*
%TO.N,GND*%
X105000000Y-116260000D03*
X107540000Y-116260000D03*
%TO.N,unconnected-(U1A-PB7-PadCN7_21)*%
X105000000Y-118800000D03*
%TO.N,GND*%
X107540000Y-118800000D03*
%TO.N,unconnected-(U1A-PC13-PadCN7_23)*%
X105000000Y-121340000D03*
%TO.N,unconnected-(U1A-CN7_VIN-PadCN7_24)*%
X107540000Y-121340000D03*
%TO.N,unconnected-(U1A-PC14-PadCN7_25)*%
X105000000Y-123880000D03*
%TO.N,N/C*%
X107540000Y-123880000D03*
%TO.N,unconnected-(U1A-PC15-PadCN7_27)*%
X105000000Y-126420000D03*
%TO.N,ADC_I*%
X107540000Y-126420000D03*
%TO.N,unconnected-(U1A-PH0-PadCN7_29)*%
X105000000Y-128960000D03*
%TO.N,ADC_Q*%
X107540000Y-128960000D03*
%TO.N,unconnected-(U1A-PH1-PadCN7_31)*%
X105000000Y-131500000D03*
%TO.N,DAC_I*%
X107540000Y-131500000D03*
%TO.N,unconnected-(U1A-VBAT-PadCN7_33)*%
X105000000Y-134040000D03*
%TO.N,unconnected-(U1A-PB0-PadCN7_34)*%
X107540000Y-134040000D03*
%TO.N,unconnected-(U1A-PC2-PadCN7_35)*%
X105000000Y-136580000D03*
%TO.N,unconnected-(U1A-PC1{slash}PB9-PadCN7_36)*%
X107540000Y-136580000D03*
%TO.N,unconnected-(U1A-PC3-PadCN7_37)*%
X105000000Y-139120000D03*
%TO.N,unconnected-(U1A-PC0{slash}PB8-PadCN7_38)*%
X107540000Y-139120000D03*
D13*
%TO.N,unconnected-(U1E-A0-PadCN8_1)*%
X112620000Y-126420000D03*
D14*
%TO.N,unconnected-(U1E-A1-PadCN8_2)*%
X112620000Y-128960000D03*
%TO.N,unconnected-(U1E-A2-PadCN8_3)*%
X112620000Y-131500000D03*
%TO.N,unconnected-(U1E-A3-PadCN8_4)*%
X112620000Y-134040000D03*
%TO.N,unconnected-(U1E-A4-PadCN8_5)*%
X112620000Y-136580000D03*
%TO.N,unconnected-(U1E-A5-PadCN8_6)*%
X112620000Y-139120000D03*
D13*
%TO.N,unconnected-(U1D-D0-PadCN9_1)*%
X160880000Y-139120000D03*
D14*
%TO.N,unconnected-(U1D-D1-PadCN9_2)*%
X160880000Y-136580000D03*
%TO.N,unconnected-(U1D-D2-PadCN9_3)*%
X160880000Y-134040000D03*
%TO.N,unconnected-(U1D-D3-PadCN9_4)*%
X160880000Y-131500000D03*
%TO.N,unconnected-(U1D-D4-PadCN9_5)*%
X160880000Y-128960000D03*
%TO.N,unconnected-(U1D-D5-PadCN9_6)*%
X160880000Y-126420000D03*
%TO.N,unconnected-(U1D-D6-PadCN9_7)*%
X160880000Y-123880000D03*
%TO.N,unconnected-(U1D-D7-PadCN9_8)*%
X160880000Y-121340000D03*
D15*
%TO.N,RX{slash}TX*%
X165960000Y-93400000D03*
D16*
%TO.N,unconnected-(U1B-PC8-PadCN10_2)*%
X168500000Y-93400000D03*
%TO.N,unconnected-(U1B-PB8-PadCN10_3)*%
X165960000Y-95940000D03*
%TO.N,unconnected-(U1B-PC6-PadCN10_4)*%
X168500000Y-95940000D03*
%TO.N,unconnected-(U1B-PB9-PadCN10_5)*%
X165960000Y-98480000D03*
%TO.N,unconnected-(U1B-PC5-PadCN10_6)*%
X168500000Y-98480000D03*
%TO.N,unconnected-(U1B-AVDD-PadCN10_7)*%
X165960000Y-101020000D03*
%TO.N,unconnected-(U1B-U5V-PadCN10_8)*%
X168500000Y-101020000D03*
%TO.N,GND*%
X165960000Y-103560000D03*
%TO.N,N/C*%
X168500000Y-103560000D03*
%TO.N,DAC_Q*%
X165960000Y-106100000D03*
%TO.N,unconnected-(U1B-PA12-PadCN10_12)*%
X168500000Y-106100000D03*
%TO.N,unconnected-(U1B-PA6-PadCN10_13)*%
X165960000Y-108640000D03*
%TO.N,unconnected-(U1B-PA11-PadCN10_14)*%
X168500000Y-108640000D03*
%TO.N,unconnected-(U1B-PA7-PadCN10_15)*%
X165960000Y-111180000D03*
%TO.N,unconnected-(U1B-PB12-PadCN10_16)*%
X168500000Y-111180000D03*
%TO.N,unconnected-(U1B-PB6-PadCN10_17)*%
X165960000Y-113720000D03*
%TO.N,N/C*%
X168500000Y-113720000D03*
%TO.N,unconnected-(U1B-PC7-PadCN10_19)*%
X165960000Y-116260000D03*
%TO.N,GND*%
X168500000Y-116260000D03*
%TO.N,unconnected-(U1B-PA9-PadCN10_21)*%
X165960000Y-118800000D03*
%TO.N,Net-(D2-A)*%
X168500000Y-118800000D03*
%TO.N,unconnected-(U1B-PA8-PadCN10_23)*%
X165960000Y-121340000D03*
%TO.N,Net-(D1-A)*%
X168500000Y-121340000D03*
%TO.N,unconnected-(U1B-PB10-PadCN10_25)*%
X165960000Y-123880000D03*
%TO.N,unconnected-(U1B-PB15-PadCN10_26)*%
X168500000Y-123880000D03*
%TO.N,Net-(D4-A)*%
X165960000Y-126420000D03*
%TO.N,unconnected-(U1B-PB14-PadCN10_28)*%
X168500000Y-126420000D03*
%TO.N,unconnected-(U1B-PB5-PadCN10_29)*%
X165960000Y-128960000D03*
%TO.N,unconnected-(U1B-PB13-PadCN10_30)*%
X168500000Y-128960000D03*
%TO.N,Net-(D3-A)*%
X165960000Y-131500000D03*
%TO.N,Net-(U1B-AGND)*%
X168500000Y-131500000D03*
%TO.N,unconnected-(U1B-PA10-PadCN10_33)*%
X165960000Y-134040000D03*
%TO.N,unconnected-(U1B-PC4-PadCN10_34)*%
X168500000Y-134040000D03*
%TO.N,unconnected-(U1B-PA2-PadCN10_35)*%
X165960000Y-136580000D03*
%TO.N,N/C*%
X168500000Y-136580000D03*
%TO.N,unconnected-(U1B-PA3-PadCN10_37)*%
X165960000Y-139120000D03*
%TO.N,N/C*%
X168500000Y-139120000D03*
%TD*%
D17*
%TO.N,GND*%
X127520000Y-77420000D03*
X144310000Y-77300000D03*
X158140000Y-115920000D03*
X158320000Y-113510000D03*
X158170000Y-111070000D03*
X159250000Y-108510000D03*
X157430000Y-108410000D03*
X159050000Y-105900000D03*
X157490000Y-105900000D03*
X157190000Y-98920000D03*
X158550000Y-103660000D03*
X158470000Y-100770000D03*
X164210000Y-72290000D03*
X156780000Y-63770000D03*
X132580000Y-119330000D03*
X164850000Y-63790000D03*
X125650000Y-63370000D03*
X147925000Y-125230000D03*
X160500000Y-83400000D03*
X130280000Y-69940000D03*
X161720000Y-76070000D03*
X118780000Y-80590000D03*
X128090000Y-74140000D03*
X127060000Y-125370000D03*
X133590000Y-63670000D03*
X122060000Y-143030000D03*
X132330000Y-123430000D03*
X120160000Y-119080000D03*
X130320000Y-71120000D03*
X121880000Y-123140000D03*
X164230000Y-71370000D03*
X114964611Y-83875000D03*
X147490956Y-77010000D03*
X108129805Y-81589805D03*
X139320956Y-73740000D03*
X129400000Y-81400000D03*
X113720000Y-72440000D03*
%TO.N,+3.3V*%
X107620000Y-79540000D03*
X117504611Y-76315000D03*
X122500000Y-135000000D03*
X114756232Y-82776232D03*
X127280000Y-74270000D03*
X160540000Y-77170000D03*
X130000000Y-116750000D03*
X148570956Y-79880000D03*
%TO.N,-3.3V*%
X145950956Y-75780000D03*
X129260000Y-126070000D03*
X127680000Y-107940000D03*
X115050000Y-79190000D03*
%TO.N,+5V*%
X127980000Y-118975000D03*
X128374756Y-121112994D03*
%TO.N,ADC_I*%
X114100000Y-74600000D03*
X112060000Y-76610000D03*
%TO.N,ADC_Q*%
X120400000Y-76390000D03*
%TO.N,DAC_I*%
X131215000Y-80885000D03*
%TO.N,DAC_Q*%
X158740000Y-75900000D03*
%TD*%
%TA.AperFunction,Conductor*%
%TO.N,GND*%
G36*
X107064755Y-118996853D02*
G01*
X107131898Y-119113147D01*
X107226853Y-119208102D01*
X107343147Y-119275245D01*
X107402425Y-119291128D01*
X106839134Y-119854417D01*
X106876994Y-119881924D01*
X107028722Y-119959234D01*
X107079518Y-120007209D01*
X107096313Y-120075030D01*
X107073776Y-120141165D01*
X107028723Y-120180203D01*
X106876735Y-120257645D01*
X106770311Y-120334968D01*
X106715582Y-120374731D01*
X106715580Y-120374733D01*
X106715579Y-120374733D01*
X106574733Y-120515579D01*
X106574733Y-120515580D01*
X106574731Y-120515582D01*
X106524447Y-120584790D01*
X106457647Y-120676733D01*
X106380485Y-120828172D01*
X106332510Y-120878968D01*
X106264689Y-120895763D01*
X106198554Y-120873225D01*
X106159515Y-120828172D01*
X106082352Y-120676733D01*
X105965269Y-120515582D01*
X105824418Y-120374731D01*
X105663266Y-120257647D01*
X105511827Y-120180485D01*
X105461031Y-120132510D01*
X105444236Y-120064689D01*
X105466773Y-119998554D01*
X105511827Y-119959515D01*
X105521116Y-119954781D01*
X105663266Y-119882353D01*
X105824418Y-119765269D01*
X105965269Y-119624418D01*
X106082353Y-119463266D01*
X106159795Y-119311276D01*
X106207769Y-119260481D01*
X106275590Y-119243686D01*
X106341725Y-119266223D01*
X106380765Y-119311277D01*
X106458077Y-119463008D01*
X106485580Y-119500863D01*
X106485581Y-119500864D01*
X107048871Y-118937574D01*
X107064755Y-118996853D01*
G37*
%TD.AperFunction*%
%TA.AperFunction,Conductor*%
G36*
X107064755Y-116456853D02*
G01*
X107131898Y-116573147D01*
X107226853Y-116668102D01*
X107343147Y-116735245D01*
X107402425Y-116751128D01*
X106839134Y-117314417D01*
X106876999Y-117341928D01*
X107029272Y-117419516D01*
X107080068Y-117467490D01*
X107096863Y-117535311D01*
X107074325Y-117601446D01*
X107029272Y-117640484D01*
X106876996Y-117718073D01*
X106876995Y-117718074D01*
X106839135Y-117745580D01*
X106839135Y-117745581D01*
X107402425Y-118308871D01*
X107343147Y-118324755D01*
X107226853Y-118391898D01*
X107131898Y-118486853D01*
X107064755Y-118603147D01*
X107048871Y-118662425D01*
X106485581Y-118099135D01*
X106485580Y-118099135D01*
X106458075Y-118136993D01*
X106380764Y-118288723D01*
X106332790Y-118339518D01*
X106264969Y-118356313D01*
X106198834Y-118333775D01*
X106159795Y-118288722D01*
X106128299Y-118226909D01*
X106082353Y-118136734D01*
X105965269Y-117975582D01*
X105824418Y-117834731D01*
X105663266Y-117717647D01*
X105663262Y-117717645D01*
X105511277Y-117640204D01*
X105460481Y-117592229D01*
X105443686Y-117524408D01*
X105466224Y-117458273D01*
X105511277Y-117419234D01*
X105663005Y-117341924D01*
X105700863Y-117314418D01*
X105700863Y-117314417D01*
X105137574Y-116751128D01*
X105196853Y-116735245D01*
X105313147Y-116668102D01*
X105408102Y-116573147D01*
X105475245Y-116456853D01*
X105491128Y-116397574D01*
X106054417Y-116960863D01*
X106054418Y-116960863D01*
X106081924Y-116923005D01*
X106159515Y-116770727D01*
X106207490Y-116719931D01*
X106275311Y-116703136D01*
X106341446Y-116725674D01*
X106380485Y-116770727D01*
X106458077Y-116923008D01*
X106485580Y-116960863D01*
X106485581Y-116960864D01*
X107048871Y-116397574D01*
X107064755Y-116456853D01*
G37*
%TD.AperFunction*%
%TA.AperFunction,Conductor*%
G36*
X106341446Y-114186773D02*
G01*
X106380485Y-114231827D01*
X106427985Y-114325051D01*
X106457647Y-114383266D01*
X106574731Y-114544418D01*
X106715582Y-114685269D01*
X106876734Y-114802353D01*
X106939673Y-114834422D01*
X107028722Y-114879795D01*
X107079518Y-114927770D01*
X107096313Y-114995591D01*
X107073776Y-115061726D01*
X107028723Y-115100764D01*
X106876993Y-115178075D01*
X106839135Y-115205580D01*
X106839135Y-115205581D01*
X107402425Y-115768871D01*
X107343147Y-115784755D01*
X107226853Y-115851898D01*
X107131898Y-115946853D01*
X107064755Y-116063147D01*
X107048871Y-116122425D01*
X106485581Y-115559135D01*
X106485580Y-115559135D01*
X106458074Y-115596995D01*
X106458073Y-115596996D01*
X106380484Y-115749272D01*
X106332510Y-115800068D01*
X106264689Y-115816863D01*
X106198554Y-115794325D01*
X106159516Y-115749272D01*
X106081928Y-115596999D01*
X106054417Y-115559135D01*
X106054417Y-115559134D01*
X105491128Y-116122424D01*
X105475245Y-116063147D01*
X105408102Y-115946853D01*
X105313147Y-115851898D01*
X105196853Y-115784755D01*
X105137574Y-115768871D01*
X105700864Y-115205581D01*
X105700863Y-115205580D01*
X105663008Y-115178077D01*
X105511277Y-115100765D01*
X105460481Y-115052790D01*
X105443686Y-114984969D01*
X105466224Y-114918834D01*
X105511277Y-114879795D01*
X105511827Y-114879515D01*
X105663266Y-114802353D01*
X105824418Y-114685269D01*
X105965269Y-114544418D01*
X106082353Y-114383266D01*
X106159515Y-114231827D01*
X106207490Y-114181031D01*
X106275311Y-114164236D01*
X106341446Y-114186773D01*
G37*
%TD.AperFunction*%
%TA.AperFunction,Conductor*%
G36*
X107064755Y-101216853D02*
G01*
X107131898Y-101333147D01*
X107226853Y-101428102D01*
X107343147Y-101495245D01*
X107402425Y-101511128D01*
X106839134Y-102074417D01*
X106876994Y-102101924D01*
X107028722Y-102179234D01*
X107079518Y-102227209D01*
X107096313Y-102295030D01*
X107073776Y-102361165D01*
X107028723Y-102400203D01*
X106876735Y-102477645D01*
X106792922Y-102538540D01*
X106715582Y-102594731D01*
X106715580Y-102594733D01*
X106715579Y-102594733D01*
X106574733Y-102735579D01*
X106574733Y-102735580D01*
X106574731Y-102735582D01*
X106524447Y-102804790D01*
X106457647Y-102896733D01*
X106380485Y-103048172D01*
X106332510Y-103098968D01*
X106264689Y-103115763D01*
X106198554Y-103093225D01*
X106159515Y-103048172D01*
X106082483Y-102896990D01*
X106082353Y-102896734D01*
X105965269Y-102735582D01*
X105824418Y-102594731D01*
X105663266Y-102477647D01*
X105644541Y-102468106D01*
X105511827Y-102400485D01*
X105461031Y-102352510D01*
X105444236Y-102284689D01*
X105466773Y-102218554D01*
X105511827Y-102179515D01*
X105584447Y-102142513D01*
X105663266Y-102102353D01*
X105824418Y-101985269D01*
X105965269Y-101844418D01*
X106082353Y-101683266D01*
X106159795Y-101531276D01*
X106207769Y-101480481D01*
X106275590Y-101463686D01*
X106341725Y-101486223D01*
X106380765Y-101531277D01*
X106458077Y-101683008D01*
X106485580Y-101720863D01*
X106485581Y-101720864D01*
X107048871Y-101157574D01*
X107064755Y-101216853D01*
G37*
%TD.AperFunction*%
%TA.AperFunction,Conductor*%
G36*
X106341446Y-98946773D02*
G01*
X106380485Y-98991827D01*
X106457647Y-99143266D01*
X106574731Y-99304418D01*
X106715582Y-99445269D01*
X106876734Y-99562353D01*
X106955621Y-99602548D01*
X107028722Y-99639795D01*
X107079518Y-99687770D01*
X107096313Y-99755591D01*
X107073776Y-99821726D01*
X107028723Y-99860764D01*
X106876993Y-99938075D01*
X106839135Y-99965580D01*
X106839135Y-99965581D01*
X107402425Y-100528871D01*
X107343147Y-100544755D01*
X107226853Y-100611898D01*
X107131898Y-100706853D01*
X107064755Y-100823147D01*
X107048871Y-100882425D01*
X106485581Y-100319135D01*
X106485580Y-100319135D01*
X106458075Y-100356993D01*
X106380764Y-100508723D01*
X106332790Y-100559518D01*
X106264969Y-100576313D01*
X106198834Y-100553775D01*
X106159795Y-100508722D01*
X106082485Y-100356994D01*
X106082353Y-100356734D01*
X105965269Y-100195582D01*
X105824418Y-100054731D01*
X105663266Y-99937647D01*
X105511827Y-99860485D01*
X105461031Y-99812510D01*
X105444236Y-99744689D01*
X105466773Y-99678554D01*
X105511827Y-99639515D01*
X105521116Y-99634781D01*
X105663266Y-99562353D01*
X105824418Y-99445269D01*
X105965269Y-99304418D01*
X106082353Y-99143266D01*
X106159515Y-98991827D01*
X106207490Y-98941031D01*
X106275311Y-98924236D01*
X106341446Y-98946773D01*
G37*
%TD.AperFunction*%
%TA.AperFunction,Conductor*%
G36*
X168024755Y-116456853D02*
G01*
X168091898Y-116573147D01*
X168186853Y-116668102D01*
X168303147Y-116735245D01*
X168362425Y-116751128D01*
X167799134Y-117314417D01*
X167836994Y-117341924D01*
X167988722Y-117419234D01*
X168039518Y-117467209D01*
X168056313Y-117535030D01*
X168033776Y-117601165D01*
X167988723Y-117640203D01*
X167836735Y-117717645D01*
X167723997Y-117799555D01*
X167675582Y-117834731D01*
X167675580Y-117834733D01*
X167675579Y-117834733D01*
X167534733Y-117975579D01*
X167534733Y-117975580D01*
X167534731Y-117975582D01*
X167484447Y-118044790D01*
X167417647Y-118136733D01*
X167340485Y-118288172D01*
X167292510Y-118338968D01*
X167224689Y-118355763D01*
X167158554Y-118333225D01*
X167119515Y-118288172D01*
X167042485Y-118136994D01*
X167042353Y-118136734D01*
X166925269Y-117975582D01*
X166784418Y-117834731D01*
X166623266Y-117717647D01*
X166471827Y-117640485D01*
X166421031Y-117592510D01*
X166404236Y-117524689D01*
X166426773Y-117458554D01*
X166471827Y-117419515D01*
X166481116Y-117414781D01*
X166623266Y-117342353D01*
X166784418Y-117225269D01*
X166925269Y-117084418D01*
X167042353Y-116923266D01*
X167119795Y-116771276D01*
X167167769Y-116720481D01*
X167235590Y-116703686D01*
X167301725Y-116726223D01*
X167340765Y-116771277D01*
X167418077Y-116923008D01*
X167445580Y-116960863D01*
X167445581Y-116960864D01*
X168008871Y-116397574D01*
X168024755Y-116456853D01*
G37*
%TD.AperFunction*%
%TA.AperFunction,Conductor*%
G36*
X167301446Y-114186773D02*
G01*
X167340485Y-114231827D01*
X167387985Y-114325051D01*
X167417647Y-114383266D01*
X167534731Y-114544418D01*
X167675582Y-114685269D01*
X167836734Y-114802353D01*
X167899673Y-114834422D01*
X167988722Y-114879795D01*
X168039518Y-114927770D01*
X168056313Y-114995591D01*
X168033776Y-115061726D01*
X167988723Y-115100764D01*
X167836993Y-115178075D01*
X167799135Y-115205580D01*
X167799135Y-115205581D01*
X168362425Y-115768871D01*
X168303147Y-115784755D01*
X168186853Y-115851898D01*
X168091898Y-115946853D01*
X168024755Y-116063147D01*
X168008871Y-116122425D01*
X167445581Y-115559135D01*
X167445580Y-115559135D01*
X167418075Y-115596993D01*
X167340764Y-115748723D01*
X167292790Y-115799518D01*
X167224969Y-115816313D01*
X167158834Y-115793775D01*
X167119795Y-115748722D01*
X167042486Y-115596996D01*
X167042353Y-115596734D01*
X166925269Y-115435582D01*
X166784418Y-115294731D01*
X166623266Y-115177647D01*
X166561159Y-115146002D01*
X166471827Y-115100485D01*
X166421031Y-115052510D01*
X166404236Y-114984689D01*
X166426773Y-114918554D01*
X166471827Y-114879515D01*
X166481116Y-114874781D01*
X166623266Y-114802353D01*
X166784418Y-114685269D01*
X166925269Y-114544418D01*
X167042353Y-114383266D01*
X167119515Y-114231827D01*
X167167490Y-114181031D01*
X167235311Y-114164236D01*
X167301446Y-114186773D01*
G37*
%TD.AperFunction*%
%TA.AperFunction,Conductor*%
G36*
X167014417Y-104260863D02*
G01*
X167014418Y-104260863D01*
X167041924Y-104223005D01*
X167119234Y-104071277D01*
X167167208Y-104020481D01*
X167235029Y-104003686D01*
X167301164Y-104026223D01*
X167340204Y-104071277D01*
X167387985Y-104165051D01*
X167417647Y-104223266D01*
X167534731Y-104384418D01*
X167675582Y-104525269D01*
X167836734Y-104642353D01*
X167906453Y-104677877D01*
X167988172Y-104719515D01*
X168038968Y-104767490D01*
X168055763Y-104835311D01*
X168033225Y-104901446D01*
X167988172Y-104940485D01*
X167836733Y-105017647D01*
X167759010Y-105074117D01*
X167675582Y-105134731D01*
X167675580Y-105134733D01*
X167675579Y-105134733D01*
X167534733Y-105275579D01*
X167534733Y-105275580D01*
X167534731Y-105275582D01*
X167484447Y-105344790D01*
X167417647Y-105436733D01*
X167340485Y-105588172D01*
X167292510Y-105638968D01*
X167224689Y-105655763D01*
X167158554Y-105633225D01*
X167119515Y-105588172D01*
X167042352Y-105436733D01*
X166925269Y-105275582D01*
X166784418Y-105134731D01*
X166623266Y-105017647D01*
X166616163Y-105014028D01*
X166471277Y-104940204D01*
X166420481Y-104892229D01*
X166403686Y-104824408D01*
X166426224Y-104758273D01*
X166471277Y-104719234D01*
X166623005Y-104641924D01*
X166660863Y-104614418D01*
X166660863Y-104614417D01*
X166097574Y-104051128D01*
X166156853Y-104035245D01*
X166273147Y-103968102D01*
X166368102Y-103873147D01*
X166435245Y-103756853D01*
X166451128Y-103697574D01*
X167014417Y-104260863D01*
G37*
%TD.AperFunction*%
%TA.AperFunction,Conductor*%
G36*
X167301446Y-101486773D02*
G01*
X167340485Y-101531827D01*
X167387985Y-101625051D01*
X167417647Y-101683266D01*
X167534731Y-101844418D01*
X167675582Y-101985269D01*
X167836734Y-102102353D01*
X167906453Y-102137877D01*
X167988172Y-102179515D01*
X168038968Y-102227490D01*
X168055763Y-102295311D01*
X168033225Y-102361446D01*
X167988172Y-102400485D01*
X167836733Y-102477647D01*
X167752922Y-102538540D01*
X167675582Y-102594731D01*
X167675580Y-102594733D01*
X167675579Y-102594733D01*
X167534733Y-102735579D01*
X167534733Y-102735580D01*
X167534731Y-102735582D01*
X167511388Y-102767711D01*
X167417645Y-102896735D01*
X167340203Y-103048723D01*
X167292229Y-103099518D01*
X167224408Y-103116313D01*
X167158273Y-103093775D01*
X167119234Y-103048722D01*
X167041924Y-102896994D01*
X167014417Y-102859135D01*
X167014417Y-102859134D01*
X166451128Y-103422424D01*
X166435245Y-103363147D01*
X166368102Y-103246853D01*
X166273147Y-103151898D01*
X166156853Y-103084755D01*
X166097574Y-103068871D01*
X166660864Y-102505581D01*
X166660863Y-102505580D01*
X166623008Y-102478077D01*
X166471277Y-102400765D01*
X166420481Y-102352790D01*
X166403686Y-102284969D01*
X166426224Y-102218834D01*
X166471277Y-102179795D01*
X166472378Y-102179234D01*
X166623266Y-102102353D01*
X166784418Y-101985269D01*
X166925269Y-101844418D01*
X167042353Y-101683266D01*
X167119515Y-101531827D01*
X167167490Y-101481031D01*
X167235311Y-101464236D01*
X167301446Y-101486773D01*
G37*
%TD.AperFunction*%
%TA.AperFunction,Conductor*%
G36*
X171892539Y-61570185D02*
G01*
X171938294Y-61622989D01*
X171949500Y-61674500D01*
X171949500Y-144075500D01*
X171929815Y-144142539D01*
X171877011Y-144188294D01*
X171825500Y-144199500D01*
X101674500Y-144199500D01*
X101607461Y-144179815D01*
X101561706Y-144127011D01*
X101550500Y-144075500D01*
X101550500Y-92587135D01*
X103734500Y-92587135D01*
X103734500Y-94212870D01*
X103734501Y-94212876D01*
X103740908Y-94272483D01*
X103791202Y-94407328D01*
X103791206Y-94407335D01*
X103877452Y-94522544D01*
X103877455Y-94522547D01*
X103992664Y-94608793D01*
X103992671Y-94608797D01*
X104127517Y-94659091D01*
X104127516Y-94659091D01*
X104134444Y-94659835D01*
X104187127Y-94665500D01*
X104219568Y-94665499D01*
X104286605Y-94685182D01*
X104332361Y-94737984D01*
X104342306Y-94807143D01*
X104313283Y-94870699D01*
X104292455Y-94889816D01*
X104175582Y-94974730D01*
X104034733Y-95115579D01*
X104034733Y-95115580D01*
X104034731Y-95115582D01*
X103984447Y-95184790D01*
X103917647Y-95276733D01*
X103827213Y-95454219D01*
X103765661Y-95643656D01*
X103765661Y-95643659D01*
X103734500Y-95840403D01*
X103734500Y-96039596D01*
X103765661Y-96236340D01*
X103765661Y-96236343D01*
X103827213Y-96425780D01*
X103905538Y-96579500D01*
X103917647Y-96603266D01*
X104034731Y-96764418D01*
X104175582Y-96905269D01*
X104336734Y-97022353D01*
X104406453Y-97057877D01*
X104488172Y-97099515D01*
X104538968Y-97147490D01*
X104555763Y-97215311D01*
X104533225Y-97281446D01*
X104488172Y-97320485D01*
X104336733Y-97397647D01*
X104250668Y-97460178D01*
X104175582Y-97514731D01*
X104175580Y-97514733D01*
X104175579Y-97514733D01*
X104034733Y-97655579D01*
X104034733Y-97655580D01*
X104034731Y-97655582D01*
X103984447Y-97724790D01*
X103917647Y-97816733D01*
X103827213Y-97994219D01*
X103765661Y-98183656D01*
X103765661Y-98183659D01*
X103734500Y-98380403D01*
X103734500Y-98579596D01*
X103765661Y-98776340D01*
X103765661Y-98776343D01*
X103827213Y-98965780D01*
X103914731Y-99137544D01*
X103917647Y-99143266D01*
X104034731Y-99304418D01*
X104175582Y-99445269D01*
X104336734Y-99562353D01*
X104406453Y-99597877D01*
X104488172Y-99639515D01*
X104538968Y-99687490D01*
X104555763Y-99755311D01*
X104533225Y-99821446D01*
X104488172Y-99860485D01*
X104336733Y-99937647D01*
X104298286Y-99965581D01*
X104175582Y-100054731D01*
X104175580Y-100054733D01*
X104175579Y-100054733D01*
X104034733Y-100195579D01*
X104034733Y-100195580D01*
X104034731Y-100195582D01*
X103984447Y-100264790D01*
X103917647Y-100356733D01*
X103827213Y-100534219D01*
X103765661Y-100723656D01*
X103765661Y-100723659D01*
X103734500Y-100920403D01*
X103734500Y-101119596D01*
X103765661Y-101316340D01*
X103765661Y-101316343D01*
X103827213Y-101505780D01*
X103887985Y-101625051D01*
X103917647Y-101683266D01*
X104034731Y-101844418D01*
X104175582Y-101985269D01*
X104336734Y-102102353D01*
X104406453Y-102137877D01*
X104488172Y-102179515D01*
X104538968Y-102227490D01*
X104555763Y-102295311D01*
X104533225Y-102361446D01*
X104488172Y-102400485D01*
X104336733Y-102477647D01*
X104252922Y-102538540D01*
X104175582Y-102594731D01*
X104175580Y-102594733D01*
X104175579Y-102594733D01*
X104034733Y-102735579D01*
X104034733Y-102735580D01*
X104034731Y-102735582D01*
X103984447Y-102804790D01*
X103917647Y-102896733D01*
X103827213Y-103074219D01*
X103765661Y-103263656D01*
X103765661Y-103263659D01*
X103734500Y-103460403D01*
X103734500Y-103659596D01*
X103765661Y-103856340D01*
X103765661Y-103856343D01*
X103827213Y-104045780D01*
X103887985Y-104165051D01*
X103917647Y-104223266D01*
X104034731Y-104384418D01*
X104175582Y-104525269D01*
X104336734Y-104642353D01*
X104406453Y-104677877D01*
X104488172Y-104719515D01*
X104538968Y-104767490D01*
X104555763Y-104835311D01*
X104533225Y-104901446D01*
X104488172Y-104940485D01*
X104336733Y-105017647D01*
X104259010Y-105074117D01*
X104175582Y-105134731D01*
X104175580Y-105134733D01*
X104175579Y-105134733D01*
X104034733Y-105275579D01*
X104034733Y-105275580D01*
X104034731Y-105275582D01*
X103984447Y-105344790D01*
X103917647Y-105436733D01*
X103827213Y-105614219D01*
X103765661Y-105803656D01*
X103765661Y-105803659D01*
X103740822Y-105960485D01*
X103734500Y-106000403D01*
X103734500Y-106199597D01*
X103734968Y-106202553D01*
X103765661Y-106396340D01*
X103765661Y-106396343D01*
X103827213Y-106585780D01*
X103887985Y-106705051D01*
X103917647Y-106763266D01*
X104034731Y-106924418D01*
X104175582Y-107065269D01*
X104336734Y-107182353D01*
X104399673Y-107214422D01*
X104488172Y-107259515D01*
X104538968Y-107307490D01*
X104555763Y-107375311D01*
X104533225Y-107441446D01*
X104488172Y-107480485D01*
X104336733Y-107557647D01*
X104283468Y-107596347D01*
X104175582Y-107674731D01*
X104175580Y-107674733D01*
X104175579Y-107674733D01*
X104034733Y-107815579D01*
X104034733Y-107815580D01*
X104034731Y-107815582D01*
X103996253Y-107868542D01*
X103917647Y-107976733D01*
X103827213Y-108154219D01*
X103765661Y-108343656D01*
X103765661Y-108343659D01*
X103740822Y-108500485D01*
X103734500Y-108540403D01*
X103734500Y-108739597D01*
X103734968Y-108742553D01*
X103765661Y-108936340D01*
X103765661Y-108936343D01*
X103827213Y-109125780D01*
X103887985Y-109245051D01*
X103917647Y-109303266D01*
X104034731Y-109464418D01*
X104175582Y-109605269D01*
X104336734Y-109722353D01*
X104399673Y-109754422D01*
X104488172Y-109799515D01*
X104538968Y-109847490D01*
X104555763Y-109915311D01*
X104533225Y-109981446D01*
X104488172Y-110020485D01*
X104336733Y-110097647D01*
X104250668Y-110160178D01*
X104175582Y-110214731D01*
X104175580Y-110214733D01*
X104175579Y-110214733D01*
X104034733Y-110355579D01*
X104034733Y-110355580D01*
X104034731Y-110355582D01*
X103984447Y-110424790D01*
X103917647Y-110516733D01*
X103827213Y-110694219D01*
X103765661Y-110883656D01*
X103765661Y-110883659D01*
X103740822Y-111040485D01*
X103734500Y-111080403D01*
X103734500Y-111279597D01*
X103734968Y-111282553D01*
X103765661Y-111476340D01*
X103765661Y-111476343D01*
X103827213Y-111665780D01*
X103887985Y-111785051D01*
X103917647Y-111843266D01*
X104034731Y-112004418D01*
X104175582Y-112145269D01*
X104336734Y-112262353D01*
X104399673Y-112294422D01*
X104488172Y-112339515D01*
X104538968Y-112387490D01*
X104555763Y-112455311D01*
X104533225Y-112521446D01*
X104488172Y-112560485D01*
X104336733Y-112637647D01*
X104250668Y-112700178D01*
X104175582Y-112754731D01*
X104175580Y-112754733D01*
X104175579Y-112754733D01*
X104034733Y-112895579D01*
X104034733Y-112895580D01*
X104034731Y-112895582D01*
X103984447Y-112964790D01*
X103917647Y-113056733D01*
X103827213Y-113234219D01*
X103765661Y-113423656D01*
X103765661Y-113423659D01*
X103740822Y-113580485D01*
X103734500Y-113620403D01*
X103734500Y-113819597D01*
X103734968Y-113822553D01*
X103765661Y-114016340D01*
X103765661Y-114016343D01*
X103827213Y-114205780D01*
X103887985Y-114325051D01*
X103917647Y-114383266D01*
X104034731Y-114544418D01*
X104175582Y-114685269D01*
X104336734Y-114802353D01*
X104399673Y-114834422D01*
X104488722Y-114879795D01*
X104539518Y-114927770D01*
X104556313Y-114995591D01*
X104533776Y-115061726D01*
X104488723Y-115100764D01*
X104336993Y-115178075D01*
X104299135Y-115205580D01*
X104299135Y-115205581D01*
X104862425Y-115768871D01*
X104803147Y-115784755D01*
X104686853Y-115851898D01*
X104591898Y-115946853D01*
X104524755Y-116063147D01*
X104508871Y-116122425D01*
X103945581Y-115559135D01*
X103945580Y-115559135D01*
X103918077Y-115596990D01*
X103827679Y-115774405D01*
X103766147Y-115963777D01*
X103735000Y-116160436D01*
X103735000Y-116359563D01*
X103766147Y-116556222D01*
X103827679Y-116745594D01*
X103918077Y-116923008D01*
X103945580Y-116960863D01*
X103945581Y-116960864D01*
X104508871Y-116397574D01*
X104524755Y-116456853D01*
X104591898Y-116573147D01*
X104686853Y-116668102D01*
X104803147Y-116735245D01*
X104862425Y-116751128D01*
X104299134Y-117314417D01*
X104336994Y-117341924D01*
X104488722Y-117419234D01*
X104539518Y-117467209D01*
X104556313Y-117535030D01*
X104533776Y-117601165D01*
X104488723Y-117640203D01*
X104336735Y-117717645D01*
X104223997Y-117799555D01*
X104175582Y-117834731D01*
X104175580Y-117834733D01*
X104175579Y-117834733D01*
X104034733Y-117975579D01*
X104034733Y-117975580D01*
X104034731Y-117975582D01*
X103984447Y-118044790D01*
X103917647Y-118136733D01*
X103827213Y-118314219D01*
X103765661Y-118503656D01*
X103765661Y-118503659D01*
X103745437Y-118631347D01*
X103734500Y-118700403D01*
X103734500Y-118899597D01*
X103749904Y-118996853D01*
X103765661Y-119096340D01*
X103765661Y-119096343D01*
X103827213Y-119285780D01*
X103852276Y-119334968D01*
X103917647Y-119463266D01*
X104034731Y-119624418D01*
X104175582Y-119765269D01*
X104336734Y-119882353D01*
X104398843Y-119913999D01*
X104488172Y-119959515D01*
X104538968Y-120007490D01*
X104555763Y-120075311D01*
X104533225Y-120141446D01*
X104488172Y-120180485D01*
X104336733Y-120257647D01*
X104244790Y-120324447D01*
X104175582Y-120374731D01*
X104175580Y-120374733D01*
X104175579Y-120374733D01*
X104034733Y-120515579D01*
X104034733Y-120515580D01*
X104034731Y-120515582D01*
X103984447Y-120584790D01*
X103917647Y-120676733D01*
X103827213Y-120854219D01*
X103765661Y-121043656D01*
X103765661Y-121043659D01*
X103756738Y-121100000D01*
X103734500Y-121240403D01*
X103734500Y-121439597D01*
X103741429Y-121483343D01*
X103765661Y-121636340D01*
X103765661Y-121636343D01*
X103827213Y-121825780D01*
X103898580Y-121965845D01*
X103917647Y-122003266D01*
X104034731Y-122164418D01*
X104175582Y-122305269D01*
X104336734Y-122422353D01*
X104399673Y-122454422D01*
X104488172Y-122499515D01*
X104538968Y-122547490D01*
X104555763Y-122615311D01*
X104533225Y-122681446D01*
X104488172Y-122720485D01*
X104336733Y-122797647D01*
X104244790Y-122864447D01*
X104175582Y-122914731D01*
X104175580Y-122914733D01*
X104175579Y-122914733D01*
X104034733Y-123055579D01*
X104034733Y-123055580D01*
X104034731Y-123055582D01*
X103984447Y-123124790D01*
X103917647Y-123216733D01*
X103827213Y-123394219D01*
X103765661Y-123583656D01*
X103765661Y-123583659D01*
X103765661Y-123583661D01*
X103734500Y-123780403D01*
X103734500Y-123979597D01*
X103734968Y-123982553D01*
X103765661Y-124176340D01*
X103765661Y-124176343D01*
X103827213Y-124365780D01*
X103840485Y-124391827D01*
X103917647Y-124543266D01*
X104034731Y-124704418D01*
X104175582Y-124845269D01*
X104336734Y-124962353D01*
X104399673Y-124994422D01*
X104488172Y-125039515D01*
X104538968Y-125087490D01*
X104555763Y-125155311D01*
X104533225Y-125221446D01*
X104488172Y-125260485D01*
X104336733Y-125337647D01*
X104244790Y-125404447D01*
X104175582Y-125454731D01*
X104175580Y-125454733D01*
X104175579Y-125454733D01*
X104034733Y-125595579D01*
X104034733Y-125595580D01*
X104034731Y-125595582D01*
X103984447Y-125664790D01*
X103917647Y-125756733D01*
X103827213Y-125934219D01*
X103765661Y-126123656D01*
X103765661Y-126123659D01*
X103762842Y-126141457D01*
X103734500Y-126320403D01*
X103734500Y-126519597D01*
X103734968Y-126522553D01*
X103765661Y-126716340D01*
X103765661Y-126716343D01*
X103827213Y-126905780D01*
X103840485Y-126931827D01*
X103917647Y-127083266D01*
X104034731Y-127244418D01*
X104175582Y-127385269D01*
X104336734Y-127502353D01*
X104399673Y-127534422D01*
X104488172Y-127579515D01*
X104538968Y-127627490D01*
X104555763Y-127695311D01*
X104533225Y-127761446D01*
X104488172Y-127800485D01*
X104336733Y-127877647D01*
X104259010Y-127934117D01*
X104175582Y-127994731D01*
X104175580Y-127994733D01*
X104175579Y-127994733D01*
X104034733Y-128135579D01*
X104034733Y-128135580D01*
X104034731Y-128135582D01*
X103984447Y-128204790D01*
X103917647Y-128296733D01*
X103827213Y-128474219D01*
X103765661Y-128663656D01*
X103765661Y-128663659D01*
X103765661Y-128663661D01*
X103734500Y-128860403D01*
X103734500Y-129059597D01*
X103734968Y-129062553D01*
X103765661Y-129256340D01*
X103765661Y-129256343D01*
X103827213Y-129445780D01*
X103840485Y-129471827D01*
X103917647Y-129623266D01*
X104034731Y-129784418D01*
X104175582Y-129925269D01*
X104336734Y-130042353D01*
X104399673Y-130074422D01*
X104488172Y-130119515D01*
X104538968Y-130167490D01*
X104555763Y-130235311D01*
X104533225Y-130301446D01*
X104488172Y-130340485D01*
X104336733Y-130417647D01*
X104244790Y-130484447D01*
X104175582Y-130534731D01*
X104175580Y-130534733D01*
X104175579Y-130534733D01*
X104034733Y-130675579D01*
X104034733Y-130675580D01*
X104034731Y-130675582D01*
X103984447Y-130744790D01*
X103917647Y-130836733D01*
X103827213Y-131014219D01*
X103765661Y-131203656D01*
X103765661Y-131203659D01*
X103765661Y-131203661D01*
X103734500Y-131400403D01*
X103734500Y-131599597D01*
X103734968Y-131602553D01*
X103765661Y-131796340D01*
X103765661Y-131796343D01*
X103827213Y-131985780D01*
X103840485Y-132011827D01*
X103917647Y-132163266D01*
X104034731Y-132324418D01*
X104175582Y-132465269D01*
X104336734Y-132582353D01*
X104399673Y-132614422D01*
X104488172Y-132659515D01*
X104538968Y-132707490D01*
X104555763Y-132775311D01*
X104533225Y-132841446D01*
X104488172Y-132880485D01*
X104336733Y-132957647D01*
X104244790Y-133024447D01*
X104175582Y-133074731D01*
X104175580Y-133074733D01*
X104175579Y-133074733D01*
X104034733Y-133215579D01*
X104034733Y-133215580D01*
X104034731Y-133215582D01*
X103984447Y-133284790D01*
X103917647Y-133376733D01*
X103827213Y-133554219D01*
X103765661Y-133743656D01*
X103765661Y-133743659D01*
X103765661Y-133743661D01*
X103734500Y-133940403D01*
X103734500Y-134139597D01*
X103734968Y-134142553D01*
X103765661Y-134336340D01*
X103765661Y-134336343D01*
X103827213Y-134525780D01*
X103917647Y-134703266D01*
X104034731Y-134864418D01*
X104175582Y-135005269D01*
X104336734Y-135122353D01*
X104399673Y-135154422D01*
X104488172Y-135199515D01*
X104538968Y-135247490D01*
X104555763Y-135315311D01*
X104533225Y-135381446D01*
X104488172Y-135420485D01*
X104336733Y-135497647D01*
X104246055Y-135563529D01*
X104175582Y-135614731D01*
X104175580Y-135614733D01*
X104175579Y-135614733D01*
X104034733Y-135755579D01*
X104034733Y-135755580D01*
X104034731Y-135755582D01*
X103984447Y-135824790D01*
X103917647Y-135916733D01*
X103827213Y-136094219D01*
X103765661Y-136283656D01*
X103765661Y-136283659D01*
X103765661Y-136283661D01*
X103734500Y-136480403D01*
X103734500Y-136679597D01*
X103734968Y-136682553D01*
X103765661Y-136876340D01*
X103765661Y-136876343D01*
X103827213Y-137065780D01*
X103840485Y-137091827D01*
X103917647Y-137243266D01*
X104034731Y-137404418D01*
X104175582Y-137545269D01*
X104336734Y-137662353D01*
X104399673Y-137694422D01*
X104488172Y-137739515D01*
X104538968Y-137787490D01*
X104555763Y-137855311D01*
X104533225Y-137921446D01*
X104488172Y-137960485D01*
X104336733Y-138037647D01*
X104244790Y-138104447D01*
X104175582Y-138154731D01*
X104175580Y-138154733D01*
X104175579Y-138154733D01*
X104034733Y-138295579D01*
X104034733Y-138295580D01*
X104034731Y-138295582D01*
X103984447Y-138364790D01*
X103917647Y-138456733D01*
X103827213Y-138634219D01*
X103765661Y-138823656D01*
X103765661Y-138823659D01*
X103765661Y-138823661D01*
X103734500Y-139020403D01*
X103734500Y-139219597D01*
X103734968Y-139222553D01*
X103765661Y-139416340D01*
X103765661Y-139416343D01*
X103827213Y-139605780D01*
X103840485Y-139631827D01*
X103917647Y-139783266D01*
X104034731Y-139944418D01*
X104175582Y-140085269D01*
X104336734Y-140202353D01*
X104489215Y-140280046D01*
X104514219Y-140292786D01*
X104703657Y-140354338D01*
X104703658Y-140354338D01*
X104703661Y-140354339D01*
X104900403Y-140385500D01*
X104900404Y-140385500D01*
X105099596Y-140385500D01*
X105099597Y-140385500D01*
X105296339Y-140354339D01*
X105296342Y-140354338D01*
X105296343Y-140354338D01*
X105485780Y-140292786D01*
X105485780Y-140292785D01*
X105485783Y-140292785D01*
X105663266Y-140202353D01*
X105824418Y-140085269D01*
X105965269Y-139944418D01*
X106082353Y-139783266D01*
X106159515Y-139631827D01*
X106207490Y-139581031D01*
X106275311Y-139564236D01*
X106341446Y-139586773D01*
X106380485Y-139631827D01*
X106457647Y-139783266D01*
X106574731Y-139944418D01*
X106715582Y-140085269D01*
X106876734Y-140202353D01*
X107029215Y-140280046D01*
X107054219Y-140292786D01*
X107243657Y-140354338D01*
X107243658Y-140354338D01*
X107243661Y-140354339D01*
X107440403Y-140385500D01*
X107440404Y-140385500D01*
X107639596Y-140385500D01*
X107639597Y-140385500D01*
X107836339Y-140354339D01*
X107836342Y-140354338D01*
X107836343Y-140354338D01*
X108025780Y-140292786D01*
X108025780Y-140292785D01*
X108025783Y-140292785D01*
X108203266Y-140202353D01*
X108364418Y-140085269D01*
X108505269Y-139944418D01*
X108622353Y-139783266D01*
X108712785Y-139605783D01*
X108720827Y-139581031D01*
X108774338Y-139416343D01*
X108774338Y-139416342D01*
X108774339Y-139416339D01*
X108805500Y-139219597D01*
X108805500Y-139020403D01*
X108774339Y-138823661D01*
X108774338Y-138823657D01*
X108774338Y-138823656D01*
X108712786Y-138634219D01*
X108622352Y-138456733D01*
X108505269Y-138295582D01*
X108364418Y-138154731D01*
X108203266Y-138037647D01*
X108051827Y-137960485D01*
X108001031Y-137912510D01*
X107984236Y-137844689D01*
X108006773Y-137778554D01*
X108051827Y-137739515D01*
X108087654Y-137721260D01*
X108203266Y-137662353D01*
X108364418Y-137545269D01*
X108505269Y-137404418D01*
X108622353Y-137243266D01*
X108712785Y-137065783D01*
X108725140Y-137027758D01*
X108774338Y-136876343D01*
X108774338Y-136876342D01*
X108774339Y-136876339D01*
X108805500Y-136679597D01*
X108805500Y-136480403D01*
X108774339Y-136283661D01*
X108774338Y-136283657D01*
X108774338Y-136283656D01*
X108712786Y-136094219D01*
X108622352Y-135916733D01*
X108505269Y-135755582D01*
X108364418Y-135614731D01*
X108203266Y-135497647D01*
X108051827Y-135420485D01*
X108001031Y-135372510D01*
X107984236Y-135304689D01*
X108006773Y-135238554D01*
X108051827Y-135199515D01*
X108061116Y-135194781D01*
X108203266Y-135122353D01*
X108364418Y-135005269D01*
X108505269Y-134864418D01*
X108622353Y-134703266D01*
X108712785Y-134525783D01*
X108725140Y-134487758D01*
X108774338Y-134336343D01*
X108774338Y-134336342D01*
X108774339Y-134336339D01*
X108805500Y-134139597D01*
X108805500Y-133940403D01*
X108774339Y-133743661D01*
X108774338Y-133743657D01*
X108774338Y-133743656D01*
X108712786Y-133554219D01*
X108622352Y-133376733D01*
X108505269Y-133215582D01*
X108364418Y-133074731D01*
X108203266Y-132957647D01*
X108051827Y-132880485D01*
X108001031Y-132832510D01*
X107984236Y-132764689D01*
X108006773Y-132698554D01*
X108051827Y-132659515D01*
X108061116Y-132654781D01*
X108203266Y-132582353D01*
X108364418Y-132465269D01*
X108505269Y-132324418D01*
X108622353Y-132163266D01*
X108712785Y-131985783D01*
X108725140Y-131947758D01*
X108774338Y-131796343D01*
X108774338Y-131796342D01*
X108774339Y-131796339D01*
X108805500Y-131599597D01*
X108805500Y-131400403D01*
X108774339Y-131203661D01*
X108774338Y-131203657D01*
X108774338Y-131203656D01*
X108712786Y-131014219D01*
X108622352Y-130836733D01*
X108505269Y-130675582D01*
X108364418Y-130534731D01*
X108203266Y-130417647D01*
X108051827Y-130340485D01*
X108001031Y-130292510D01*
X107984236Y-130224689D01*
X108006773Y-130158554D01*
X108051827Y-130119515D01*
X108061116Y-130114781D01*
X108203266Y-130042353D01*
X108364418Y-129925269D01*
X108505269Y-129784418D01*
X108622353Y-129623266D01*
X108712785Y-129445783D01*
X108725140Y-129407758D01*
X108774338Y-129256343D01*
X108774338Y-129256342D01*
X108774339Y-129256339D01*
X108805500Y-129059597D01*
X108805500Y-128860403D01*
X108774339Y-128663661D01*
X108774338Y-128663657D01*
X108774338Y-128663656D01*
X108712786Y-128474219D01*
X108622352Y-128296733D01*
X108505269Y-128135582D01*
X108364418Y-127994731D01*
X108203266Y-127877647D01*
X108140321Y-127845575D01*
X108051827Y-127800485D01*
X108001031Y-127752510D01*
X107984236Y-127684689D01*
X108006773Y-127618554D01*
X108051827Y-127579515D01*
X108061116Y-127574781D01*
X108203266Y-127502353D01*
X108364418Y-127385269D01*
X108505269Y-127244418D01*
X108622353Y-127083266D01*
X108712785Y-126905783D01*
X108725140Y-126867758D01*
X108774338Y-126716343D01*
X108774338Y-126716342D01*
X108774339Y-126716339D01*
X108805500Y-126519597D01*
X108805500Y-126320403D01*
X108774339Y-126123661D01*
X108774338Y-126123657D01*
X108774338Y-126123656D01*
X108712786Y-125934219D01*
X108699514Y-125908172D01*
X108622353Y-125756734D01*
X108505269Y-125595582D01*
X108479322Y-125569635D01*
X111317000Y-125569635D01*
X111317000Y-127270370D01*
X111317001Y-127270376D01*
X111323408Y-127329983D01*
X111373702Y-127464828D01*
X111373706Y-127464835D01*
X111459952Y-127580044D01*
X111459955Y-127580047D01*
X111575164Y-127666293D01*
X111575171Y-127666297D01*
X111620118Y-127683061D01*
X111710017Y-127716591D01*
X111742417Y-127720074D01*
X111806965Y-127746811D01*
X111846814Y-127804203D01*
X111849309Y-127874028D01*
X111813657Y-127934117D01*
X111802047Y-127943680D01*
X111771156Y-127966124D01*
X111771154Y-127966125D01*
X111626125Y-128111154D01*
X111626121Y-128111159D01*
X111505577Y-128277075D01*
X111412464Y-128459817D01*
X111394286Y-128515763D01*
X111349084Y-128654880D01*
X111349083Y-128654883D01*
X111349083Y-128654885D01*
X111317000Y-128857446D01*
X111317000Y-129062553D01*
X111347693Y-129256339D01*
X111349084Y-129265120D01*
X111395606Y-129408297D01*
X111412464Y-129460182D01*
X111418398Y-129471827D01*
X111495560Y-129623266D01*
X111505577Y-129642924D01*
X111626121Y-129808840D01*
X111626125Y-129808845D01*
X111771154Y-129953874D01*
X111771159Y-129953878D01*
X111915880Y-130059023D01*
X111937079Y-130074425D01*
X112013210Y-130113215D01*
X112025573Y-130119515D01*
X112076369Y-130167490D01*
X112093164Y-130235311D01*
X112070627Y-130301446D01*
X112025573Y-130340485D01*
X111937075Y-130385577D01*
X111771159Y-130506121D01*
X111771154Y-130506125D01*
X111626125Y-130651154D01*
X111626121Y-130651159D01*
X111505577Y-130817075D01*
X111412464Y-130999817D01*
X111394286Y-131055763D01*
X111349084Y-131194880D01*
X111349083Y-131194883D01*
X111349083Y-131194885D01*
X111317000Y-131397446D01*
X111317000Y-131602553D01*
X111347693Y-131796339D01*
X111349084Y-131805120D01*
X111395606Y-131948297D01*
X111412464Y-132000182D01*
X111418398Y-132011827D01*
X111495560Y-132163266D01*
X111505577Y-132182924D01*
X111626121Y-132348840D01*
X111626125Y-132348845D01*
X111771154Y-132493874D01*
X111771159Y-132493878D01*
X111915880Y-132599023D01*
X111937079Y-132614425D01*
X112013210Y-132653215D01*
X112025573Y-132659515D01*
X112076369Y-132707490D01*
X112093164Y-132775311D01*
X112070627Y-132841446D01*
X112025573Y-132880485D01*
X111937075Y-132925577D01*
X111771159Y-133046121D01*
X111771154Y-133046125D01*
X111626125Y-133191154D01*
X111626121Y-133191159D01*
X111505577Y-133357075D01*
X111412464Y-133539817D01*
X111394286Y-133595763D01*
X111349084Y-133734880D01*
X111349083Y-133734883D01*
X111349083Y-133734885D01*
X111317000Y-133937446D01*
X111317000Y-134142553D01*
X111342315Y-134302381D01*
X111349084Y-134345120D01*
X111395606Y-134488297D01*
X111412464Y-134540182D01*
X111418398Y-134551827D01*
X111495560Y-134703266D01*
X111505577Y-134722924D01*
X111626121Y-134888840D01*
X111626125Y-134888845D01*
X111771154Y-135033874D01*
X111771159Y-135033878D01*
X111915880Y-135139023D01*
X111937079Y-135154425D01*
X112013210Y-135193215D01*
X112025573Y-135199515D01*
X112076369Y-135247490D01*
X112093164Y-135315311D01*
X112070627Y-135381446D01*
X112025573Y-135420485D01*
X111937075Y-135465577D01*
X111771159Y-135586121D01*
X111771154Y-135586125D01*
X111626125Y-135731154D01*
X111626121Y-135731159D01*
X111505577Y-135897075D01*
X111412464Y-136079817D01*
X111394286Y-136135763D01*
X111349084Y-136274880D01*
X111349083Y-136274883D01*
X111349083Y-136274885D01*
X111317000Y-136477446D01*
X111317000Y-136682553D01*
X111347693Y-136876339D01*
X111349084Y-136885120D01*
X111395606Y-137028297D01*
X111412464Y-137080182D01*
X111418398Y-137091827D01*
X111495560Y-137243266D01*
X111505577Y-137262924D01*
X111626121Y-137428840D01*
X111626125Y-137428845D01*
X111771154Y-137573874D01*
X111771159Y-137573878D01*
X111897911Y-137665968D01*
X111937079Y-137694425D01*
X111989746Y-137721260D01*
X112025573Y-137739515D01*
X112076369Y-137787490D01*
X112093164Y-137855311D01*
X112070627Y-137921446D01*
X112025573Y-137960485D01*
X111937075Y-138005577D01*
X111771159Y-138126121D01*
X111771154Y-138126125D01*
X111626125Y-138271154D01*
X111626121Y-138271159D01*
X111505577Y-138437075D01*
X111412464Y-138619817D01*
X111394286Y-138675763D01*
X111349084Y-138814880D01*
X111349083Y-138814883D01*
X111349083Y-138814885D01*
X111317000Y-139017446D01*
X111317000Y-139222553D01*
X111347693Y-139416339D01*
X111349084Y-139425120D01*
X111394286Y-139564236D01*
X111412464Y-139620182D01*
X111418398Y-139631827D01*
X111495560Y-139783266D01*
X111505577Y-139802924D01*
X111626121Y-139968840D01*
X111626125Y-139968845D01*
X111771154Y-140113874D01*
X111771159Y-140113878D01*
X111915880Y-140219023D01*
X111937079Y-140234425D01*
X112051617Y-140292785D01*
X112119817Y-140327535D01*
X112119819Y-140327535D01*
X112119822Y-140327537D01*
X112314880Y-140390916D01*
X112416166Y-140406958D01*
X112517447Y-140423000D01*
X112517452Y-140423000D01*
X112722553Y-140423000D01*
X112814626Y-140408416D01*
X112925120Y-140390916D01*
X113120178Y-140327537D01*
X113302921Y-140234425D01*
X113468847Y-140113873D01*
X113613873Y-139968847D01*
X113734425Y-139802921D01*
X113827537Y-139620178D01*
X113890916Y-139425120D01*
X113908416Y-139314626D01*
X113923000Y-139222553D01*
X113923000Y-139017446D01*
X113905499Y-138906958D01*
X113890916Y-138814880D01*
X113827537Y-138619822D01*
X113827535Y-138619819D01*
X113827535Y-138619817D01*
X113793755Y-138553522D01*
X113734425Y-138437079D01*
X113631622Y-138295582D01*
X113613878Y-138271159D01*
X113613874Y-138271154D01*
X113468845Y-138126125D01*
X113468840Y-138126121D01*
X113302925Y-138005577D01*
X113294311Y-138001188D01*
X113214425Y-137960484D01*
X113163630Y-137912511D01*
X113146835Y-137844690D01*
X113169372Y-137778555D01*
X113214425Y-137739515D01*
X113302921Y-137694425D01*
X113468847Y-137573873D01*
X113613873Y-137428847D01*
X113734425Y-137262921D01*
X113827537Y-137080178D01*
X113890916Y-136885120D01*
X113908416Y-136774626D01*
X113923000Y-136682553D01*
X113923000Y-136477446D01*
X113905499Y-136366958D01*
X113890916Y-136274880D01*
X113827537Y-136079822D01*
X113827535Y-136079819D01*
X113827535Y-136079817D01*
X113793755Y-136013522D01*
X113734425Y-135897079D01*
X113631622Y-135755582D01*
X113613878Y-135731159D01*
X113613874Y-135731154D01*
X113468845Y-135586125D01*
X113468840Y-135586121D01*
X113302925Y-135465577D01*
X113294311Y-135461188D01*
X113214425Y-135420484D01*
X113163630Y-135372511D01*
X113146835Y-135304690D01*
X113169372Y-135238555D01*
X113214425Y-135199515D01*
X113302921Y-135154425D01*
X113417117Y-135071457D01*
X121774499Y-135071457D01*
X121802379Y-135211614D01*
X121802381Y-135211620D01*
X121857069Y-135343650D01*
X121857074Y-135343659D01*
X121936467Y-135462478D01*
X121936470Y-135462482D01*
X122037517Y-135563529D01*
X122037521Y-135563532D01*
X122156340Y-135642925D01*
X122156346Y-135642928D01*
X122156347Y-135642929D01*
X122288380Y-135697619D01*
X122288384Y-135697619D01*
X122288385Y-135697620D01*
X122428542Y-135725500D01*
X122428545Y-135725500D01*
X122571457Y-135725500D01*
X122665751Y-135706742D01*
X122711620Y-135697619D01*
X122843653Y-135642929D01*
X122962479Y-135563532D01*
X123063532Y-135462479D01*
X123142929Y-135343653D01*
X123197619Y-135211620D01*
X123225500Y-135071455D01*
X123225500Y-134928545D01*
X123225500Y-134928542D01*
X123197620Y-134788385D01*
X123197619Y-134788384D01*
X123197619Y-134788380D01*
X123142929Y-134656347D01*
X123142928Y-134656346D01*
X123142925Y-134656340D01*
X123063532Y-134537521D01*
X123063529Y-134537517D01*
X122962482Y-134436470D01*
X122962478Y-134436467D01*
X122843659Y-134357074D01*
X122843650Y-134357069D01*
X122711620Y-134302381D01*
X122711614Y-134302379D01*
X122571457Y-134274500D01*
X122571455Y-134274500D01*
X122428545Y-134274500D01*
X122428543Y-134274500D01*
X122288385Y-134302379D01*
X122288379Y-134302381D01*
X122156349Y-134357069D01*
X122156340Y-134357074D01*
X122037521Y-134436467D01*
X122037517Y-134436470D01*
X121936470Y-134537517D01*
X121936467Y-134537521D01*
X121857074Y-134656340D01*
X121857069Y-134656349D01*
X121802381Y-134788379D01*
X121802379Y-134788385D01*
X121774500Y-134928542D01*
X121774500Y-134928545D01*
X121774500Y-135071455D01*
X121774500Y-135071457D01*
X121774499Y-135071457D01*
X113417117Y-135071457D01*
X113468847Y-135033873D01*
X113613873Y-134888847D01*
X113734425Y-134722921D01*
X113827537Y-134540178D01*
X113890916Y-134345120D01*
X113908416Y-134234626D01*
X113923000Y-134142553D01*
X113923000Y-133937446D01*
X113905499Y-133826958D01*
X113890916Y-133734880D01*
X113827537Y-133539822D01*
X113827535Y-133539819D01*
X113827535Y-133539817D01*
X113793755Y-133473522D01*
X113734425Y-133357079D01*
X113631622Y-133215582D01*
X113613878Y-133191159D01*
X113613874Y-133191154D01*
X113468845Y-133046125D01*
X113468840Y-133046121D01*
X113302925Y-132925577D01*
X113294311Y-132921188D01*
X113214425Y-132880484D01*
X113163630Y-132832511D01*
X113146835Y-132764690D01*
X113169372Y-132698555D01*
X113214425Y-132659515D01*
X113302921Y-132614425D01*
X113468847Y-132493873D01*
X113613873Y-132348847D01*
X113734425Y-132182921D01*
X113827537Y-132000178D01*
X113890916Y-131805120D01*
X113908416Y-131694626D01*
X113923000Y-131602553D01*
X113923000Y-131397446D01*
X113905499Y-131286958D01*
X113890916Y-131194880D01*
X113827537Y-130999822D01*
X113827535Y-130999819D01*
X113827535Y-130999817D01*
X113793755Y-130933522D01*
X113734425Y-130817079D01*
X113631622Y-130675582D01*
X113613878Y-130651159D01*
X113613874Y-130651154D01*
X113468845Y-130506125D01*
X113468840Y-130506121D01*
X113302925Y-130385577D01*
X113294311Y-130381188D01*
X113214425Y-130340484D01*
X113163630Y-130292511D01*
X113146835Y-130224690D01*
X113169372Y-130158555D01*
X113214425Y-130119515D01*
X113302921Y-130074425D01*
X113468847Y-129953873D01*
X113613873Y-129808847D01*
X113734425Y-129642921D01*
X113827537Y-129460178D01*
X113890916Y-129265120D01*
X113908416Y-129154626D01*
X113923000Y-129062553D01*
X113923000Y-128857446D01*
X113905499Y-128746958D01*
X113890916Y-128654880D01*
X113827537Y-128459822D01*
X113827535Y-128459819D01*
X113827535Y-128459817D01*
X113793755Y-128393522D01*
X113734425Y-128277079D01*
X113631622Y-128135582D01*
X113613878Y-128111159D01*
X113613874Y-128111154D01*
X113468845Y-127966125D01*
X113468840Y-127966121D01*
X113437954Y-127943681D01*
X113395288Y-127888351D01*
X113389309Y-127818738D01*
X113421914Y-127756943D01*
X113482753Y-127722586D01*
X113497582Y-127720073D01*
X113529983Y-127716591D01*
X113664831Y-127666296D01*
X113780046Y-127580046D01*
X113866296Y-127464831D01*
X113916591Y-127329983D01*
X113923000Y-127270373D01*
X113922999Y-126141457D01*
X128534499Y-126141457D01*
X128562379Y-126281614D01*
X128562381Y-126281620D01*
X128617069Y-126413650D01*
X128617074Y-126413659D01*
X128696467Y-126532478D01*
X128696470Y-126532482D01*
X128797517Y-126633529D01*
X128797521Y-126633532D01*
X128916340Y-126712925D01*
X128916346Y-126712928D01*
X128916347Y-126712929D01*
X129048380Y-126767619D01*
X129048384Y-126767619D01*
X129048385Y-126767620D01*
X129188542Y-126795500D01*
X129188545Y-126795500D01*
X129331457Y-126795500D01*
X129425751Y-126776742D01*
X129471620Y-126767619D01*
X129603653Y-126712929D01*
X129722479Y-126633532D01*
X129823532Y-126532479D01*
X129902929Y-126413653D01*
X129957619Y-126281620D01*
X129985500Y-126141455D01*
X129985500Y-125998545D01*
X129985500Y-125998542D01*
X129957620Y-125858385D01*
X129957619Y-125858384D01*
X129957619Y-125858380D01*
X129902929Y-125726347D01*
X129902928Y-125726346D01*
X129902925Y-125726340D01*
X129823532Y-125607521D01*
X129823529Y-125607517D01*
X129722482Y-125506470D01*
X129722478Y-125506467D01*
X129603659Y-125427074D01*
X129603650Y-125427069D01*
X129471620Y-125372381D01*
X129471614Y-125372379D01*
X129331457Y-125344500D01*
X129331455Y-125344500D01*
X129188545Y-125344500D01*
X129188543Y-125344500D01*
X129048385Y-125372379D01*
X129048379Y-125372381D01*
X128916349Y-125427069D01*
X128916340Y-125427074D01*
X128797521Y-125506467D01*
X128797517Y-125506470D01*
X128696470Y-125607517D01*
X128696467Y-125607521D01*
X128617074Y-125726340D01*
X128617069Y-125726349D01*
X128562381Y-125858379D01*
X128562379Y-125858385D01*
X128534500Y-125998542D01*
X128534500Y-125998545D01*
X128534500Y-126141455D01*
X128534500Y-126141457D01*
X128534499Y-126141457D01*
X113922999Y-126141457D01*
X113922999Y-125569628D01*
X113916591Y-125510017D01*
X113915267Y-125506468D01*
X113866297Y-125375171D01*
X113866293Y-125375164D01*
X113780047Y-125259955D01*
X113780044Y-125259952D01*
X113664835Y-125173706D01*
X113664828Y-125173702D01*
X113529982Y-125123408D01*
X113529983Y-125123408D01*
X113470383Y-125117001D01*
X113470381Y-125117000D01*
X113470373Y-125117000D01*
X113470364Y-125117000D01*
X111769629Y-125117000D01*
X111769623Y-125117001D01*
X111710016Y-125123408D01*
X111575171Y-125173702D01*
X111575164Y-125173706D01*
X111459955Y-125259952D01*
X111459952Y-125259955D01*
X111373706Y-125375164D01*
X111373702Y-125375171D01*
X111323408Y-125510017D01*
X111317001Y-125569616D01*
X111317001Y-125569623D01*
X111317000Y-125569635D01*
X108479322Y-125569635D01*
X108364418Y-125454731D01*
X108203266Y-125337647D01*
X108051827Y-125260485D01*
X108001031Y-125212510D01*
X107984236Y-125144689D01*
X108006773Y-125078554D01*
X108051827Y-125039515D01*
X108061116Y-125034781D01*
X108203266Y-124962353D01*
X108364418Y-124845269D01*
X108505269Y-124704418D01*
X108622353Y-124543266D01*
X108712785Y-124365783D01*
X108725140Y-124327758D01*
X108774338Y-124176343D01*
X108774338Y-124176342D01*
X108774339Y-124176339D01*
X108805500Y-123979597D01*
X108805500Y-123780403D01*
X108774339Y-123583661D01*
X108774338Y-123583657D01*
X108774338Y-123583656D01*
X108712786Y-123394219D01*
X108622352Y-123216733D01*
X108505269Y-123055582D01*
X108364418Y-122914731D01*
X108203266Y-122797647D01*
X108051827Y-122720485D01*
X108001031Y-122672510D01*
X107984236Y-122604689D01*
X108006773Y-122538554D01*
X108051827Y-122499515D01*
X108061116Y-122494781D01*
X108203266Y-122422353D01*
X108364418Y-122305269D01*
X108505269Y-122164418D01*
X108622353Y-122003266D01*
X108712785Y-121825783D01*
X108725140Y-121787758D01*
X108774338Y-121636343D01*
X108774338Y-121636342D01*
X108774339Y-121636339D01*
X108805500Y-121439597D01*
X108805500Y-121240403D01*
X108774339Y-121043661D01*
X108774338Y-121043657D01*
X108774338Y-121043656D01*
X108712786Y-120854219D01*
X108699514Y-120828172D01*
X108622353Y-120676734D01*
X108505269Y-120515582D01*
X108364418Y-120374731D01*
X108203266Y-120257647D01*
X108188256Y-120249999D01*
X108051277Y-120180204D01*
X108000481Y-120132229D01*
X107983686Y-120064408D01*
X108006224Y-119998273D01*
X108051277Y-119959234D01*
X108203005Y-119881924D01*
X108240863Y-119854418D01*
X108240863Y-119854417D01*
X107677574Y-119291128D01*
X107736853Y-119275245D01*
X107853147Y-119208102D01*
X107948102Y-119113147D01*
X108015245Y-118996853D01*
X108031128Y-118937574D01*
X108594417Y-119500863D01*
X108594418Y-119500863D01*
X108621924Y-119463005D01*
X108712320Y-119285594D01*
X108773852Y-119096222D01*
X108805000Y-118899563D01*
X108805000Y-118700436D01*
X108773852Y-118503777D01*
X108712320Y-118314405D01*
X108621924Y-118136994D01*
X108594417Y-118099135D01*
X108594417Y-118099134D01*
X108031128Y-118662424D01*
X108015245Y-118603147D01*
X107948102Y-118486853D01*
X107853147Y-118391898D01*
X107736853Y-118324755D01*
X107677574Y-118308871D01*
X108240864Y-117745581D01*
X108240863Y-117745580D01*
X108203008Y-117718077D01*
X108050727Y-117640485D01*
X107999931Y-117592510D01*
X107983136Y-117524689D01*
X108005674Y-117458554D01*
X108050727Y-117419515D01*
X108203005Y-117341924D01*
X108240863Y-117314418D01*
X108240863Y-117314417D01*
X107677574Y-116751128D01*
X107736853Y-116735245D01*
X107853147Y-116668102D01*
X107948102Y-116573147D01*
X108015245Y-116456853D01*
X108031128Y-116397574D01*
X108594417Y-116960863D01*
X108594418Y-116960863D01*
X108621924Y-116923005D01*
X108712320Y-116745594D01*
X108773852Y-116556222D01*
X108805000Y-116359563D01*
X108805000Y-116160436D01*
X108773852Y-115963777D01*
X108712320Y-115774405D01*
X108621924Y-115596994D01*
X108594417Y-115559135D01*
X108594417Y-115559134D01*
X108031128Y-116122424D01*
X108015245Y-116063147D01*
X107948102Y-115946853D01*
X107853147Y-115851898D01*
X107736853Y-115784755D01*
X107677574Y-115768871D01*
X108240864Y-115205581D01*
X108240863Y-115205580D01*
X108203008Y-115178077D01*
X108051277Y-115100765D01*
X108000481Y-115052790D01*
X107983686Y-114984969D01*
X108006224Y-114918834D01*
X108051277Y-114879795D01*
X108051827Y-114879515D01*
X108203266Y-114802353D01*
X108364418Y-114685269D01*
X108505269Y-114544418D01*
X108622353Y-114383266D01*
X108712785Y-114205783D01*
X108720827Y-114181031D01*
X108774338Y-114016343D01*
X108774338Y-114016342D01*
X108774339Y-114016339D01*
X108805500Y-113819597D01*
X108805500Y-113620403D01*
X108774339Y-113423661D01*
X108774338Y-113423657D01*
X108774338Y-113423656D01*
X108712786Y-113234219D01*
X108622352Y-113056733D01*
X108505269Y-112895582D01*
X108364418Y-112754731D01*
X108203266Y-112637647D01*
X108051827Y-112560485D01*
X108001031Y-112512510D01*
X107984236Y-112444689D01*
X108006773Y-112378554D01*
X108051827Y-112339515D01*
X108061116Y-112334781D01*
X108203266Y-112262353D01*
X108364418Y-112145269D01*
X108505269Y-112004418D01*
X108622353Y-111843266D01*
X108712785Y-111665783D01*
X108725140Y-111627758D01*
X108774338Y-111476343D01*
X108774338Y-111476342D01*
X108774339Y-111476339D01*
X108805500Y-111279597D01*
X108805500Y-111080403D01*
X108774339Y-110883661D01*
X108774338Y-110883657D01*
X108774338Y-110883656D01*
X108712786Y-110694219D01*
X108622352Y-110516733D01*
X108505269Y-110355582D01*
X108364418Y-110214731D01*
X108203266Y-110097647D01*
X108051827Y-110020485D01*
X108001031Y-109972510D01*
X107984236Y-109904689D01*
X108006773Y-109838554D01*
X108051827Y-109799515D01*
X108061116Y-109794781D01*
X108203266Y-109722353D01*
X108364418Y-109605269D01*
X108505269Y-109464418D01*
X108622353Y-109303266D01*
X108712785Y-109125783D01*
X108725140Y-109087758D01*
X108774338Y-108936343D01*
X108774338Y-108936342D01*
X108774339Y-108936339D01*
X108805500Y-108739597D01*
X108805500Y-108540403D01*
X108774339Y-108343661D01*
X108774338Y-108343657D01*
X108774338Y-108343656D01*
X108712786Y-108154219D01*
X108622352Y-107976733D01*
X108505269Y-107815582D01*
X108364418Y-107674731D01*
X108203266Y-107557647D01*
X108051827Y-107480485D01*
X108001031Y-107432510D01*
X107984236Y-107364689D01*
X108006773Y-107298554D01*
X108051827Y-107259515D01*
X108085458Y-107242379D01*
X108203266Y-107182353D01*
X108364418Y-107065269D01*
X108505269Y-106924418D01*
X108622353Y-106763266D01*
X108712785Y-106585783D01*
X108725140Y-106547758D01*
X108774338Y-106396343D01*
X108774338Y-106396342D01*
X108774339Y-106396339D01*
X108805500Y-106199597D01*
X108805500Y-106000403D01*
X108774339Y-105803661D01*
X108774338Y-105803657D01*
X108774338Y-105803656D01*
X108712786Y-105614219D01*
X108622352Y-105436733D01*
X108505269Y-105275582D01*
X108364418Y-105134731D01*
X108203266Y-105017647D01*
X108140321Y-104985575D01*
X108051827Y-104940485D01*
X108001031Y-104892510D01*
X107984236Y-104824689D01*
X108006773Y-104758554D01*
X108051827Y-104719515D01*
X108061116Y-104714781D01*
X108203266Y-104642353D01*
X108364418Y-104525269D01*
X108505269Y-104384418D01*
X108622353Y-104223266D01*
X108712785Y-104045783D01*
X108725140Y-104007758D01*
X108774338Y-103856343D01*
X108774338Y-103856342D01*
X108774339Y-103856339D01*
X108805500Y-103659597D01*
X108805500Y-103460403D01*
X108774339Y-103263661D01*
X108774338Y-103263657D01*
X108774338Y-103263656D01*
X108712786Y-103074219D01*
X108622483Y-102896990D01*
X108622353Y-102896734D01*
X108505269Y-102735582D01*
X108479322Y-102709635D01*
X111317000Y-102709635D01*
X111317000Y-104410370D01*
X111317001Y-104410376D01*
X111323408Y-104469983D01*
X111373702Y-104604828D01*
X111373706Y-104604835D01*
X111459952Y-104720044D01*
X111459955Y-104720047D01*
X111575164Y-104806293D01*
X111575171Y-104806297D01*
X111620118Y-104823061D01*
X111710017Y-104856591D01*
X111742417Y-104860074D01*
X111806965Y-104886811D01*
X111846814Y-104944203D01*
X111849309Y-105014028D01*
X111813657Y-105074117D01*
X111802047Y-105083680D01*
X111771156Y-105106124D01*
X111771154Y-105106125D01*
X111626125Y-105251154D01*
X111626121Y-105251159D01*
X111505577Y-105417075D01*
X111412464Y-105599817D01*
X111394286Y-105655763D01*
X111349084Y-105794880D01*
X111349083Y-105794883D01*
X111349083Y-105794885D01*
X111317000Y-105997446D01*
X111317000Y-106202553D01*
X111347693Y-106396339D01*
X111349084Y-106405120D01*
X111395606Y-106548297D01*
X111412464Y-106600182D01*
X111465897Y-106705048D01*
X111495560Y-106763266D01*
X111505577Y-106782924D01*
X111626121Y-106948840D01*
X111626125Y-106948845D01*
X111771154Y-107093874D01*
X111771159Y-107093878D01*
X111915880Y-107199023D01*
X111937079Y-107214425D01*
X111991942Y-107242379D01*
X112025573Y-107259515D01*
X112076369Y-107307490D01*
X112093164Y-107375311D01*
X112070627Y-107441446D01*
X112025573Y-107480485D01*
X111937075Y-107525577D01*
X111771159Y-107646121D01*
X111771154Y-107646125D01*
X111626125Y-107791154D01*
X111626121Y-107791159D01*
X111505577Y-107957075D01*
X111412464Y-108139817D01*
X111394286Y-108195763D01*
X111349084Y-108334880D01*
X111349083Y-108334883D01*
X111349083Y-108334885D01*
X111317000Y-108537446D01*
X111317000Y-108742553D01*
X111347693Y-108936339D01*
X111349084Y-108945120D01*
X111395606Y-109088297D01*
X111412464Y-109140182D01*
X111465897Y-109245048D01*
X111495560Y-109303266D01*
X111505577Y-109322924D01*
X111626121Y-109488840D01*
X111626125Y-109488845D01*
X111771154Y-109633874D01*
X111771159Y-109633878D01*
X111915880Y-109739023D01*
X111937079Y-109754425D01*
X112013210Y-109793215D01*
X112025573Y-109799515D01*
X112076369Y-109847490D01*
X112093164Y-109915311D01*
X112070627Y-109981446D01*
X112025573Y-110020485D01*
X111937075Y-110065577D01*
X111771159Y-110186121D01*
X111771154Y-110186125D01*
X111626125Y-110331154D01*
X111626121Y-110331159D01*
X111505577Y-110497075D01*
X111412464Y-110679817D01*
X111394286Y-110735763D01*
X111349084Y-110874880D01*
X111349083Y-110874883D01*
X111349083Y-110874885D01*
X111317000Y-111077446D01*
X111317000Y-111282553D01*
X111347693Y-111476339D01*
X111349084Y-111485120D01*
X111395606Y-111628297D01*
X111412464Y-111680182D01*
X111465897Y-111785048D01*
X111495560Y-111843266D01*
X111505577Y-111862924D01*
X111626121Y-112028840D01*
X111626125Y-112028845D01*
X111771154Y-112173874D01*
X111771159Y-112173878D01*
X111915880Y-112279023D01*
X111937079Y-112294425D01*
X112013210Y-112333215D01*
X112025573Y-112339515D01*
X112076369Y-112387490D01*
X112093164Y-112455311D01*
X112070627Y-112521446D01*
X112025573Y-112560485D01*
X111937075Y-112605577D01*
X111771159Y-112726121D01*
X111771154Y-112726125D01*
X111626125Y-112871154D01*
X111626121Y-112871159D01*
X111505577Y-113037075D01*
X111412464Y-113219817D01*
X111394286Y-113275763D01*
X111349084Y-113414880D01*
X111349083Y-113414883D01*
X111349083Y-113414885D01*
X111317000Y-113617446D01*
X111317000Y-113822553D01*
X111347693Y-114016339D01*
X111349084Y-114025120D01*
X111394286Y-114164236D01*
X111412464Y-114220182D01*
X111465897Y-114325048D01*
X111495560Y-114383266D01*
X111505577Y-114402924D01*
X111626121Y-114568840D01*
X111626125Y-114568845D01*
X111771154Y-114713874D01*
X111771159Y-114713878D01*
X111915880Y-114819023D01*
X111937079Y-114834425D01*
X112025573Y-114879515D01*
X112026123Y-114879795D01*
X112076919Y-114927770D01*
X112093714Y-114995590D01*
X112071177Y-115061725D01*
X112026124Y-115100764D01*
X111937341Y-115146002D01*
X111892287Y-115178733D01*
X111892287Y-115178734D01*
X112462013Y-115748460D01*
X112413498Y-115761460D01*
X112291503Y-115831894D01*
X112191894Y-115931503D01*
X112121460Y-116053498D01*
X112108460Y-116102013D01*
X111538734Y-115532287D01*
X111538733Y-115532287D01*
X111506003Y-115577338D01*
X111412927Y-115760008D01*
X111349570Y-115955002D01*
X111317500Y-116157486D01*
X111317500Y-116362513D01*
X111349570Y-116564997D01*
X111412927Y-116759991D01*
X111506003Y-116942661D01*
X111538733Y-116987711D01*
X111538734Y-116987711D01*
X112108459Y-116417985D01*
X112121460Y-116466502D01*
X112191894Y-116588497D01*
X112291503Y-116688106D01*
X112413498Y-116758540D01*
X112462012Y-116771539D01*
X111892287Y-117341264D01*
X111937344Y-117373999D01*
X112026673Y-117419515D01*
X112077469Y-117467490D01*
X112094264Y-117535311D01*
X112071727Y-117601446D01*
X112026674Y-117640484D01*
X111937341Y-117686002D01*
X111892287Y-117718733D01*
X111892287Y-117718734D01*
X112462013Y-118288460D01*
X112413498Y-118301460D01*
X112291503Y-118371894D01*
X112191894Y-118471503D01*
X112121460Y-118593498D01*
X112108460Y-118642013D01*
X111538734Y-118072287D01*
X111538733Y-118072287D01*
X111506003Y-118117338D01*
X111412927Y-118300008D01*
X111349570Y-118495002D01*
X111317500Y-118697486D01*
X111317500Y-118902513D01*
X111349570Y-119104997D01*
X111412927Y-119299991D01*
X111506003Y-119482661D01*
X111538733Y-119527711D01*
X111538734Y-119527711D01*
X112108459Y-118957985D01*
X112121460Y-119006502D01*
X112191894Y-119128497D01*
X112291503Y-119228106D01*
X112413498Y-119298540D01*
X112462012Y-119311539D01*
X111892287Y-119881264D01*
X111937347Y-119914001D01*
X111937346Y-119914001D01*
X112026122Y-119959234D01*
X112076919Y-120007208D01*
X112093714Y-120075029D01*
X112071177Y-120141164D01*
X112026124Y-120180203D01*
X111937077Y-120225575D01*
X111771159Y-120346121D01*
X111771154Y-120346125D01*
X111626125Y-120491154D01*
X111626121Y-120491159D01*
X111505577Y-120657075D01*
X111412464Y-120839817D01*
X111380773Y-120937351D01*
X111349084Y-121034880D01*
X111349083Y-121034883D01*
X111349083Y-121034885D01*
X111317000Y-121237446D01*
X111317000Y-121442553D01*
X111342500Y-121603553D01*
X111349084Y-121645120D01*
X111395606Y-121788297D01*
X111412464Y-121840182D01*
X111476493Y-121965845D01*
X111503708Y-122019257D01*
X111505577Y-122022924D01*
X111626121Y-122188840D01*
X111626125Y-122188845D01*
X111771154Y-122333874D01*
X111771159Y-122333878D01*
X111915880Y-122439023D01*
X111937079Y-122454425D01*
X112051617Y-122512785D01*
X112119817Y-122547535D01*
X112119819Y-122547535D01*
X112119822Y-122547537D01*
X112314880Y-122610916D01*
X112416166Y-122626958D01*
X112517447Y-122643000D01*
X112517452Y-122643000D01*
X112722553Y-122643000D01*
X112814626Y-122628416D01*
X112925120Y-122610916D01*
X113120178Y-122547537D01*
X113302921Y-122454425D01*
X113468847Y-122333873D01*
X113613873Y-122188847D01*
X113734425Y-122022921D01*
X113763507Y-121965845D01*
X125782706Y-121965845D01*
X125911652Y-122019257D01*
X125911656Y-122019258D01*
X126066202Y-122049999D01*
X126066206Y-122050000D01*
X126223794Y-122050000D01*
X126223797Y-122049999D01*
X126378343Y-122019258D01*
X126378347Y-122019257D01*
X126507293Y-121965845D01*
X126145001Y-121603553D01*
X126145000Y-121603553D01*
X125782706Y-121965845D01*
X113763507Y-121965845D01*
X113827537Y-121840178D01*
X113890916Y-121645120D01*
X113908416Y-121534626D01*
X113923000Y-121442553D01*
X113923000Y-121237446D01*
X113914616Y-121184513D01*
X113912508Y-121171202D01*
X125345000Y-121171202D01*
X125345000Y-121328797D01*
X125375741Y-121483343D01*
X125375743Y-121483351D01*
X125429153Y-121612293D01*
X125791446Y-121250001D01*
X125791446Y-121249999D01*
X125761610Y-121220163D01*
X125995000Y-121220163D01*
X125995000Y-121279837D01*
X126017836Y-121334968D01*
X126060032Y-121377164D01*
X126115163Y-121400000D01*
X126174837Y-121400000D01*
X126229968Y-121377164D01*
X126272164Y-121334968D01*
X126295000Y-121279837D01*
X126295000Y-121249999D01*
X126498553Y-121249999D01*
X126498553Y-121250001D01*
X126860845Y-121612293D01*
X126914257Y-121483347D01*
X126914258Y-121483343D01*
X126944999Y-121328797D01*
X126945000Y-121328794D01*
X126945000Y-121184451D01*
X127649255Y-121184451D01*
X127677135Y-121324608D01*
X127677137Y-121324614D01*
X127731825Y-121456644D01*
X127731830Y-121456653D01*
X127811223Y-121575472D01*
X127811226Y-121575476D01*
X127912273Y-121676523D01*
X127912277Y-121676526D01*
X128031096Y-121755919D01*
X128031102Y-121755922D01*
X128031103Y-121755923D01*
X128163136Y-121810613D01*
X128163140Y-121810613D01*
X128163141Y-121810614D01*
X128303298Y-121838494D01*
X128303301Y-121838494D01*
X128446213Y-121838494D01*
X128551874Y-121817476D01*
X128586376Y-121810613D01*
X128718409Y-121755923D01*
X128837235Y-121676526D01*
X128938288Y-121575473D01*
X129017685Y-121456647D01*
X129072375Y-121324614D01*
X129087217Y-121249999D01*
X129089714Y-121237446D01*
X159577000Y-121237446D01*
X159577000Y-121442553D01*
X159602500Y-121603553D01*
X159609084Y-121645120D01*
X159655606Y-121788297D01*
X159672464Y-121840182D01*
X159736493Y-121965845D01*
X159763708Y-122019257D01*
X159765577Y-122022924D01*
X159886121Y-122188840D01*
X159886125Y-122188845D01*
X160031154Y-122333874D01*
X160031159Y-122333878D01*
X160175880Y-122439023D01*
X160197079Y-122454425D01*
X160273210Y-122493215D01*
X160285573Y-122499515D01*
X160336369Y-122547490D01*
X160353164Y-122615311D01*
X160330627Y-122681446D01*
X160285573Y-122720485D01*
X160197075Y-122765577D01*
X160031159Y-122886121D01*
X160031154Y-122886125D01*
X159886125Y-123031154D01*
X159886121Y-123031159D01*
X159765577Y-123197075D01*
X159672464Y-123379817D01*
X159654286Y-123435763D01*
X159609084Y-123574880D01*
X159609083Y-123574883D01*
X159609083Y-123574885D01*
X159577000Y-123777446D01*
X159577000Y-123982553D01*
X159607693Y-124176339D01*
X159609084Y-124185120D01*
X159655606Y-124328297D01*
X159672464Y-124380182D01*
X159678398Y-124391827D01*
X159755560Y-124543266D01*
X159765577Y-124562924D01*
X159886121Y-124728840D01*
X159886125Y-124728845D01*
X160031154Y-124873874D01*
X160031159Y-124873878D01*
X160175880Y-124979023D01*
X160197079Y-124994425D01*
X160273210Y-125033215D01*
X160285573Y-125039515D01*
X160336369Y-125087490D01*
X160353164Y-125155311D01*
X160330627Y-125221446D01*
X160285573Y-125260485D01*
X160197075Y-125305577D01*
X160031159Y-125426121D01*
X160031154Y-125426125D01*
X159886125Y-125571154D01*
X159886121Y-125571159D01*
X159765577Y-125737075D01*
X159672464Y-125919817D01*
X159654286Y-125975763D01*
X159609084Y-126114880D01*
X159609083Y-126114883D01*
X159609083Y-126114885D01*
X159577000Y-126317446D01*
X159577000Y-126522553D01*
X159607153Y-126712929D01*
X159609084Y-126725120D01*
X159655606Y-126868297D01*
X159672464Y-126920182D01*
X159678398Y-126931827D01*
X159755560Y-127083266D01*
X159765577Y-127102924D01*
X159886121Y-127268840D01*
X159886125Y-127268845D01*
X160031154Y-127413874D01*
X160031159Y-127413878D01*
X160175880Y-127519023D01*
X160197079Y-127534425D01*
X160273210Y-127573215D01*
X160285573Y-127579515D01*
X160336369Y-127627490D01*
X160353164Y-127695311D01*
X160330627Y-127761446D01*
X160285573Y-127800485D01*
X160197075Y-127845577D01*
X160031159Y-127966121D01*
X160031154Y-127966125D01*
X159886125Y-128111154D01*
X159886121Y-128111159D01*
X159765577Y-128277075D01*
X159672464Y-128459817D01*
X159654286Y-128515763D01*
X159609084Y-128654880D01*
X159609083Y-128654883D01*
X159609083Y-128654885D01*
X159577000Y-128857446D01*
X159577000Y-129062553D01*
X159607693Y-129256339D01*
X159609084Y-129265120D01*
X159655606Y-129408297D01*
X159672464Y-129460182D01*
X159678398Y-129471827D01*
X159755560Y-129623266D01*
X159765577Y-129642924D01*
X159886121Y-129808840D01*
X159886125Y-129808845D01*
X160031154Y-129953874D01*
X160031159Y-129953878D01*
X160175880Y-130059023D01*
X160197079Y-130074425D01*
X160273210Y-130113215D01*
X160285573Y-130119515D01*
X160336369Y-130167490D01*
X160353164Y-130235311D01*
X160330627Y-130301446D01*
X160285573Y-130340485D01*
X160197075Y-130385577D01*
X160031159Y-130506121D01*
X160031154Y-130506125D01*
X159886125Y-130651154D01*
X159886121Y-130651159D01*
X159765577Y-130817075D01*
X159672464Y-130999817D01*
X159654286Y-131055763D01*
X159609084Y-131194880D01*
X159609083Y-131194883D01*
X159609083Y-131194885D01*
X159577000Y-131397446D01*
X159577000Y-131602553D01*
X159607693Y-131796339D01*
X159609084Y-131805120D01*
X159655606Y-131948297D01*
X159672464Y-132000182D01*
X159678398Y-132011827D01*
X159755560Y-132163266D01*
X159765577Y-132182924D01*
X159886121Y-132348840D01*
X159886125Y-132348845D01*
X160031154Y-132493874D01*
X160031159Y-132493878D01*
X160175880Y-132599023D01*
X160197079Y-132614425D01*
X160273210Y-132653215D01*
X160285573Y-132659515D01*
X160336369Y-132707490D01*
X160353164Y-132775311D01*
X160330627Y-132841446D01*
X160285573Y-132880485D01*
X160197075Y-132925577D01*
X160031159Y-133046121D01*
X160031154Y-133046125D01*
X159886125Y-133191154D01*
X159886121Y-133191159D01*
X159765577Y-133357075D01*
X159672464Y-133539817D01*
X159654286Y-133595763D01*
X159609084Y-133734880D01*
X159609083Y-133734883D01*
X159609083Y-133734885D01*
X159577000Y-133937446D01*
X159577000Y-134142553D01*
X159602315Y-134302381D01*
X159609084Y-134345120D01*
X159655606Y-134488297D01*
X159672464Y-134540182D01*
X159678398Y-134551827D01*
X159755560Y-134703266D01*
X159765577Y-134722924D01*
X159886121Y-134888840D01*
X159886125Y-134888845D01*
X160031154Y-135033874D01*
X160031159Y-135033878D01*
X160175880Y-135139023D01*
X160197079Y-135154425D01*
X160273210Y-135193215D01*
X160285573Y-135199515D01*
X160336369Y-135247490D01*
X160353164Y-135315311D01*
X160330627Y-135381446D01*
X160285573Y-135420485D01*
X160197075Y-135465577D01*
X160031159Y-135586121D01*
X160031154Y-135586125D01*
X159886125Y-135731154D01*
X159886121Y-135731159D01*
X159765577Y-135897075D01*
X159672464Y-136079817D01*
X159654286Y-136135763D01*
X159609084Y-136274880D01*
X159609083Y-136274883D01*
X159609083Y-136274885D01*
X159577000Y-136477446D01*
X159577000Y-136682553D01*
X159607693Y-136876339D01*
X159609084Y-136885120D01*
X159655606Y-137028297D01*
X159672464Y-137080182D01*
X159678398Y-137091827D01*
X159755560Y-137243266D01*
X159765577Y-137262924D01*
X159886121Y-137428840D01*
X159886125Y-137428845D01*
X159886127Y-137428847D01*
X160031153Y-137573873D01*
X160062043Y-137596316D01*
X160062045Y-137596317D01*
X160104711Y-137651647D01*
X160110690Y-137721260D01*
X160078085Y-137783056D01*
X160017246Y-137817413D01*
X160002414Y-137819926D01*
X159970016Y-137823408D01*
X159835171Y-137873702D01*
X159835164Y-137873706D01*
X159719955Y-137959952D01*
X159719952Y-137959955D01*
X159633706Y-138075164D01*
X159633702Y-138075171D01*
X159583408Y-138210017D01*
X159577001Y-138269616D01*
X159577001Y-138269623D01*
X159577000Y-138269635D01*
X159577000Y-139970370D01*
X159577001Y-139970376D01*
X159583408Y-140029983D01*
X159633702Y-140164828D01*
X159633706Y-140164835D01*
X159719952Y-140280044D01*
X159719955Y-140280047D01*
X159835164Y-140366293D01*
X159835171Y-140366297D01*
X159970017Y-140416591D01*
X159970016Y-140416591D01*
X159976944Y-140417335D01*
X160029627Y-140423000D01*
X161730372Y-140422999D01*
X161789983Y-140416591D01*
X161924831Y-140366296D01*
X162040046Y-140280046D01*
X162126296Y-140164831D01*
X162176591Y-140029983D01*
X162183000Y-139970373D01*
X162182999Y-138269628D01*
X162176591Y-138210017D01*
X162155971Y-138154733D01*
X162126297Y-138075171D01*
X162126293Y-138075164D01*
X162040047Y-137959955D01*
X162040044Y-137959952D01*
X161924835Y-137873706D01*
X161924828Y-137873702D01*
X161789983Y-137823408D01*
X161757582Y-137819925D01*
X161693032Y-137793187D01*
X161653184Y-137735794D01*
X161650691Y-137665968D01*
X161686344Y-137605880D01*
X161697955Y-137596317D01*
X161728847Y-137573873D01*
X161873873Y-137428847D01*
X161994425Y-137262921D01*
X162087537Y-137080178D01*
X162150916Y-136885120D01*
X162168416Y-136774626D01*
X162183000Y-136682553D01*
X162183000Y-136477446D01*
X162165499Y-136366958D01*
X162150916Y-136274880D01*
X162087537Y-136079822D01*
X162087535Y-136079819D01*
X162087535Y-136079817D01*
X162053755Y-136013522D01*
X161994425Y-135897079D01*
X161891622Y-135755582D01*
X161873878Y-135731159D01*
X161873874Y-135731154D01*
X161728845Y-135586125D01*
X161728840Y-135586121D01*
X161562925Y-135465577D01*
X161554311Y-135461188D01*
X161474425Y-135420484D01*
X161423630Y-135372511D01*
X161406835Y-135304690D01*
X161429372Y-135238555D01*
X161474425Y-135199515D01*
X161562921Y-135154425D01*
X161728847Y-135033873D01*
X161873873Y-134888847D01*
X161994425Y-134722921D01*
X162087537Y-134540178D01*
X162150916Y-134345120D01*
X162168416Y-134234626D01*
X162183000Y-134142553D01*
X162183000Y-133937446D01*
X162165499Y-133826958D01*
X162150916Y-133734880D01*
X162087537Y-133539822D01*
X162087535Y-133539819D01*
X162087535Y-133539817D01*
X162053755Y-133473522D01*
X161994425Y-133357079D01*
X161891622Y-133215582D01*
X161873878Y-133191159D01*
X161873874Y-133191154D01*
X161728845Y-133046125D01*
X161728840Y-133046121D01*
X161562925Y-132925577D01*
X161554311Y-132921188D01*
X161474425Y-132880484D01*
X161423630Y-132832511D01*
X161406835Y-132764690D01*
X161429372Y-132698555D01*
X161474425Y-132659515D01*
X161562921Y-132614425D01*
X161728847Y-132493873D01*
X161873873Y-132348847D01*
X161994425Y-132182921D01*
X162087537Y-132000178D01*
X162150916Y-131805120D01*
X162168416Y-131694626D01*
X162183000Y-131602553D01*
X162183000Y-131397446D01*
X162165499Y-131286958D01*
X162150916Y-131194880D01*
X162087537Y-130999822D01*
X162087535Y-130999819D01*
X162087535Y-130999817D01*
X162053755Y-130933522D01*
X161994425Y-130817079D01*
X161891622Y-130675582D01*
X161873878Y-130651159D01*
X161873874Y-130651154D01*
X161728845Y-130506125D01*
X161728840Y-130506121D01*
X161562925Y-130385577D01*
X161554311Y-130381188D01*
X161474425Y-130340484D01*
X161423630Y-130292511D01*
X161406835Y-130224690D01*
X161429372Y-130158555D01*
X161474425Y-130119515D01*
X161562921Y-130074425D01*
X161728847Y-129953873D01*
X161873873Y-129808847D01*
X161994425Y-129642921D01*
X162087537Y-129460178D01*
X162150916Y-129265120D01*
X162168416Y-129154626D01*
X162183000Y-129062553D01*
X162183000Y-128857446D01*
X162165499Y-128746958D01*
X162150916Y-128654880D01*
X162087537Y-128459822D01*
X162087535Y-128459819D01*
X162087535Y-128459817D01*
X162053755Y-128393522D01*
X161994425Y-128277079D01*
X161891622Y-128135582D01*
X161873878Y-128111159D01*
X161873874Y-128111154D01*
X161728845Y-127966125D01*
X161728840Y-127966121D01*
X161562925Y-127845577D01*
X161510250Y-127818738D01*
X161474425Y-127800484D01*
X161423630Y-127752511D01*
X161406835Y-127684690D01*
X161429372Y-127618555D01*
X161474425Y-127579515D01*
X161562921Y-127534425D01*
X161728847Y-127413873D01*
X161873873Y-127268847D01*
X161994425Y-127102921D01*
X162087537Y-126920178D01*
X162150916Y-126725120D01*
X162181427Y-126532482D01*
X162183000Y-126522553D01*
X162183000Y-126317446D01*
X162155125Y-126141457D01*
X162150916Y-126114880D01*
X162087537Y-125919822D01*
X162087535Y-125919819D01*
X162087535Y-125919817D01*
X162053755Y-125853522D01*
X161994425Y-125737079D01*
X161891622Y-125595582D01*
X161873878Y-125571159D01*
X161873874Y-125571154D01*
X161728845Y-125426125D01*
X161728840Y-125426121D01*
X161562925Y-125305577D01*
X161554311Y-125301188D01*
X161474425Y-125260484D01*
X161423630Y-125212511D01*
X161406835Y-125144690D01*
X161429372Y-125078555D01*
X161474425Y-125039515D01*
X161562921Y-124994425D01*
X161728847Y-124873873D01*
X161873873Y-124728847D01*
X161994425Y-124562921D01*
X162087537Y-124380178D01*
X162150916Y-124185120D01*
X162168416Y-124074626D01*
X162183000Y-123982553D01*
X162183000Y-123777446D01*
X162165499Y-123666958D01*
X162150916Y-123574880D01*
X162087537Y-123379822D01*
X162087535Y-123379819D01*
X162087535Y-123379817D01*
X162053755Y-123313522D01*
X161994425Y-123197079D01*
X161891622Y-123055582D01*
X161873878Y-123031159D01*
X161873874Y-123031154D01*
X161728845Y-122886125D01*
X161728840Y-122886121D01*
X161562925Y-122765577D01*
X161554311Y-122761188D01*
X161474425Y-122720484D01*
X161423630Y-122672511D01*
X161406835Y-122604690D01*
X161429372Y-122538555D01*
X161474425Y-122499515D01*
X161562921Y-122454425D01*
X161728847Y-122333873D01*
X161873873Y-122188847D01*
X161994425Y-122022921D01*
X162087537Y-121840178D01*
X162150916Y-121645120D01*
X162168416Y-121534626D01*
X162183000Y-121442553D01*
X162183000Y-121237446D01*
X162161230Y-121100000D01*
X162150916Y-121034880D01*
X162087537Y-120839822D01*
X162087535Y-120839819D01*
X162087535Y-120839817D01*
X162041771Y-120750001D01*
X161994425Y-120657079D01*
X161961886Y-120612293D01*
X161873878Y-120491159D01*
X161873874Y-120491154D01*
X161728845Y-120346125D01*
X161728840Y-120346121D01*
X161562924Y-120225577D01*
X161562923Y-120225576D01*
X161562921Y-120225575D01*
X161474427Y-120180485D01*
X161380182Y-120132464D01*
X161333384Y-120117258D01*
X161185120Y-120069084D01*
X161185114Y-120069083D01*
X160982553Y-120037000D01*
X160982548Y-120037000D01*
X160777452Y-120037000D01*
X160777447Y-120037000D01*
X160574885Y-120069083D01*
X160574883Y-120069083D01*
X160574880Y-120069084D01*
X160496471Y-120094561D01*
X160379817Y-120132464D01*
X160197075Y-120225577D01*
X160031159Y-120346121D01*
X160031154Y-120346125D01*
X159886125Y-120491154D01*
X159886121Y-120491159D01*
X159765577Y-120657075D01*
X159672464Y-120839817D01*
X159640773Y-120937351D01*
X159609084Y-121034880D01*
X159609083Y-121034883D01*
X159609083Y-121034885D01*
X159577000Y-121237446D01*
X129089714Y-121237446D01*
X129095490Y-121208411D01*
X129095494Y-121208390D01*
X129100243Y-121184513D01*
X129100256Y-121184449D01*
X129100256Y-121041539D01*
X129100256Y-121041536D01*
X129072376Y-120901379D01*
X129072375Y-120901378D01*
X129072375Y-120901374D01*
X129017685Y-120769341D01*
X129017684Y-120769340D01*
X129017681Y-120769334D01*
X128938288Y-120650515D01*
X128938285Y-120650511D01*
X128837238Y-120549464D01*
X128837234Y-120549461D01*
X128718415Y-120470068D01*
X128718406Y-120470063D01*
X128586376Y-120415375D01*
X128586370Y-120415373D01*
X128446213Y-120387494D01*
X128446211Y-120387494D01*
X128303301Y-120387494D01*
X128303299Y-120387494D01*
X128163141Y-120415373D01*
X128163135Y-120415375D01*
X128031105Y-120470063D01*
X128031096Y-120470068D01*
X127912277Y-120549461D01*
X127912273Y-120549464D01*
X127811226Y-120650511D01*
X127811223Y-120650515D01*
X127731830Y-120769334D01*
X127731825Y-120769343D01*
X127677137Y-120901373D01*
X127677135Y-120901379D01*
X127649256Y-121041536D01*
X127649256Y-121041539D01*
X127649256Y-121184449D01*
X127649256Y-121184451D01*
X127649255Y-121184451D01*
X126945000Y-121184451D01*
X126945000Y-121171206D01*
X126944999Y-121171203D01*
X126922809Y-121059643D01*
X126922807Y-121059637D01*
X126914256Y-121016650D01*
X126860845Y-120887706D01*
X126498553Y-121249999D01*
X126295000Y-121249999D01*
X126295000Y-121220163D01*
X126272164Y-121165032D01*
X126229968Y-121122836D01*
X126174837Y-121100000D01*
X126115163Y-121100000D01*
X126060032Y-121122836D01*
X126017836Y-121165032D01*
X125995000Y-121220163D01*
X125761610Y-121220163D01*
X125429153Y-120887705D01*
X125375743Y-121016648D01*
X125375741Y-121016656D01*
X125345000Y-121171202D01*
X113912508Y-121171202D01*
X113901230Y-121100000D01*
X113890916Y-121034880D01*
X113827537Y-120839822D01*
X113827535Y-120839819D01*
X113827535Y-120839817D01*
X113781771Y-120750001D01*
X113781770Y-120749999D01*
X125998553Y-120749999D01*
X126145000Y-120896446D01*
X126291446Y-120750001D01*
X126291446Y-120750000D01*
X126145000Y-120603553D01*
X125998553Y-120749999D01*
X113781770Y-120749999D01*
X113734425Y-120657079D01*
X113701886Y-120612293D01*
X113613878Y-120491159D01*
X113613874Y-120491154D01*
X113468845Y-120346125D01*
X113468840Y-120346121D01*
X113362403Y-120268790D01*
X113362394Y-120268785D01*
X113302921Y-120225575D01*
X113210292Y-120178378D01*
X113206814Y-120176311D01*
X113202065Y-120171202D01*
X125345000Y-120171202D01*
X125345000Y-120328797D01*
X125375741Y-120483343D01*
X125375743Y-120483351D01*
X125429153Y-120612293D01*
X125430490Y-120610957D01*
X125791446Y-120250001D01*
X125791446Y-120249999D01*
X125761610Y-120220163D01*
X125995000Y-120220163D01*
X125995000Y-120279837D01*
X126017836Y-120334968D01*
X126060032Y-120377164D01*
X126115163Y-120400000D01*
X126174837Y-120400000D01*
X126229968Y-120377164D01*
X126272164Y-120334968D01*
X126295000Y-120279837D01*
X126295000Y-120249999D01*
X126498553Y-120249999D01*
X126498553Y-120250001D01*
X126860845Y-120612293D01*
X126914257Y-120483347D01*
X126914258Y-120483343D01*
X126944999Y-120328797D01*
X126945000Y-120328794D01*
X126945000Y-120171206D01*
X126944999Y-120171202D01*
X126914258Y-120016656D01*
X126914257Y-120016652D01*
X126860845Y-119887706D01*
X126498553Y-120249999D01*
X126295000Y-120249999D01*
X126295000Y-120220163D01*
X126272164Y-120165032D01*
X126229968Y-120122836D01*
X126174837Y-120100000D01*
X126115163Y-120100000D01*
X126060032Y-120122836D01*
X126017836Y-120165032D01*
X125995000Y-120220163D01*
X125761610Y-120220163D01*
X125429153Y-119887705D01*
X125375743Y-120016648D01*
X125375741Y-120016656D01*
X125345000Y-120171202D01*
X113202065Y-120171202D01*
X113185665Y-120153559D01*
X113163080Y-120132229D01*
X113162078Y-120128186D01*
X113159244Y-120125137D01*
X113153752Y-120094561D01*
X113146285Y-120064408D01*
X113147628Y-120060466D01*
X113146892Y-120056368D01*
X113158803Y-120027675D01*
X113168823Y-119998273D01*
X113172236Y-119995315D01*
X113173680Y-119991838D01*
X113186524Y-119982934D01*
X113213877Y-119959234D01*
X113302657Y-119913999D01*
X113347711Y-119881264D01*
X113347712Y-119881264D01*
X113216447Y-119749999D01*
X125998553Y-119749999D01*
X126145000Y-119896446D01*
X126291446Y-119750001D01*
X126291446Y-119750000D01*
X126145000Y-119603553D01*
X125998553Y-119749999D01*
X113216447Y-119749999D01*
X112777987Y-119311539D01*
X112826502Y-119298540D01*
X112948497Y-119228106D01*
X113048106Y-119128497D01*
X113118540Y-119006502D01*
X113131539Y-118957987D01*
X113701264Y-119527712D01*
X113701264Y-119527711D01*
X113733997Y-119482659D01*
X113827072Y-119299989D01*
X113868919Y-119171202D01*
X125345000Y-119171202D01*
X125345000Y-119328797D01*
X125375741Y-119483343D01*
X125375743Y-119483351D01*
X125429153Y-119612293D01*
X125430490Y-119610957D01*
X125791446Y-119250001D01*
X125791446Y-119249999D01*
X125761610Y-119220163D01*
X125995000Y-119220163D01*
X125995000Y-119279837D01*
X126017836Y-119334968D01*
X126060032Y-119377164D01*
X126115163Y-119400000D01*
X126174837Y-119400000D01*
X126229968Y-119377164D01*
X126272164Y-119334968D01*
X126295000Y-119279837D01*
X126295000Y-119249999D01*
X126498553Y-119249999D01*
X126498553Y-119250001D01*
X126860845Y-119612293D01*
X126914257Y-119483347D01*
X126914258Y-119483343D01*
X126944999Y-119328797D01*
X126945000Y-119328794D01*
X126945000Y-119171206D01*
X126944999Y-119171202D01*
X126920186Y-119046457D01*
X127254499Y-119046457D01*
X127282379Y-119186614D01*
X127282381Y-119186620D01*
X127337069Y-119318650D01*
X127337074Y-119318659D01*
X127416467Y-119437478D01*
X127416470Y-119437482D01*
X127517517Y-119538529D01*
X127517521Y-119538532D01*
X127636340Y-119617925D01*
X127636349Y-119617930D01*
X127666258Y-119630318D01*
X127768380Y-119672619D01*
X127768384Y-119672619D01*
X127768385Y-119672620D01*
X127908542Y-119700500D01*
X127908545Y-119700500D01*
X128051457Y-119700500D01*
X128145751Y-119681742D01*
X128191620Y-119672619D01*
X128323653Y-119617929D01*
X128442479Y-119538532D01*
X128543532Y-119437479D01*
X128622929Y-119318653D01*
X128677619Y-119186620D01*
X128693855Y-119104997D01*
X128705500Y-119046457D01*
X128705500Y-118903542D01*
X128677620Y-118763385D01*
X128677619Y-118763384D01*
X128677619Y-118763380D01*
X128622929Y-118631347D01*
X128622928Y-118631346D01*
X128622925Y-118631340D01*
X128543532Y-118512521D01*
X128543529Y-118512517D01*
X128442482Y-118411470D01*
X128442478Y-118411467D01*
X128323659Y-118332074D01*
X128323650Y-118332069D01*
X128191620Y-118277381D01*
X128191614Y-118277379D01*
X128051457Y-118249500D01*
X128051455Y-118249500D01*
X127908545Y-118249500D01*
X127908543Y-118249500D01*
X127768385Y-118277379D01*
X127768379Y-118277381D01*
X127636349Y-118332069D01*
X127636340Y-118332074D01*
X127517521Y-118411467D01*
X127517517Y-118411470D01*
X127416470Y-118512517D01*
X127416467Y-118512521D01*
X127337074Y-118631340D01*
X127337069Y-118631349D01*
X127282381Y-118763379D01*
X127282379Y-118763385D01*
X127254500Y-118903542D01*
X127254500Y-118903545D01*
X127254500Y-119046455D01*
X127254500Y-119046457D01*
X127254499Y-119046457D01*
X126920186Y-119046457D01*
X126914258Y-119016656D01*
X126914257Y-119016652D01*
X126884539Y-118944907D01*
X126860845Y-118887706D01*
X126498553Y-119249999D01*
X126295000Y-119249999D01*
X126295000Y-119220163D01*
X126272164Y-119165032D01*
X126229968Y-119122836D01*
X126174837Y-119100000D01*
X126115163Y-119100000D01*
X126060032Y-119122836D01*
X126017836Y-119165032D01*
X125995000Y-119220163D01*
X125761610Y-119220163D01*
X125429153Y-118887705D01*
X125375743Y-119016648D01*
X125375741Y-119016656D01*
X125345000Y-119171202D01*
X113868919Y-119171202D01*
X113883347Y-119126797D01*
X113883347Y-119126795D01*
X113890430Y-119104995D01*
X113922500Y-118902513D01*
X113922500Y-118697486D01*
X113906167Y-118594366D01*
X113906167Y-118594365D01*
X113896631Y-118534153D01*
X125782705Y-118534153D01*
X126145000Y-118896446D01*
X126145001Y-118896446D01*
X126507293Y-118534153D01*
X126378351Y-118480743D01*
X126378343Y-118480741D01*
X126223797Y-118450000D01*
X126066202Y-118450000D01*
X125911656Y-118480741D01*
X125911648Y-118480743D01*
X125782705Y-118534153D01*
X113896631Y-118534153D01*
X113890430Y-118495002D01*
X113827072Y-118300008D01*
X113733999Y-118117344D01*
X113701264Y-118072287D01*
X113131539Y-118642012D01*
X113118540Y-118593498D01*
X113048106Y-118471503D01*
X112948497Y-118371894D01*
X112826502Y-118301460D01*
X112777985Y-118288459D01*
X113347711Y-117718734D01*
X113347711Y-117718733D01*
X113302661Y-117686003D01*
X113213326Y-117640485D01*
X113162530Y-117592510D01*
X113145735Y-117524689D01*
X113168272Y-117458554D01*
X113213326Y-117419515D01*
X113302659Y-117373997D01*
X113347711Y-117341264D01*
X113347712Y-117341264D01*
X112777987Y-116771539D01*
X112826502Y-116758540D01*
X112948497Y-116688106D01*
X113048106Y-116588497D01*
X113118540Y-116466502D01*
X113131539Y-116417987D01*
X113701264Y-116987712D01*
X113701264Y-116987711D01*
X113733997Y-116942659D01*
X113795753Y-116821457D01*
X129274499Y-116821457D01*
X129302379Y-116961614D01*
X129302381Y-116961620D01*
X129357069Y-117093650D01*
X129357074Y-117093659D01*
X129436467Y-117212478D01*
X129436470Y-117212482D01*
X129537517Y-117313529D01*
X129537521Y-117313532D01*
X129656340Y-117392925D01*
X129656346Y-117392928D01*
X129656347Y-117392929D01*
X129788380Y-117447619D01*
X129788384Y-117447619D01*
X129788385Y-117447620D01*
X129928542Y-117475500D01*
X129928545Y-117475500D01*
X130071457Y-117475500D01*
X130165751Y-117456742D01*
X130211620Y-117447619D01*
X130343653Y-117392929D01*
X130462479Y-117313532D01*
X130563532Y-117212479D01*
X130642929Y-117093653D01*
X130697619Y-116961620D01*
X130725500Y-116821455D01*
X130725500Y-116678545D01*
X130725500Y-116678542D01*
X130697620Y-116538385D01*
X130697619Y-116538384D01*
X130697619Y-116538380D01*
X130642929Y-116406347D01*
X130642928Y-116406346D01*
X130642925Y-116406340D01*
X130563532Y-116287521D01*
X130563529Y-116287517D01*
X130462482Y-116186470D01*
X130462478Y-116186467D01*
X130343659Y-116107074D01*
X130343650Y-116107069D01*
X130211620Y-116052381D01*
X130211614Y-116052379D01*
X130071457Y-116024500D01*
X130071455Y-116024500D01*
X129928545Y-116024500D01*
X129928543Y-116024500D01*
X129788385Y-116052379D01*
X129788379Y-116052381D01*
X129656349Y-116107069D01*
X129656340Y-116107074D01*
X129537521Y-116186467D01*
X129537517Y-116186470D01*
X129436470Y-116287517D01*
X129436467Y-116287521D01*
X129357074Y-116406340D01*
X129357069Y-116406349D01*
X129302381Y-116538379D01*
X129302379Y-116538385D01*
X129274500Y-116678542D01*
X129274500Y-116678545D01*
X129274500Y-116821455D01*
X129274500Y-116821457D01*
X129274499Y-116821457D01*
X113795753Y-116821457D01*
X113827072Y-116759991D01*
X113867966Y-116634134D01*
X113890429Y-116564997D01*
X113922500Y-116362513D01*
X113922500Y-116157486D01*
X113890429Y-115955002D01*
X113827072Y-115760008D01*
X113733999Y-115577344D01*
X113701264Y-115532287D01*
X113131539Y-116102012D01*
X113118540Y-116053498D01*
X113048106Y-115931503D01*
X112948497Y-115831894D01*
X112826502Y-115761460D01*
X112777985Y-115748459D01*
X113347711Y-115178734D01*
X113347711Y-115178733D01*
X113302660Y-115146003D01*
X113213876Y-115100765D01*
X113163080Y-115052790D01*
X113146285Y-114984969D01*
X113168823Y-114918834D01*
X113213877Y-114879795D01*
X113214427Y-114879515D01*
X113302921Y-114834425D01*
X113468847Y-114713873D01*
X113613873Y-114568847D01*
X113734425Y-114402921D01*
X113827537Y-114220178D01*
X113890916Y-114025120D01*
X113914246Y-113877820D01*
X113923000Y-113822553D01*
X113923000Y-113617446D01*
X113898805Y-113464690D01*
X113890916Y-113414880D01*
X113827537Y-113219822D01*
X113827535Y-113219819D01*
X113827535Y-113219817D01*
X113793755Y-113153522D01*
X113734425Y-113037079D01*
X113631622Y-112895582D01*
X113613878Y-112871159D01*
X113613874Y-112871154D01*
X113468845Y-112726125D01*
X113468840Y-112726121D01*
X113302925Y-112605577D01*
X113294311Y-112601188D01*
X113214425Y-112560484D01*
X113163630Y-112512511D01*
X113146835Y-112444690D01*
X113169372Y-112378555D01*
X113214425Y-112339515D01*
X113302921Y-112294425D01*
X113468847Y-112173873D01*
X113613873Y-112028847D01*
X113734425Y-111862921D01*
X113827537Y-111680178D01*
X113890916Y-111485120D01*
X113914246Y-111337820D01*
X113923000Y-111282553D01*
X113923000Y-111077446D01*
X113898805Y-110924690D01*
X113890916Y-110874880D01*
X113827537Y-110679822D01*
X113827535Y-110679819D01*
X113827535Y-110679817D01*
X113793755Y-110613522D01*
X113734425Y-110497079D01*
X113631622Y-110355582D01*
X113613878Y-110331159D01*
X113613874Y-110331154D01*
X113468845Y-110186125D01*
X113468840Y-110186121D01*
X113302925Y-110065577D01*
X113294311Y-110061188D01*
X113214425Y-110020484D01*
X113163630Y-109972511D01*
X113146835Y-109904690D01*
X113169372Y-109838555D01*
X113214425Y-109799515D01*
X113302921Y-109754425D01*
X113468847Y-109633873D01*
X113613873Y-109488847D01*
X113734425Y-109322921D01*
X113827537Y-109140178D01*
X113890916Y-108945120D01*
X113914246Y-108797820D01*
X113923000Y-108742553D01*
X113923000Y-108537446D01*
X113901623Y-108402482D01*
X113890916Y-108334880D01*
X113827537Y-108139822D01*
X113827535Y-108139819D01*
X113827535Y-108139817D01*
X113793755Y-108073522D01*
X113762132Y-108011457D01*
X126954499Y-108011457D01*
X126982379Y-108151614D01*
X126982381Y-108151620D01*
X127037069Y-108283650D01*
X127037074Y-108283659D01*
X127116467Y-108402478D01*
X127116470Y-108402482D01*
X127217517Y-108503529D01*
X127217521Y-108503532D01*
X127336340Y-108582925D01*
X127336346Y-108582928D01*
X127336347Y-108582929D01*
X127468380Y-108637619D01*
X127468384Y-108637619D01*
X127468385Y-108637620D01*
X127608542Y-108665500D01*
X127608545Y-108665500D01*
X127751457Y-108665500D01*
X127845751Y-108646742D01*
X127891620Y-108637619D01*
X128023653Y-108582929D01*
X128142479Y-108503532D01*
X128243532Y-108402479D01*
X128322929Y-108283653D01*
X128377619Y-108151620D01*
X128405500Y-108011455D01*
X128405500Y-107868545D01*
X128405500Y-107868542D01*
X128377620Y-107728385D01*
X128377619Y-107728384D01*
X128377619Y-107728380D01*
X128322929Y-107596347D01*
X128322928Y-107596346D01*
X128322925Y-107596340D01*
X128243532Y-107477521D01*
X128243529Y-107477517D01*
X128142482Y-107376470D01*
X128142478Y-107376467D01*
X128023659Y-107297074D01*
X128023650Y-107297069D01*
X127891620Y-107242381D01*
X127891614Y-107242379D01*
X127751457Y-107214500D01*
X127751455Y-107214500D01*
X127608545Y-107214500D01*
X127608543Y-107214500D01*
X127468385Y-107242379D01*
X127468379Y-107242381D01*
X127336349Y-107297069D01*
X127336340Y-107297074D01*
X127217521Y-107376467D01*
X127217517Y-107376470D01*
X127116470Y-107477517D01*
X127116467Y-107477521D01*
X127037074Y-107596340D01*
X127037069Y-107596349D01*
X126982381Y-107728379D01*
X126982379Y-107728385D01*
X126954500Y-107868542D01*
X126954500Y-107868545D01*
X126954500Y-108011455D01*
X126954500Y-108011457D01*
X126954499Y-108011457D01*
X113762132Y-108011457D01*
X113734425Y-107957079D01*
X113732606Y-107954575D01*
X113718630Y-107935338D01*
X113613878Y-107791159D01*
X113613874Y-107791154D01*
X113468845Y-107646125D01*
X113468840Y-107646121D01*
X113302925Y-107525577D01*
X113294311Y-107521188D01*
X113214425Y-107480484D01*
X113163630Y-107432511D01*
X113146835Y-107364690D01*
X113169372Y-107298555D01*
X113214425Y-107259515D01*
X113302921Y-107214425D01*
X113468847Y-107093873D01*
X113613873Y-106948847D01*
X113734425Y-106782921D01*
X113827537Y-106600178D01*
X113890916Y-106405120D01*
X113914246Y-106257820D01*
X113923000Y-106202553D01*
X113923000Y-105997446D01*
X113898805Y-105844690D01*
X113890916Y-105794880D01*
X113827537Y-105599822D01*
X113827535Y-105599819D01*
X113827535Y-105599817D01*
X113793755Y-105533522D01*
X113734425Y-105417079D01*
X113631622Y-105275582D01*
X113613878Y-105251159D01*
X113613874Y-105251154D01*
X113468845Y-105106125D01*
X113468840Y-105106121D01*
X113437954Y-105083681D01*
X113395288Y-105028351D01*
X113389309Y-104958738D01*
X113421914Y-104896943D01*
X113482753Y-104862586D01*
X113497582Y-104860073D01*
X113529983Y-104856591D01*
X113664831Y-104806296D01*
X113780046Y-104720046D01*
X113866296Y-104604831D01*
X113916591Y-104469983D01*
X113923000Y-104410373D01*
X113922999Y-102709628D01*
X113916591Y-102650017D01*
X113895971Y-102594733D01*
X113866297Y-102515171D01*
X113866293Y-102515164D01*
X113780047Y-102399955D01*
X113780044Y-102399952D01*
X113664835Y-102313706D01*
X113664828Y-102313702D01*
X113529982Y-102263408D01*
X113529983Y-102263408D01*
X113470383Y-102257001D01*
X113470381Y-102257000D01*
X113470373Y-102257000D01*
X113470364Y-102257000D01*
X111769629Y-102257000D01*
X111769623Y-102257001D01*
X111710016Y-102263408D01*
X111575171Y-102313702D01*
X111575164Y-102313706D01*
X111459955Y-102399952D01*
X111459952Y-102399955D01*
X111373706Y-102515164D01*
X111373702Y-102515171D01*
X111323408Y-102650017D01*
X111318706Y-102693757D01*
X111317001Y-102709623D01*
X111317000Y-102709635D01*
X108479322Y-102709635D01*
X108364418Y-102594731D01*
X108203266Y-102477647D01*
X108184541Y-102468106D01*
X108051277Y-102400204D01*
X108000481Y-102352229D01*
X107983686Y-102284408D01*
X108006224Y-102218273D01*
X108051277Y-102179234D01*
X108203005Y-102101924D01*
X108240863Y-102074418D01*
X108240863Y-102074417D01*
X107677574Y-101511128D01*
X107736853Y-101495245D01*
X107853147Y-101428102D01*
X107948102Y-101333147D01*
X108015245Y-101216853D01*
X108031128Y-101157574D01*
X108594417Y-101720863D01*
X108594418Y-101720863D01*
X108621924Y-101683005D01*
X108712320Y-101505594D01*
X108773852Y-101316222D01*
X108805000Y-101119563D01*
X108805000Y-100920436D01*
X108773852Y-100723777D01*
X108712320Y-100534405D01*
X108621924Y-100356994D01*
X108594417Y-100319135D01*
X108594417Y-100319134D01*
X108031128Y-100882424D01*
X108015245Y-100823147D01*
X107948102Y-100706853D01*
X107853147Y-100611898D01*
X107736853Y-100544755D01*
X107677574Y-100528871D01*
X108240864Y-99965581D01*
X108240863Y-99965580D01*
X108203008Y-99938077D01*
X108051277Y-99860765D01*
X108000481Y-99812790D01*
X107983686Y-99744969D01*
X108006224Y-99678834D01*
X108051277Y-99639795D01*
X108051827Y-99639515D01*
X108203266Y-99562353D01*
X108364418Y-99445269D01*
X108505269Y-99304418D01*
X108622353Y-99143266D01*
X108712785Y-98965783D01*
X108720827Y-98941031D01*
X108774338Y-98776343D01*
X108774338Y-98776342D01*
X108774339Y-98776339D01*
X108805500Y-98579597D01*
X108805500Y-98380403D01*
X108774339Y-98183661D01*
X108774338Y-98183657D01*
X108774338Y-98183656D01*
X108712786Y-97994219D01*
X108622352Y-97816733D01*
X108505269Y-97655582D01*
X108364418Y-97514731D01*
X108203266Y-97397647D01*
X108051827Y-97320485D01*
X108001031Y-97272510D01*
X107984236Y-97204689D01*
X108006773Y-97138554D01*
X108051827Y-97099515D01*
X108061116Y-97094781D01*
X108184067Y-97032135D01*
X154079500Y-97032135D01*
X154079500Y-98827870D01*
X154079501Y-98827876D01*
X154085908Y-98887483D01*
X154136202Y-99022328D01*
X154136206Y-99022335D01*
X154222452Y-99137544D01*
X154222455Y-99137547D01*
X154337664Y-99223793D01*
X154337671Y-99223797D01*
X154469082Y-99272810D01*
X154525016Y-99314681D01*
X154549433Y-99380145D01*
X154534582Y-99448418D01*
X154513431Y-99476673D01*
X154399889Y-99590215D01*
X154274951Y-99762179D01*
X154178444Y-99951585D01*
X154112753Y-100153760D01*
X154079500Y-100363713D01*
X154079500Y-100576286D01*
X154111066Y-100775590D01*
X154112754Y-100786243D01*
X154166890Y-100952857D01*
X154178444Y-100988414D01*
X154274951Y-101177820D01*
X154399890Y-101349786D01*
X154550213Y-101500109D01*
X154722182Y-101625050D01*
X154730946Y-101629516D01*
X154781742Y-101677491D01*
X154798536Y-101745312D01*
X154775998Y-101811447D01*
X154730946Y-101850484D01*
X154722182Y-101854949D01*
X154550213Y-101979890D01*
X154399890Y-102130213D01*
X154274951Y-102302179D01*
X154178444Y-102491585D01*
X154112753Y-102693760D01*
X154079500Y-102903713D01*
X154079500Y-103116286D01*
X154109295Y-103304408D01*
X154112754Y-103326243D01*
X154166890Y-103492857D01*
X154178444Y-103528414D01*
X154274951Y-103717820D01*
X154399890Y-103889786D01*
X154550213Y-104040109D01*
X154722182Y-104165050D01*
X154730946Y-104169516D01*
X154781742Y-104217491D01*
X154798536Y-104285312D01*
X154775998Y-104351447D01*
X154730946Y-104390484D01*
X154722182Y-104394949D01*
X154550213Y-104519890D01*
X154399890Y-104670213D01*
X154274951Y-104842179D01*
X154178444Y-105031585D01*
X154112753Y-105233760D01*
X154079500Y-105443713D01*
X154079500Y-105656286D01*
X154111022Y-105855311D01*
X154112754Y-105866243D01*
X154156345Y-106000403D01*
X154178444Y-106068414D01*
X154274951Y-106257820D01*
X154399890Y-106429786D01*
X154550213Y-106580109D01*
X154722182Y-106705050D01*
X154730946Y-106709516D01*
X154781742Y-106757491D01*
X154798536Y-106825312D01*
X154775998Y-106891447D01*
X154730946Y-106930484D01*
X154722182Y-106934949D01*
X154550213Y-107059890D01*
X154399890Y-107210213D01*
X154274951Y-107382179D01*
X154178444Y-107571585D01*
X154112753Y-107773760D01*
X154079500Y-107983713D01*
X154079500Y-108196286D01*
X154112157Y-108402479D01*
X154112754Y-108406243D01*
X154170163Y-108582930D01*
X154178444Y-108608414D01*
X154274951Y-108797820D01*
X154399890Y-108969786D01*
X154550213Y-109120109D01*
X154722182Y-109245050D01*
X154730946Y-109249516D01*
X154781742Y-109297491D01*
X154798536Y-109365312D01*
X154775998Y-109431447D01*
X154730946Y-109470484D01*
X154722182Y-109474949D01*
X154550213Y-109599890D01*
X154399890Y-109750213D01*
X154274951Y-109922179D01*
X154178444Y-110111585D01*
X154112753Y-110313760D01*
X154079500Y-110523713D01*
X154079500Y-110736286D01*
X154111022Y-110935311D01*
X154112754Y-110946243D01*
X154156345Y-111080403D01*
X154178444Y-111148414D01*
X154274951Y-111337820D01*
X154399890Y-111509786D01*
X154550213Y-111660109D01*
X154722182Y-111785050D01*
X154730946Y-111789516D01*
X154781742Y-111837491D01*
X154798536Y-111905312D01*
X154775998Y-111971447D01*
X154730946Y-112010484D01*
X154722182Y-112014949D01*
X154550213Y-112139890D01*
X154399890Y-112290213D01*
X154274951Y-112462179D01*
X154178444Y-112651585D01*
X154112753Y-112853760D01*
X154079500Y-113063713D01*
X154079500Y-113276286D01*
X154111022Y-113475311D01*
X154112754Y-113486243D01*
X154156345Y-113620403D01*
X154178444Y-113688414D01*
X154274951Y-113877820D01*
X154399890Y-114049786D01*
X154550213Y-114200109D01*
X154722182Y-114325050D01*
X154730946Y-114329516D01*
X154781742Y-114377491D01*
X154798536Y-114445312D01*
X154775998Y-114511447D01*
X154730946Y-114550484D01*
X154722182Y-114554949D01*
X154550213Y-114679890D01*
X154399890Y-114830213D01*
X154274951Y-115002179D01*
X154178444Y-115191585D01*
X154112753Y-115393760D01*
X154079500Y-115603713D01*
X154079500Y-115816286D01*
X154105969Y-115983409D01*
X154112754Y-116026243D01*
X154166890Y-116192857D01*
X154178444Y-116228414D01*
X154274951Y-116417820D01*
X154399890Y-116589786D01*
X154550213Y-116740109D01*
X154722179Y-116865048D01*
X154722181Y-116865049D01*
X154722184Y-116865051D01*
X154911588Y-116961557D01*
X155113757Y-117027246D01*
X155323713Y-117060500D01*
X155323714Y-117060500D01*
X155536286Y-117060500D01*
X155536287Y-117060500D01*
X155746243Y-117027246D01*
X155948412Y-116961557D01*
X156137816Y-116865051D01*
X156159789Y-116849086D01*
X156309786Y-116740109D01*
X156309788Y-116740106D01*
X156309792Y-116740104D01*
X156460104Y-116589792D01*
X156460106Y-116589788D01*
X156460109Y-116589786D01*
X156585048Y-116417820D01*
X156585047Y-116417820D01*
X156585051Y-116417816D01*
X156681557Y-116228412D01*
X156747246Y-116026243D01*
X156780500Y-115816287D01*
X156780500Y-115603713D01*
X156747246Y-115393757D01*
X156681557Y-115191588D01*
X156585051Y-115002184D01*
X156585049Y-115002181D01*
X156585048Y-115002179D01*
X156460109Y-114830213D01*
X156309786Y-114679890D01*
X156137820Y-114554951D01*
X156137115Y-114554591D01*
X156129054Y-114550485D01*
X156078259Y-114502512D01*
X156061463Y-114434692D01*
X156083999Y-114368556D01*
X156129054Y-114329515D01*
X156137816Y-114325051D01*
X156159789Y-114309086D01*
X156309786Y-114200109D01*
X156309788Y-114200106D01*
X156309792Y-114200104D01*
X156460104Y-114049792D01*
X156460106Y-114049788D01*
X156460109Y-114049786D01*
X156585048Y-113877820D01*
X156585047Y-113877820D01*
X156585051Y-113877816D01*
X156681557Y-113688412D01*
X156747246Y-113486243D01*
X156780500Y-113276287D01*
X156780500Y-113063713D01*
X156747246Y-112853757D01*
X156681557Y-112651588D01*
X156585051Y-112462184D01*
X156585049Y-112462181D01*
X156585048Y-112462179D01*
X156460109Y-112290213D01*
X156309786Y-112139890D01*
X156137820Y-112014951D01*
X156137115Y-112014591D01*
X156129054Y-112010485D01*
X156078259Y-111962512D01*
X156061463Y-111894692D01*
X156083999Y-111828556D01*
X156129054Y-111789515D01*
X156137816Y-111785051D01*
X156159789Y-111769086D01*
X156309786Y-111660109D01*
X156309788Y-111660106D01*
X156309792Y-111660104D01*
X156460104Y-111509792D01*
X156460106Y-111509788D01*
X156460109Y-111509786D01*
X156585048Y-111337820D01*
X156585047Y-111337820D01*
X156585051Y-111337816D01*
X156681557Y-111148412D01*
X156747246Y-110946243D01*
X156780500Y-110736287D01*
X156780500Y-110523713D01*
X156747246Y-110313757D01*
X156681557Y-110111588D01*
X156585051Y-109922184D01*
X156585049Y-109922181D01*
X156585048Y-109922179D01*
X156460109Y-109750213D01*
X156309786Y-109599890D01*
X156137820Y-109474951D01*
X156137115Y-109474591D01*
X156129054Y-109470485D01*
X156078259Y-109422512D01*
X156061463Y-109354692D01*
X156083999Y-109288556D01*
X156129054Y-109249515D01*
X156137816Y-109245051D01*
X156159789Y-109229086D01*
X156309786Y-109120109D01*
X156309788Y-109120106D01*
X156309792Y-109120104D01*
X156460104Y-108969792D01*
X156460106Y-108969788D01*
X156460109Y-108969786D01*
X156585048Y-108797820D01*
X156585047Y-108797820D01*
X156585051Y-108797816D01*
X156681557Y-108608412D01*
X156747246Y-108406243D01*
X156780500Y-108196287D01*
X156780500Y-107983713D01*
X156747246Y-107773757D01*
X156681557Y-107571588D01*
X156585051Y-107382184D01*
X156585049Y-107382181D01*
X156585048Y-107382179D01*
X156460109Y-107210213D01*
X156309786Y-107059890D01*
X156137820Y-106934951D01*
X156137115Y-106934591D01*
X156129054Y-106930485D01*
X156078259Y-106882512D01*
X156061463Y-106814692D01*
X156083999Y-106748556D01*
X156129054Y-106709515D01*
X156137816Y-106705051D01*
X156159789Y-106689086D01*
X156309786Y-106580109D01*
X156309788Y-106580106D01*
X156309792Y-106580104D01*
X156460104Y-106429792D01*
X156460106Y-106429788D01*
X156460109Y-106429786D01*
X156585048Y-106257820D01*
X156585047Y-106257820D01*
X156585051Y-106257816D01*
X156681557Y-106068412D01*
X156747246Y-105866243D01*
X156780500Y-105656287D01*
X156780500Y-105443713D01*
X156747246Y-105233757D01*
X156681557Y-105031588D01*
X156585051Y-104842184D01*
X156585049Y-104842181D01*
X156585048Y-104842179D01*
X156460109Y-104670213D01*
X156309786Y-104519890D01*
X156137820Y-104394951D01*
X156137115Y-104394591D01*
X156129054Y-104390485D01*
X156078259Y-104342512D01*
X156061463Y-104274692D01*
X156083999Y-104208556D01*
X156129054Y-104169515D01*
X156137816Y-104165051D01*
X156159789Y-104149086D01*
X156309786Y-104040109D01*
X156309788Y-104040106D01*
X156309792Y-104040104D01*
X156460104Y-103889792D01*
X156460106Y-103889788D01*
X156460109Y-103889786D01*
X156585048Y-103717820D01*
X156585047Y-103717820D01*
X156585051Y-103717816D01*
X156681557Y-103528412D01*
X156747246Y-103326243D01*
X156780500Y-103116287D01*
X156780500Y-102903713D01*
X156747246Y-102693757D01*
X156681557Y-102491588D01*
X156585051Y-102302184D01*
X156585049Y-102302181D01*
X156585048Y-102302179D01*
X156460109Y-102130213D01*
X156309786Y-101979890D01*
X156137820Y-101854951D01*
X156137115Y-101854591D01*
X156129054Y-101850485D01*
X156078259Y-101802512D01*
X156061463Y-101734692D01*
X156083999Y-101668556D01*
X156129054Y-101629515D01*
X156137816Y-101625051D01*
X156252870Y-101541460D01*
X156309786Y-101500109D01*
X156309788Y-101500106D01*
X156309792Y-101500104D01*
X156460104Y-101349792D01*
X156460106Y-101349788D01*
X156460109Y-101349786D01*
X156585048Y-101177820D01*
X156585047Y-101177820D01*
X156585051Y-101177816D01*
X156681557Y-100988412D01*
X156747246Y-100786243D01*
X156780500Y-100576287D01*
X156780500Y-100363713D01*
X156747246Y-100153757D01*
X156681557Y-99951588D01*
X156585051Y-99762184D01*
X156585049Y-99762181D01*
X156585048Y-99762179D01*
X156460109Y-99590213D01*
X156346569Y-99476673D01*
X156313084Y-99415350D01*
X156318068Y-99345658D01*
X156359940Y-99289725D01*
X156390915Y-99272810D01*
X156522331Y-99223796D01*
X156637546Y-99137546D01*
X156723796Y-99022331D01*
X156774091Y-98887483D01*
X156780500Y-98827873D01*
X156780499Y-97032128D01*
X156774091Y-96972517D01*
X156757669Y-96928488D01*
X156723797Y-96837671D01*
X156723793Y-96837664D01*
X156637547Y-96722455D01*
X156637544Y-96722452D01*
X156522335Y-96636206D01*
X156522328Y-96636202D01*
X156387482Y-96585908D01*
X156387483Y-96585908D01*
X156327883Y-96579501D01*
X156327881Y-96579500D01*
X156327873Y-96579500D01*
X156327864Y-96579500D01*
X154532129Y-96579500D01*
X154532123Y-96579501D01*
X154472516Y-96585908D01*
X154337671Y-96636202D01*
X154337664Y-96636206D01*
X154222455Y-96722452D01*
X154222452Y-96722455D01*
X154136206Y-96837664D01*
X154136202Y-96837671D01*
X154085908Y-96972517D01*
X154080551Y-97022352D01*
X154079501Y-97032123D01*
X154079500Y-97032135D01*
X108184067Y-97032135D01*
X108203266Y-97022353D01*
X108364418Y-96905269D01*
X108505269Y-96764418D01*
X108622353Y-96603266D01*
X108712785Y-96425783D01*
X108725140Y-96387758D01*
X108774338Y-96236343D01*
X108774338Y-96236342D01*
X108774339Y-96236339D01*
X108805500Y-96039597D01*
X108805500Y-95840403D01*
X108774339Y-95643661D01*
X108774338Y-95643657D01*
X108774338Y-95643656D01*
X108712786Y-95454219D01*
X108622352Y-95276733D01*
X108505269Y-95115582D01*
X108364418Y-94974731D01*
X108203266Y-94857647D01*
X108051827Y-94780485D01*
X108001031Y-94732510D01*
X107984236Y-94664689D01*
X108006773Y-94598554D01*
X108051827Y-94559515D01*
X108065614Y-94552490D01*
X108203266Y-94482353D01*
X108364418Y-94365269D01*
X108505269Y-94224418D01*
X108622353Y-94063266D01*
X108712785Y-93885783D01*
X108774339Y-93696339D01*
X108805500Y-93499597D01*
X108805500Y-93300403D01*
X108774339Y-93103661D01*
X108774338Y-93103657D01*
X108774338Y-93103656D01*
X108712786Y-92914219D01*
X108675202Y-92840456D01*
X108622353Y-92736734D01*
X108505269Y-92575582D01*
X108364418Y-92434731D01*
X108203266Y-92317647D01*
X108124379Y-92277452D01*
X108025780Y-92227213D01*
X107836342Y-92165661D01*
X107688782Y-92142290D01*
X107639597Y-92134500D01*
X107440403Y-92134500D01*
X107374822Y-92144887D01*
X107243659Y-92165661D01*
X107243656Y-92165661D01*
X107054219Y-92227213D01*
X106876733Y-92317647D01*
X106784790Y-92384447D01*
X106715582Y-92434731D01*
X106715580Y-92434733D01*
X106715579Y-92434733D01*
X106574733Y-92575579D01*
X106574733Y-92575580D01*
X106574731Y-92575582D01*
X106542772Y-92619570D01*
X106489817Y-92692456D01*
X106434487Y-92735121D01*
X106364873Y-92741100D01*
X106303078Y-92708494D01*
X106268721Y-92647655D01*
X106265499Y-92619570D01*
X106265499Y-92587129D01*
X106265498Y-92587123D01*
X106265497Y-92587116D01*
X106259091Y-92527517D01*
X106208796Y-92392669D01*
X106208795Y-92392668D01*
X106208793Y-92392664D01*
X106122547Y-92277455D01*
X106122544Y-92277452D01*
X106007335Y-92191206D01*
X106007328Y-92191202D01*
X105872482Y-92140908D01*
X105872483Y-92140908D01*
X105812883Y-92134501D01*
X105812881Y-92134500D01*
X105812873Y-92134500D01*
X105812864Y-92134500D01*
X104187129Y-92134500D01*
X104187123Y-92134501D01*
X104127516Y-92140908D01*
X103992671Y-92191202D01*
X103992664Y-92191206D01*
X103877455Y-92277452D01*
X103877452Y-92277455D01*
X103791206Y-92392664D01*
X103791202Y-92392671D01*
X103740908Y-92527517D01*
X103735741Y-92575580D01*
X103734501Y-92587123D01*
X103734500Y-92587135D01*
X101550500Y-92587135D01*
X101550500Y-90725753D01*
X124999500Y-90725753D01*
X124999500Y-91094246D01*
X125035618Y-91460975D01*
X125107504Y-91822375D01*
X125107507Y-91822386D01*
X125214480Y-92175030D01*
X125355500Y-92515481D01*
X125355502Y-92515486D01*
X125529202Y-92840456D01*
X125529213Y-92840474D01*
X125733931Y-93146856D01*
X125733941Y-93146870D01*
X125967715Y-93431724D01*
X126228275Y-93692284D01*
X126228280Y-93692288D01*
X126228281Y-93692289D01*
X126513135Y-93926063D01*
X126819532Y-94130791D01*
X126819541Y-94130796D01*
X126819543Y-94130797D01*
X127144513Y-94304497D01*
X127144515Y-94304497D01*
X127144521Y-94304501D01*
X127484971Y-94445520D01*
X127837604Y-94552490D01*
X127837610Y-94552491D01*
X127837613Y-94552492D01*
X127837624Y-94552495D01*
X128199024Y-94624381D01*
X128565750Y-94660500D01*
X128565753Y-94660500D01*
X128934247Y-94660500D01*
X128934250Y-94660500D01*
X129300976Y-94624381D01*
X129385893Y-94607490D01*
X129662375Y-94552495D01*
X129662386Y-94552492D01*
X129662386Y-94552491D01*
X129662396Y-94552490D01*
X130015029Y-94445520D01*
X130355479Y-94304501D01*
X130680468Y-94130791D01*
X130986865Y-93926063D01*
X131271719Y-93692289D01*
X131532289Y-93431719D01*
X131766063Y-93146865D01*
X131970791Y-92840468D01*
X132144501Y-92515479D01*
X132285520Y-92175029D01*
X132392490Y-91822396D01*
X132392492Y-91822386D01*
X132392495Y-91822375D01*
X132464381Y-91460975D01*
X132500500Y-91094246D01*
X132500500Y-90725753D01*
X141499500Y-90725753D01*
X141499500Y-91094246D01*
X141535618Y-91460975D01*
X141607504Y-91822375D01*
X141607507Y-91822386D01*
X141714480Y-92175030D01*
X141855500Y-92515481D01*
X141855502Y-92515486D01*
X142029202Y-92840456D01*
X142029213Y-92840474D01*
X142233931Y-93146856D01*
X142233941Y-93146870D01*
X142467715Y-93431724D01*
X142728275Y-93692284D01*
X142728280Y-93692288D01*
X142728281Y-93692289D01*
X143013135Y-93926063D01*
X143319532Y-94130791D01*
X143319541Y-94130796D01*
X143319543Y-94130797D01*
X143644513Y-94304497D01*
X143644515Y-94304497D01*
X143644521Y-94304501D01*
X143984971Y-94445520D01*
X144337604Y-94552490D01*
X144337610Y-94552491D01*
X144337613Y-94552492D01*
X144337624Y-94552495D01*
X144699024Y-94624381D01*
X145065750Y-94660500D01*
X145065753Y-94660500D01*
X145434247Y-94660500D01*
X145434250Y-94660500D01*
X145800976Y-94624381D01*
X145885893Y-94607490D01*
X146162375Y-94552495D01*
X146162386Y-94552492D01*
X146162386Y-94552491D01*
X146162396Y-94552490D01*
X146515029Y-94445520D01*
X146824227Y-94317446D01*
X159577000Y-94317446D01*
X159577000Y-94522553D01*
X159601195Y-94675311D01*
X159609084Y-94725120D01*
X159644620Y-94834487D01*
X159672464Y-94920182D01*
X159765577Y-95102924D01*
X159886121Y-95268840D01*
X159886125Y-95268845D01*
X160031154Y-95413874D01*
X160031159Y-95413878D01*
X160143865Y-95495763D01*
X160197079Y-95534425D01*
X160273210Y-95573215D01*
X160285573Y-95579515D01*
X160336369Y-95627490D01*
X160353164Y-95695311D01*
X160330627Y-95761446D01*
X160285573Y-95800485D01*
X160197075Y-95845577D01*
X160031159Y-95966121D01*
X160031154Y-95966125D01*
X159886125Y-96111154D01*
X159886121Y-96111159D01*
X159765577Y-96277075D01*
X159672464Y-96459817D01*
X159640773Y-96557351D01*
X159609084Y-96654880D01*
X159609083Y-96654883D01*
X159609083Y-96654885D01*
X159577000Y-96857446D01*
X159577000Y-97062553D01*
X159601195Y-97215311D01*
X159609084Y-97265120D01*
X159652145Y-97397647D01*
X159672464Y-97460182D01*
X159765577Y-97642924D01*
X159886121Y-97808840D01*
X159886125Y-97808845D01*
X160031154Y-97953874D01*
X160031159Y-97953878D01*
X160143865Y-98035763D01*
X160197079Y-98074425D01*
X160273210Y-98113215D01*
X160285573Y-98119515D01*
X160336369Y-98167490D01*
X160353164Y-98235311D01*
X160330627Y-98301446D01*
X160285573Y-98340485D01*
X160197075Y-98385577D01*
X160031159Y-98506121D01*
X160031154Y-98506125D01*
X159886125Y-98651154D01*
X159886121Y-98651159D01*
X159765577Y-98817075D01*
X159672464Y-98999817D01*
X159665150Y-99022328D01*
X159609084Y-99194880D01*
X159609083Y-99194883D01*
X159609083Y-99194885D01*
X159577000Y-99397446D01*
X159577000Y-99602553D01*
X159606002Y-99785661D01*
X159609084Y-99805120D01*
X159652145Y-99937647D01*
X159672464Y-100000182D01*
X159765577Y-100182924D01*
X159886121Y-100348840D01*
X159886125Y-100348845D01*
X160031154Y-100493874D01*
X160031159Y-100493878D01*
X160143865Y-100575763D01*
X160197079Y-100614425D01*
X160286123Y-100659795D01*
X160336919Y-100707770D01*
X160353714Y-100775590D01*
X160331177Y-100841725D01*
X160286124Y-100880764D01*
X160197341Y-100926002D01*
X160152287Y-100958733D01*
X160152287Y-100958734D01*
X160722013Y-101528460D01*
X160673498Y-101541460D01*
X160551503Y-101611894D01*
X160451894Y-101711503D01*
X160381460Y-101833498D01*
X160368460Y-101882013D01*
X159798733Y-101312287D01*
X159766003Y-101357338D01*
X159672927Y-101540008D01*
X159609570Y-101735002D01*
X159577500Y-101937486D01*
X159577500Y-102142513D01*
X159609570Y-102344997D01*
X159672927Y-102539991D01*
X159766003Y-102722661D01*
X159798733Y-102767711D01*
X159798734Y-102767711D01*
X160368459Y-102197985D01*
X160381460Y-102246502D01*
X160451894Y-102368497D01*
X160551503Y-102468106D01*
X160673498Y-102538540D01*
X160722012Y-102551539D01*
X160152287Y-103121264D01*
X160197347Y-103154001D01*
X160197346Y-103154001D01*
X160286122Y-103199234D01*
X160336919Y-103247208D01*
X160353714Y-103315029D01*
X160331177Y-103381164D01*
X160286124Y-103420203D01*
X160197077Y-103465575D01*
X160031159Y-103586121D01*
X160031154Y-103586125D01*
X159886125Y-103731154D01*
X159886121Y-103731159D01*
X159765577Y-103897075D01*
X159672464Y-104079817D01*
X159644771Y-104165048D01*
X159609084Y-104274880D01*
X159609083Y-104274883D01*
X159609083Y-104274885D01*
X159577000Y-104477446D01*
X159577000Y-104682553D01*
X159606002Y-104865661D01*
X159609084Y-104885120D01*
X159650969Y-105014028D01*
X159672464Y-105080182D01*
X159700260Y-105134733D01*
X159759579Y-105251154D01*
X159765577Y-105262924D01*
X159886121Y-105428840D01*
X159886125Y-105428845D01*
X160031154Y-105573874D01*
X160031159Y-105573878D01*
X160143865Y-105655763D01*
X160197079Y-105694425D01*
X160273210Y-105733215D01*
X160285573Y-105739515D01*
X160336369Y-105787490D01*
X160353164Y-105855311D01*
X160330627Y-105921446D01*
X160285573Y-105960485D01*
X160197075Y-106005577D01*
X160031159Y-106126121D01*
X160031154Y-106126125D01*
X159886125Y-106271154D01*
X159886121Y-106271159D01*
X159765577Y-106437075D01*
X159672464Y-106619817D01*
X159644771Y-106705048D01*
X159609084Y-106814880D01*
X159609083Y-106814883D01*
X159609083Y-106814885D01*
X159577000Y-107017446D01*
X159577000Y-107222553D01*
X159606002Y-107405661D01*
X159609084Y-107425120D01*
X159641725Y-107525577D01*
X159672464Y-107620182D01*
X159727597Y-107728385D01*
X159759579Y-107791154D01*
X159765577Y-107802924D01*
X159886121Y-107968840D01*
X159886125Y-107968845D01*
X160031154Y-108113874D01*
X160031159Y-108113878D01*
X160143865Y-108195763D01*
X160197079Y-108234425D01*
X160273210Y-108273215D01*
X160285573Y-108279515D01*
X160336369Y-108327490D01*
X160353164Y-108395311D01*
X160330627Y-108461446D01*
X160285573Y-108500485D01*
X160197075Y-108545577D01*
X160031159Y-108666121D01*
X160031154Y-108666125D01*
X159886125Y-108811154D01*
X159886121Y-108811159D01*
X159765577Y-108977075D01*
X159672464Y-109159817D01*
X159644771Y-109245048D01*
X159609084Y-109354880D01*
X159609083Y-109354883D01*
X159609083Y-109354885D01*
X159577000Y-109557446D01*
X159577000Y-109762553D01*
X159606002Y-109945661D01*
X159609084Y-109965120D01*
X159641725Y-110065577D01*
X159672464Y-110160182D01*
X159700260Y-110214733D01*
X159759579Y-110331154D01*
X159765577Y-110342924D01*
X159886121Y-110508840D01*
X159886125Y-110508845D01*
X160031154Y-110653874D01*
X160031159Y-110653878D01*
X160143865Y-110735763D01*
X160197079Y-110774425D01*
X160273210Y-110813215D01*
X160285573Y-110819515D01*
X160336369Y-110867490D01*
X160353164Y-110935311D01*
X160330627Y-111001446D01*
X160285573Y-111040485D01*
X160197075Y-111085577D01*
X160031159Y-111206121D01*
X160031154Y-111206125D01*
X159886125Y-111351154D01*
X159886121Y-111351159D01*
X159765577Y-111517075D01*
X159672464Y-111699817D01*
X159644771Y-111785048D01*
X159609084Y-111894880D01*
X159609083Y-111894883D01*
X159609083Y-111894885D01*
X159577000Y-112097446D01*
X159577000Y-112302553D01*
X159606002Y-112485661D01*
X159609084Y-112505120D01*
X159641725Y-112605577D01*
X159672464Y-112700182D01*
X159700260Y-112754733D01*
X159759579Y-112871154D01*
X159765577Y-112882924D01*
X159886121Y-113048840D01*
X159886125Y-113048845D01*
X160031154Y-113193874D01*
X160031159Y-113193878D01*
X160143865Y-113275763D01*
X160197079Y-113314425D01*
X160273210Y-113353215D01*
X160285573Y-113359515D01*
X160336369Y-113407490D01*
X160353164Y-113475311D01*
X160330627Y-113541446D01*
X160285573Y-113580485D01*
X160197075Y-113625577D01*
X160031159Y-113746121D01*
X160031154Y-113746125D01*
X159886125Y-113891154D01*
X159886121Y-113891159D01*
X159765577Y-114057075D01*
X159672464Y-114239817D01*
X159644771Y-114325048D01*
X159609084Y-114434880D01*
X159609083Y-114434883D01*
X159609083Y-114434885D01*
X159577000Y-114637446D01*
X159577000Y-114842553D01*
X159606002Y-115025661D01*
X159609084Y-115045120D01*
X159652145Y-115177647D01*
X159672464Y-115240182D01*
X159765577Y-115422924D01*
X159886121Y-115588840D01*
X159886125Y-115588845D01*
X159886127Y-115588847D01*
X160031153Y-115733873D01*
X160062043Y-115756316D01*
X160062045Y-115756317D01*
X160104711Y-115811647D01*
X160110690Y-115881260D01*
X160078085Y-115943056D01*
X160017246Y-115977413D01*
X160002414Y-115979926D01*
X159970016Y-115983408D01*
X159835171Y-116033702D01*
X159835164Y-116033706D01*
X159719955Y-116119952D01*
X159719952Y-116119955D01*
X159633706Y-116235164D01*
X159633702Y-116235171D01*
X159583408Y-116370017D01*
X159578270Y-116417816D01*
X159577001Y-116429623D01*
X159577000Y-116429635D01*
X159577000Y-118130370D01*
X159577001Y-118130376D01*
X159583408Y-118189983D01*
X159633702Y-118324828D01*
X159633706Y-118324835D01*
X159719952Y-118440044D01*
X159719955Y-118440047D01*
X159835164Y-118526293D01*
X159835171Y-118526297D01*
X159970017Y-118576591D01*
X159970016Y-118576591D01*
X159976944Y-118577335D01*
X160029627Y-118583000D01*
X161730372Y-118582999D01*
X161789983Y-118576591D01*
X161924831Y-118526296D01*
X162040046Y-118440046D01*
X162126296Y-118324831D01*
X162176591Y-118189983D01*
X162183000Y-118130373D01*
X162182999Y-116429628D01*
X162176591Y-116370017D01*
X162173792Y-116362513D01*
X162126297Y-116235171D01*
X162126293Y-116235164D01*
X162040047Y-116119955D01*
X162040044Y-116119952D01*
X161924835Y-116033706D01*
X161924828Y-116033702D01*
X161789983Y-115983408D01*
X161757582Y-115979925D01*
X161693032Y-115953187D01*
X161653184Y-115895794D01*
X161650691Y-115825968D01*
X161686344Y-115765880D01*
X161697955Y-115756317D01*
X161728847Y-115733873D01*
X161873873Y-115588847D01*
X161994425Y-115422921D01*
X162087537Y-115240178D01*
X162150916Y-115045120D01*
X162170962Y-114918554D01*
X162183000Y-114842553D01*
X162183000Y-114637446D01*
X162161628Y-114502512D01*
X162150916Y-114434880D01*
X162087537Y-114239822D01*
X162087535Y-114239819D01*
X162087535Y-114239817D01*
X162049024Y-114164236D01*
X161994425Y-114057079D01*
X161979023Y-114035880D01*
X161873878Y-113891159D01*
X161873874Y-113891154D01*
X161728845Y-113746125D01*
X161728840Y-113746121D01*
X161562925Y-113625577D01*
X161546967Y-113617446D01*
X161474425Y-113580484D01*
X161423630Y-113532511D01*
X161406835Y-113464690D01*
X161429372Y-113398555D01*
X161474425Y-113359515D01*
X161562921Y-113314425D01*
X161728847Y-113193873D01*
X161873873Y-113048847D01*
X161994425Y-112882921D01*
X162087537Y-112700178D01*
X162150916Y-112505120D01*
X162170962Y-112378554D01*
X162183000Y-112302553D01*
X162183000Y-112097446D01*
X162161628Y-111962512D01*
X162150916Y-111894880D01*
X162087537Y-111699822D01*
X162087535Y-111699819D01*
X162087535Y-111699817D01*
X162049024Y-111624236D01*
X161994425Y-111517079D01*
X161979023Y-111495880D01*
X161873878Y-111351159D01*
X161873874Y-111351154D01*
X161728845Y-111206125D01*
X161728840Y-111206121D01*
X161562925Y-111085577D01*
X161546967Y-111077446D01*
X161474425Y-111040484D01*
X161423630Y-110992511D01*
X161406835Y-110924690D01*
X161429372Y-110858555D01*
X161474425Y-110819515D01*
X161562921Y-110774425D01*
X161728847Y-110653873D01*
X161873873Y-110508847D01*
X161994425Y-110342921D01*
X162087537Y-110160178D01*
X162150916Y-109965120D01*
X162170962Y-109838554D01*
X162183000Y-109762553D01*
X162183000Y-109557446D01*
X162161628Y-109422512D01*
X162150916Y-109354880D01*
X162087537Y-109159822D01*
X162087535Y-109159819D01*
X162087535Y-109159817D01*
X162049024Y-109084236D01*
X161994425Y-108977079D01*
X161979023Y-108955880D01*
X161873878Y-108811159D01*
X161873874Y-108811154D01*
X161728845Y-108666125D01*
X161728840Y-108666121D01*
X161562925Y-108545577D01*
X161546967Y-108537446D01*
X161474425Y-108500484D01*
X161423630Y-108452511D01*
X161406835Y-108384690D01*
X161429372Y-108318555D01*
X161474425Y-108279515D01*
X161562921Y-108234425D01*
X161728847Y-108113873D01*
X161873873Y-107968847D01*
X161994425Y-107802921D01*
X162087537Y-107620178D01*
X162150916Y-107425120D01*
X162171197Y-107297069D01*
X162183000Y-107222553D01*
X162183000Y-107017446D01*
X162161628Y-106882512D01*
X162150916Y-106814880D01*
X162087537Y-106619822D01*
X162087535Y-106619819D01*
X162087535Y-106619817D01*
X162049024Y-106544236D01*
X161994425Y-106437079D01*
X161979023Y-106415880D01*
X161873878Y-106271159D01*
X161873874Y-106271154D01*
X161728845Y-106126125D01*
X161728840Y-106126121D01*
X161562925Y-106005577D01*
X161546967Y-105997446D01*
X161474425Y-105960484D01*
X161423630Y-105912511D01*
X161406835Y-105844690D01*
X161429372Y-105778555D01*
X161474425Y-105739515D01*
X161562921Y-105694425D01*
X161728847Y-105573873D01*
X161873873Y-105428847D01*
X161994425Y-105262921D01*
X162087537Y-105080178D01*
X162150916Y-104885120D01*
X162170962Y-104758554D01*
X162183000Y-104682553D01*
X162183000Y-104477446D01*
X162161628Y-104342512D01*
X162150916Y-104274880D01*
X162087537Y-104079822D01*
X162087535Y-104079819D01*
X162087535Y-104079817D01*
X162002819Y-103913554D01*
X161994425Y-103897079D01*
X161964829Y-103856343D01*
X161873878Y-103731159D01*
X161873874Y-103731154D01*
X161728845Y-103586125D01*
X161728840Y-103586121D01*
X161687228Y-103555888D01*
X161562924Y-103465577D01*
X161562923Y-103465576D01*
X161562921Y-103465575D01*
X161515204Y-103441262D01*
X161473876Y-103420204D01*
X161423080Y-103372229D01*
X161406285Y-103304408D01*
X161428823Y-103238273D01*
X161473877Y-103199234D01*
X161562657Y-103153999D01*
X161607711Y-103121264D01*
X161607712Y-103121264D01*
X161037987Y-102551539D01*
X161086502Y-102538540D01*
X161208497Y-102468106D01*
X161308106Y-102368497D01*
X161378540Y-102246502D01*
X161391539Y-102197987D01*
X161961264Y-102767712D01*
X161961264Y-102767711D01*
X161993997Y-102722659D01*
X162087072Y-102539991D01*
X162150429Y-102344997D01*
X162182500Y-102142513D01*
X162182500Y-101937486D01*
X162150429Y-101735002D01*
X162087072Y-101540008D01*
X161993999Y-101357344D01*
X161961264Y-101312287D01*
X161391539Y-101882012D01*
X161378540Y-101833498D01*
X161308106Y-101711503D01*
X161208497Y-101611894D01*
X161086502Y-101541460D01*
X161037985Y-101528459D01*
X161607711Y-100958734D01*
X161607711Y-100958733D01*
X161562660Y-100926003D01*
X161473876Y-100880765D01*
X161423080Y-100832790D01*
X161406285Y-100764969D01*
X161428823Y-100698834D01*
X161473877Y-100659795D01*
X161562921Y-100614425D01*
X161728847Y-100493873D01*
X161873873Y-100348847D01*
X161994425Y-100182921D01*
X162087537Y-100000178D01*
X162150916Y-99805120D01*
X162170962Y-99678554D01*
X162183000Y-99602553D01*
X162183000Y-99397446D01*
X162163259Y-99272810D01*
X162150916Y-99194880D01*
X162087537Y-98999822D01*
X162087535Y-98999819D01*
X162087535Y-98999817D01*
X162049024Y-98924236D01*
X161994425Y-98817079D01*
X161964829Y-98776343D01*
X161873878Y-98651159D01*
X161873874Y-98651154D01*
X161728845Y-98506125D01*
X161728840Y-98506121D01*
X161562925Y-98385577D01*
X161552770Y-98380403D01*
X161474425Y-98340484D01*
X161423630Y-98292511D01*
X161406835Y-98224690D01*
X161429372Y-98158555D01*
X161474425Y-98119515D01*
X161562921Y-98074425D01*
X161728847Y-97953873D01*
X161873873Y-97808847D01*
X161994425Y-97642921D01*
X162087537Y-97460178D01*
X162150916Y-97265120D01*
X162170962Y-97138554D01*
X162183000Y-97062553D01*
X162183000Y-96857446D01*
X162161619Y-96722455D01*
X162150916Y-96654880D01*
X162087537Y-96459822D01*
X162087535Y-96459819D01*
X162087535Y-96459817D01*
X162049024Y-96384236D01*
X161994425Y-96277079D01*
X161964829Y-96236343D01*
X161873878Y-96111159D01*
X161873874Y-96111154D01*
X161728845Y-95966125D01*
X161728840Y-95966121D01*
X161562925Y-95845577D01*
X161552770Y-95840403D01*
X161474425Y-95800484D01*
X161423630Y-95752511D01*
X161406835Y-95684690D01*
X161429372Y-95618555D01*
X161474425Y-95579515D01*
X161562921Y-95534425D01*
X161728847Y-95413873D01*
X161873873Y-95268847D01*
X161994425Y-95102921D01*
X162087537Y-94920178D01*
X162150916Y-94725120D01*
X162170962Y-94598554D01*
X162183000Y-94522553D01*
X162183000Y-94317446D01*
X162164908Y-94203222D01*
X162150916Y-94114880D01*
X162087537Y-93919822D01*
X162087535Y-93919819D01*
X162087535Y-93919817D01*
X162053755Y-93853522D01*
X161994425Y-93737079D01*
X161964829Y-93696343D01*
X161873878Y-93571159D01*
X161873874Y-93571154D01*
X161728845Y-93426125D01*
X161728840Y-93426121D01*
X161562924Y-93305577D01*
X161562923Y-93305576D01*
X161562921Y-93305575D01*
X161505853Y-93276497D01*
X161380182Y-93212464D01*
X161333384Y-93197258D01*
X161185120Y-93149084D01*
X161185114Y-93149083D01*
X160982553Y-93117000D01*
X160982548Y-93117000D01*
X160777452Y-93117000D01*
X160777447Y-93117000D01*
X160574885Y-93149083D01*
X160574883Y-93149083D01*
X160574880Y-93149084D01*
X160477351Y-93180773D01*
X160379817Y-93212464D01*
X160197075Y-93305577D01*
X160031159Y-93426121D01*
X160031154Y-93426125D01*
X159886125Y-93571154D01*
X159886121Y-93571159D01*
X159765577Y-93737075D01*
X159672464Y-93919817D01*
X159640773Y-94017351D01*
X159609084Y-94114880D01*
X159609083Y-94114883D01*
X159609083Y-94114885D01*
X159577000Y-94317446D01*
X146824227Y-94317446D01*
X146855479Y-94304501D01*
X147180468Y-94130791D01*
X147486865Y-93926063D01*
X147771719Y-93692289D01*
X148032289Y-93431719D01*
X148266063Y-93146865D01*
X148470791Y-92840468D01*
X148606200Y-92587135D01*
X164694500Y-92587135D01*
X164694500Y-94212870D01*
X164694501Y-94212876D01*
X164700908Y-94272483D01*
X164751202Y-94407328D01*
X164751206Y-94407335D01*
X164837452Y-94522544D01*
X164837455Y-94522547D01*
X164952664Y-94608793D01*
X164952671Y-94608797D01*
X165087517Y-94659091D01*
X165087516Y-94659091D01*
X165094444Y-94659835D01*
X165147127Y-94665500D01*
X165179568Y-94665499D01*
X165246605Y-94685182D01*
X165292361Y-94737984D01*
X165302306Y-94807143D01*
X165273283Y-94870699D01*
X165252455Y-94889816D01*
X165135582Y-94974730D01*
X164994733Y-95115579D01*
X164994733Y-95115580D01*
X164994731Y-95115582D01*
X164944447Y-95184790D01*
X164877647Y-95276733D01*
X164787213Y-95454219D01*
X164725661Y-95643656D01*
X164725661Y-95643659D01*
X164694500Y-95840403D01*
X164694500Y-96039596D01*
X164725661Y-96236340D01*
X164725661Y-96236343D01*
X164787213Y-96425780D01*
X164865538Y-96579500D01*
X164877647Y-96603266D01*
X164994731Y-96764418D01*
X165135582Y-96905269D01*
X165296734Y-97022353D01*
X165366453Y-97057877D01*
X165448172Y-97099515D01*
X165498968Y-97147490D01*
X165515763Y-97215311D01*
X165493225Y-97281446D01*
X165448172Y-97320485D01*
X165296733Y-97397647D01*
X165210668Y-97460178D01*
X165135582Y-97514731D01*
X165135580Y-97514733D01*
X165135579Y-97514733D01*
X164994733Y-97655579D01*
X164994733Y-97655580D01*
X164994731Y-97655582D01*
X164944447Y-97724790D01*
X164877647Y-97816733D01*
X164787213Y-97994219D01*
X164725661Y-98183656D01*
X164725661Y-98183659D01*
X164694500Y-98380403D01*
X164694500Y-98579596D01*
X164725661Y-98776340D01*
X164725661Y-98776343D01*
X164787213Y-98965780D01*
X164874731Y-99137544D01*
X164877647Y-99143266D01*
X164994731Y-99304418D01*
X165135582Y-99445269D01*
X165296734Y-99562353D01*
X165366453Y-99597877D01*
X165448172Y-99639515D01*
X165498968Y-99687490D01*
X165515763Y-99755311D01*
X165493225Y-99821446D01*
X165448172Y-99860485D01*
X165296733Y-99937647D01*
X165258286Y-99965581D01*
X165135582Y-100054731D01*
X165135580Y-100054733D01*
X165135579Y-100054733D01*
X164994733Y-100195579D01*
X164994733Y-100195580D01*
X164994731Y-100195582D01*
X164944447Y-100264790D01*
X164877647Y-100356733D01*
X164787213Y-100534219D01*
X164725661Y-100723656D01*
X164725661Y-100723659D01*
X164694500Y-100920403D01*
X164694500Y-101119596D01*
X164725661Y-101316340D01*
X164725661Y-101316343D01*
X164787213Y-101505780D01*
X164847985Y-101625051D01*
X164877647Y-101683266D01*
X164994731Y-101844418D01*
X165135582Y-101985269D01*
X165296734Y-102102353D01*
X165375553Y-102142513D01*
X165448722Y-102179795D01*
X165499518Y-102227770D01*
X165516313Y-102295591D01*
X165493776Y-102361726D01*
X165448723Y-102400764D01*
X165296993Y-102478075D01*
X165259135Y-102505580D01*
X165259135Y-102505581D01*
X165822425Y-103068871D01*
X165763147Y-103084755D01*
X165646853Y-103151898D01*
X165551898Y-103246853D01*
X165484755Y-103363147D01*
X165468871Y-103422425D01*
X164905581Y-102859135D01*
X164905580Y-102859135D01*
X164878077Y-102896990D01*
X164787679Y-103074405D01*
X164726147Y-103263777D01*
X164695000Y-103460436D01*
X164695000Y-103659563D01*
X164726147Y-103856222D01*
X164787679Y-104045594D01*
X164878077Y-104223008D01*
X164905580Y-104260863D01*
X164905581Y-104260864D01*
X165468871Y-103697574D01*
X165484755Y-103756853D01*
X165551898Y-103873147D01*
X165646853Y-103968102D01*
X165763147Y-104035245D01*
X165822425Y-104051128D01*
X165259134Y-104614417D01*
X165296994Y-104641924D01*
X165448722Y-104719234D01*
X165499518Y-104767209D01*
X165516313Y-104835030D01*
X165493776Y-104901165D01*
X165448723Y-104940203D01*
X165296735Y-105017645D01*
X165205846Y-105083681D01*
X165135582Y-105134731D01*
X165135580Y-105134733D01*
X165135579Y-105134733D01*
X164994733Y-105275579D01*
X164994733Y-105275580D01*
X164994731Y-105275582D01*
X164944447Y-105344790D01*
X164877647Y-105436733D01*
X164787213Y-105614219D01*
X164725661Y-105803656D01*
X164725661Y-105803659D01*
X164700822Y-105960485D01*
X164694500Y-106000403D01*
X164694500Y-106199597D01*
X164694968Y-106202553D01*
X164725661Y-106396340D01*
X164725661Y-106396343D01*
X164787213Y-106585780D01*
X164847985Y-106705051D01*
X164877647Y-106763266D01*
X164994731Y-106924418D01*
X165135582Y-107065269D01*
X165296734Y-107182353D01*
X165359673Y-107214422D01*
X165448172Y-107259515D01*
X165498968Y-107307490D01*
X165515763Y-107375311D01*
X165493225Y-107441446D01*
X165448172Y-107480485D01*
X165296733Y-107557647D01*
X165243468Y-107596347D01*
X165135582Y-107674731D01*
X165135580Y-107674733D01*
X165135579Y-107674733D01*
X164994733Y-107815579D01*
X164994733Y-107815580D01*
X164994731Y-107815582D01*
X164956253Y-107868542D01*
X164877647Y-107976733D01*
X164787213Y-108154219D01*
X164725661Y-108343656D01*
X164725661Y-108343659D01*
X164700822Y-108500485D01*
X164694500Y-108540403D01*
X164694500Y-108739597D01*
X164694968Y-108742553D01*
X164725661Y-108936340D01*
X164725661Y-108936343D01*
X164787213Y-109125780D01*
X164847985Y-109245051D01*
X164877647Y-109303266D01*
X164994731Y-109464418D01*
X165135582Y-109605269D01*
X165296734Y-109722353D01*
X165359673Y-109754422D01*
X165448172Y-109799515D01*
X165498968Y-109847490D01*
X165515763Y-109915311D01*
X165493225Y-109981446D01*
X165448172Y-110020485D01*
X165296733Y-110097647D01*
X165210668Y-110160178D01*
X165135582Y-110214731D01*
X165135580Y-110214733D01*
X165135579Y-110214733D01*
X164994733Y-110355579D01*
X164994733Y-110355580D01*
X164994731Y-110355582D01*
X164944447Y-110424790D01*
X164877647Y-110516733D01*
X164787213Y-110694219D01*
X164725661Y-110883656D01*
X164725661Y-110883659D01*
X164700822Y-111040485D01*
X164694500Y-111080403D01*
X164694500Y-111279597D01*
X164694968Y-111282553D01*
X164725661Y-111476340D01*
X164725661Y-111476343D01*
X164787213Y-111665780D01*
X164847985Y-111785051D01*
X164877647Y-111843266D01*
X164994731Y-112004418D01*
X165135582Y-112145269D01*
X165296734Y-112262353D01*
X165359673Y-112294422D01*
X165448172Y-112339515D01*
X165498968Y-112387490D01*
X165515763Y-112455311D01*
X165493225Y-112521446D01*
X165448172Y-112560485D01*
X165296733Y-112637647D01*
X165210668Y-112700178D01*
X165135582Y-112754731D01*
X165135580Y-112754733D01*
X165135579Y-112754733D01*
X164994733Y-112895579D01*
X164994733Y-112895580D01*
X164994731Y-112895582D01*
X164944447Y-112964790D01*
X164877647Y-113056733D01*
X164787213Y-113234219D01*
X164725661Y-113423656D01*
X164725661Y-113423659D01*
X164700822Y-113580485D01*
X164694500Y-113620403D01*
X164694500Y-113819597D01*
X164694968Y-113822553D01*
X164725661Y-114016340D01*
X164725661Y-114016343D01*
X164787213Y-114205780D01*
X164847985Y-114325051D01*
X164877647Y-114383266D01*
X164994731Y-114544418D01*
X165135582Y-114685269D01*
X165296734Y-114802353D01*
X165359673Y-114834422D01*
X165448172Y-114879515D01*
X165498968Y-114927490D01*
X165515763Y-114995311D01*
X165493225Y-115061446D01*
X165448172Y-115100485D01*
X165296733Y-115177647D01*
X165258286Y-115205581D01*
X165135582Y-115294731D01*
X165135580Y-115294733D01*
X165135579Y-115294733D01*
X164994733Y-115435579D01*
X164994733Y-115435580D01*
X164994731Y-115435582D01*
X164944447Y-115504790D01*
X164877647Y-115596733D01*
X164787213Y-115774219D01*
X164725661Y-115963656D01*
X164725661Y-115963659D01*
X164700906Y-116119955D01*
X164694500Y-116160403D01*
X164694500Y-116359597D01*
X164701903Y-116406340D01*
X164725661Y-116556340D01*
X164725661Y-116556343D01*
X164787213Y-116745780D01*
X164825773Y-116821457D01*
X164877647Y-116923266D01*
X164994731Y-117084418D01*
X165135582Y-117225269D01*
X165296734Y-117342353D01*
X165358839Y-117373997D01*
X165448172Y-117419515D01*
X165498968Y-117467490D01*
X165515763Y-117535311D01*
X165493225Y-117601446D01*
X165448172Y-117640485D01*
X165296733Y-117717647D01*
X165258286Y-117745581D01*
X165135582Y-117834731D01*
X165135580Y-117834733D01*
X165135579Y-117834733D01*
X164994733Y-117975579D01*
X164994733Y-117975580D01*
X164994731Y-117975582D01*
X164944447Y-118044790D01*
X164877647Y-118136733D01*
X164787213Y-118314219D01*
X164725661Y-118503656D01*
X164725661Y-118503659D01*
X164705437Y-118631347D01*
X164694500Y-118700403D01*
X164694500Y-118899597D01*
X164709904Y-118996853D01*
X164725661Y-119096340D01*
X164725661Y-119096343D01*
X164787213Y-119285780D01*
X164812276Y-119334968D01*
X164877647Y-119463266D01*
X164994731Y-119624418D01*
X165135582Y-119765269D01*
X165296734Y-119882353D01*
X165358843Y-119913999D01*
X165448172Y-119959515D01*
X165498968Y-120007490D01*
X165515763Y-120075311D01*
X165493225Y-120141446D01*
X165448172Y-120180485D01*
X165296733Y-120257647D01*
X165204790Y-120324447D01*
X165135582Y-120374731D01*
X165135580Y-120374733D01*
X165135579Y-120374733D01*
X164994733Y-120515579D01*
X164994733Y-120515580D01*
X164994731Y-120515582D01*
X164944447Y-120584790D01*
X164877647Y-120676733D01*
X164787213Y-120854219D01*
X164725661Y-121043656D01*
X164725661Y-121043659D01*
X164716738Y-121100000D01*
X164694500Y-121240403D01*
X164694500Y-121439597D01*
X164701429Y-121483343D01*
X164725661Y-121636340D01*
X164725661Y-121636343D01*
X164787213Y-121825780D01*
X164858580Y-121965845D01*
X164877647Y-122003266D01*
X164994731Y-122164418D01*
X165135582Y-122305269D01*
X165296734Y-122422353D01*
X165359673Y-122454422D01*
X165448172Y-122499515D01*
X165498968Y-122547490D01*
X165515763Y-122615311D01*
X165493225Y-122681446D01*
X165448172Y-122720485D01*
X165296733Y-122797647D01*
X165204790Y-122864447D01*
X165135582Y-122914731D01*
X165135580Y-122914733D01*
X165135579Y-122914733D01*
X164994733Y-123055579D01*
X164994733Y-123055580D01*
X164994731Y-123055582D01*
X164944447Y-123124790D01*
X164877647Y-123216733D01*
X164787213Y-123394219D01*
X164725661Y-123583656D01*
X164725661Y-123583659D01*
X164725661Y-123583661D01*
X164694500Y-123780403D01*
X164694500Y-123979597D01*
X164694968Y-123982553D01*
X164725661Y-124176340D01*
X164725661Y-124176343D01*
X164787213Y-124365780D01*
X164800485Y-124391827D01*
X164877647Y-124543266D01*
X164994731Y-124704418D01*
X165135582Y-124845269D01*
X165296734Y-124962353D01*
X165359673Y-124994422D01*
X165448172Y-125039515D01*
X165498968Y-125087490D01*
X165515763Y-125155311D01*
X165493225Y-125221446D01*
X165448172Y-125260485D01*
X165296733Y-125337647D01*
X165204790Y-125404447D01*
X165135582Y-125454731D01*
X165135580Y-125454733D01*
X165135579Y-125454733D01*
X164994733Y-125595579D01*
X164994733Y-125595580D01*
X164994731Y-125595582D01*
X164944447Y-125664790D01*
X164877647Y-125756733D01*
X164787213Y-125934219D01*
X164725661Y-126123656D01*
X164725661Y-126123659D01*
X164722842Y-126141457D01*
X164694500Y-126320403D01*
X164694500Y-126519597D01*
X164694968Y-126522553D01*
X164725661Y-126716340D01*
X164725661Y-126716343D01*
X164787213Y-126905780D01*
X164800485Y-126931827D01*
X164877647Y-127083266D01*
X164994731Y-127244418D01*
X165135582Y-127385269D01*
X165296734Y-127502353D01*
X165359673Y-127534422D01*
X165448172Y-127579515D01*
X165498968Y-127627490D01*
X165515763Y-127695311D01*
X165493225Y-127761446D01*
X165448172Y-127800485D01*
X165296733Y-127877647D01*
X165219010Y-127934117D01*
X165135582Y-127994731D01*
X165135580Y-127994733D01*
X165135579Y-127994733D01*
X164994733Y-128135579D01*
X164994733Y-128135580D01*
X164994731Y-128135582D01*
X164944447Y-128204790D01*
X164877647Y-128296733D01*
X164787213Y-128474219D01*
X164725661Y-128663656D01*
X164725661Y-128663659D01*
X164725661Y-128663661D01*
X164694500Y-128860403D01*
X164694500Y-129059597D01*
X164694968Y-129062553D01*
X164725661Y-129256340D01*
X164725661Y-129256343D01*
X164787213Y-129445780D01*
X164800485Y-129471827D01*
X164877647Y-129623266D01*
X164994731Y-129784418D01*
X165135582Y-129925269D01*
X165296734Y-130042353D01*
X165359673Y-130074422D01*
X165448172Y-130119515D01*
X165498968Y-130167490D01*
X165515763Y-130235311D01*
X165493225Y-130301446D01*
X165448172Y-130340485D01*
X165296733Y-130417647D01*
X165204790Y-130484447D01*
X165135582Y-130534731D01*
X165135580Y-130534733D01*
X165135579Y-130534733D01*
X164994733Y-130675579D01*
X164994733Y-130675580D01*
X164994731Y-130675582D01*
X164944447Y-130744790D01*
X164877647Y-130836733D01*
X164787213Y-131014219D01*
X164725661Y-131203656D01*
X164725661Y-131203659D01*
X164725661Y-131203661D01*
X164694500Y-131400403D01*
X164694500Y-131599597D01*
X164694968Y-131602553D01*
X164725661Y-131796340D01*
X164725661Y-131796343D01*
X164787213Y-131985780D01*
X164800485Y-132011827D01*
X164877647Y-132163266D01*
X164994731Y-132324418D01*
X165135582Y-132465269D01*
X165296734Y-132582353D01*
X165359673Y-132614422D01*
X165448172Y-132659515D01*
X165498968Y-132707490D01*
X165515763Y-132775311D01*
X165493225Y-132841446D01*
X165448172Y-132880485D01*
X165296733Y-132957647D01*
X165204790Y-133024447D01*
X165135582Y-133074731D01*
X165135580Y-133074733D01*
X165135579Y-133074733D01*
X164994733Y-133215579D01*
X164994733Y-133215580D01*
X164994731Y-133215582D01*
X164944447Y-133284790D01*
X164877647Y-133376733D01*
X164787213Y-133554219D01*
X164725661Y-133743656D01*
X164725661Y-133743659D01*
X164725661Y-133743661D01*
X164694500Y-133940403D01*
X164694500Y-134139597D01*
X164694968Y-134142553D01*
X164725661Y-134336340D01*
X164725661Y-134336343D01*
X164787213Y-134525780D01*
X164877647Y-134703266D01*
X164994731Y-134864418D01*
X165135582Y-135005269D01*
X165296734Y-135122353D01*
X165359673Y-135154422D01*
X165448172Y-135199515D01*
X165498968Y-135247490D01*
X165515763Y-135315311D01*
X165493225Y-135381446D01*
X165448172Y-135420485D01*
X165296733Y-135497647D01*
X165206055Y-135563529D01*
X165135582Y-135614731D01*
X165135580Y-135614733D01*
X165135579Y-135614733D01*
X164994733Y-135755579D01*
X164994733Y-135755580D01*
X164994731Y-135755582D01*
X164944447Y-135824790D01*
X164877647Y-135916733D01*
X164787213Y-136094219D01*
X164725661Y-136283656D01*
X164725661Y-136283659D01*
X164725661Y-136283661D01*
X164694500Y-136480403D01*
X164694500Y-136679597D01*
X164694968Y-136682553D01*
X164725661Y-136876340D01*
X164725661Y-136876343D01*
X164787213Y-137065780D01*
X164800485Y-137091827D01*
X164877647Y-137243266D01*
X164994731Y-137404418D01*
X165135582Y-137545269D01*
X165296734Y-137662353D01*
X165359673Y-137694422D01*
X165448172Y-137739515D01*
X165498968Y-137787490D01*
X165515763Y-137855311D01*
X165493225Y-137921446D01*
X165448172Y-137960485D01*
X165296733Y-138037647D01*
X165204790Y-138104447D01*
X165135582Y-138154731D01*
X165135580Y-138154733D01*
X165135579Y-138154733D01*
X164994733Y-138295579D01*
X164994733Y-138295580D01*
X164994731Y-138295582D01*
X164944447Y-138364790D01*
X164877647Y-138456733D01*
X164787213Y-138634219D01*
X164725661Y-138823656D01*
X164725661Y-138823659D01*
X164725661Y-138823661D01*
X164694500Y-139020403D01*
X164694500Y-139219597D01*
X164694968Y-139222553D01*
X164725661Y-139416340D01*
X164725661Y-139416343D01*
X164787213Y-139605780D01*
X164800485Y-139631827D01*
X164877647Y-139783266D01*
X164994731Y-139944418D01*
X165135582Y-140085269D01*
X165296734Y-140202353D01*
X165449215Y-140280046D01*
X165474219Y-140292786D01*
X165663657Y-140354338D01*
X165663658Y-140354338D01*
X165663661Y-140354339D01*
X165860403Y-140385500D01*
X165860404Y-140385500D01*
X166059596Y-140385500D01*
X166059597Y-140385500D01*
X166256339Y-140354339D01*
X166256342Y-140354338D01*
X166256343Y-140354338D01*
X166445780Y-140292786D01*
X166445780Y-140292785D01*
X166445783Y-140292785D01*
X166623266Y-140202353D01*
X166784418Y-140085269D01*
X166925269Y-139944418D01*
X167042353Y-139783266D01*
X167119515Y-139631827D01*
X167167490Y-139581031D01*
X167235311Y-139564236D01*
X167301446Y-139586773D01*
X167340485Y-139631827D01*
X167417647Y-139783266D01*
X167534731Y-139944418D01*
X167675582Y-140085269D01*
X167836734Y-140202353D01*
X167989215Y-140280046D01*
X168014219Y-140292786D01*
X168203657Y-140354338D01*
X168203658Y-140354338D01*
X168203661Y-140354339D01*
X168400403Y-140385500D01*
X168400404Y-140385500D01*
X168599596Y-140385500D01*
X168599597Y-140385500D01*
X168796339Y-140354339D01*
X168796342Y-140354338D01*
X168796343Y-140354338D01*
X168985780Y-140292786D01*
X168985780Y-140292785D01*
X168985783Y-140292785D01*
X169163266Y-140202353D01*
X169324418Y-140085269D01*
X169465269Y-139944418D01*
X169582353Y-139783266D01*
X169672785Y-139605783D01*
X169680827Y-139581031D01*
X169734338Y-139416343D01*
X169734338Y-139416342D01*
X169734339Y-139416339D01*
X169765500Y-139219597D01*
X169765500Y-139020403D01*
X169734339Y-138823661D01*
X169734338Y-138823657D01*
X169734338Y-138823656D01*
X169672786Y-138634219D01*
X169582352Y-138456733D01*
X169465269Y-138295582D01*
X169324418Y-138154731D01*
X169163266Y-138037647D01*
X169011827Y-137960485D01*
X168961031Y-137912510D01*
X168944236Y-137844689D01*
X168966773Y-137778554D01*
X169011827Y-137739515D01*
X169047654Y-137721260D01*
X169163266Y-137662353D01*
X169324418Y-137545269D01*
X169465269Y-137404418D01*
X169582353Y-137243266D01*
X169672785Y-137065783D01*
X169685140Y-137027758D01*
X169734338Y-136876343D01*
X169734338Y-136876342D01*
X169734339Y-136876339D01*
X169765500Y-136679597D01*
X169765500Y-136480403D01*
X169734339Y-136283661D01*
X169734338Y-136283657D01*
X169734338Y-136283656D01*
X169672786Y-136094219D01*
X169582352Y-135916733D01*
X169465269Y-135755582D01*
X169324418Y-135614731D01*
X169163266Y-135497647D01*
X169011827Y-135420485D01*
X168961031Y-135372510D01*
X168944236Y-135304689D01*
X168966773Y-135238554D01*
X169011827Y-135199515D01*
X169021116Y-135194781D01*
X169163266Y-135122353D01*
X169324418Y-135005269D01*
X169465269Y-134864418D01*
X169582353Y-134703266D01*
X169672785Y-134525783D01*
X169685140Y-134487758D01*
X169734338Y-134336343D01*
X169734338Y-134336342D01*
X169734339Y-134336339D01*
X169765500Y-134139597D01*
X169765500Y-133940403D01*
X169734339Y-133743661D01*
X169734338Y-133743657D01*
X169734338Y-133743656D01*
X169672786Y-133554219D01*
X169582352Y-133376733D01*
X169465269Y-133215582D01*
X169324418Y-133074731D01*
X169163266Y-132957647D01*
X169011827Y-132880485D01*
X168961031Y-132832510D01*
X168944236Y-132764689D01*
X168966773Y-132698554D01*
X169011827Y-132659515D01*
X169021116Y-132654781D01*
X169163266Y-132582353D01*
X169324418Y-132465269D01*
X169465269Y-132324418D01*
X169582353Y-132163266D01*
X169672785Y-131985783D01*
X169685140Y-131947758D01*
X169734338Y-131796343D01*
X169734338Y-131796342D01*
X169734339Y-131796339D01*
X169765500Y-131599597D01*
X169765500Y-131400403D01*
X169734339Y-131203661D01*
X169734338Y-131203657D01*
X169734338Y-131203656D01*
X169672786Y-131014219D01*
X169582352Y-130836733D01*
X169465269Y-130675582D01*
X169324418Y-130534731D01*
X169163266Y-130417647D01*
X169011827Y-130340485D01*
X168961031Y-130292510D01*
X168944236Y-130224689D01*
X168966773Y-130158554D01*
X169011827Y-130119515D01*
X169021116Y-130114781D01*
X169163266Y-130042353D01*
X169324418Y-129925269D01*
X169465269Y-129784418D01*
X169582353Y-129623266D01*
X169672785Y-129445783D01*
X169685140Y-129407758D01*
X169734338Y-129256343D01*
X169734338Y-129256342D01*
X169734339Y-129256339D01*
X169765500Y-129059597D01*
X169765500Y-128860403D01*
X169734339Y-128663661D01*
X169734338Y-128663657D01*
X169734338Y-128663656D01*
X169672786Y-128474219D01*
X169582352Y-128296733D01*
X169465269Y-128135582D01*
X169324418Y-127994731D01*
X169163266Y-127877647D01*
X169100321Y-127845575D01*
X169011827Y-127800485D01*
X168961031Y-127752510D01*
X168944236Y-127684689D01*
X168966773Y-127618554D01*
X169011827Y-127579515D01*
X169021116Y-127574781D01*
X169163266Y-127502353D01*
X169324418Y-127385269D01*
X169465269Y-127244418D01*
X169582353Y-127083266D01*
X169672785Y-126905783D01*
X169685140Y-126867758D01*
X169734338Y-126716343D01*
X169734338Y-126716342D01*
X169734339Y-126716339D01*
X169765500Y-126519597D01*
X169765500Y-126320403D01*
X169734339Y-126123661D01*
X169734338Y-126123657D01*
X169734338Y-126123656D01*
X169672786Y-125934219D01*
X169659514Y-125908172D01*
X169582353Y-125756734D01*
X169465269Y-125595582D01*
X169324418Y-125454731D01*
X169163266Y-125337647D01*
X169011827Y-125260485D01*
X168961031Y-125212510D01*
X168944236Y-125144689D01*
X168966773Y-125078554D01*
X169011827Y-125039515D01*
X169021116Y-125034781D01*
X169163266Y-124962353D01*
X169324418Y-124845269D01*
X169465269Y-124704418D01*
X169582353Y-124543266D01*
X169672785Y-124365783D01*
X169685140Y-124327758D01*
X169734338Y-124176343D01*
X169734338Y-124176342D01*
X169734339Y-124176339D01*
X169765500Y-123979597D01*
X169765500Y-123780403D01*
X169734339Y-123583661D01*
X169734338Y-123583657D01*
X169734338Y-123583656D01*
X169672786Y-123394219D01*
X169582352Y-123216733D01*
X169465269Y-123055582D01*
X169324418Y-122914731D01*
X169163266Y-122797647D01*
X169011827Y-122720485D01*
X168961031Y-122672510D01*
X168944236Y-122604689D01*
X168966773Y-122538554D01*
X169011827Y-122499515D01*
X169021116Y-122494781D01*
X169163266Y-122422353D01*
X169324418Y-122305269D01*
X169465269Y-122164418D01*
X169582353Y-122003266D01*
X169672785Y-121825783D01*
X169685140Y-121787758D01*
X169734338Y-121636343D01*
X169734338Y-121636342D01*
X169734339Y-121636339D01*
X169765500Y-121439597D01*
X169765500Y-121240403D01*
X169734339Y-121043661D01*
X169734338Y-121043657D01*
X169734338Y-121043656D01*
X169672786Y-120854219D01*
X169659514Y-120828172D01*
X169582353Y-120676734D01*
X169465269Y-120515582D01*
X169324418Y-120374731D01*
X169163266Y-120257647D01*
X169011827Y-120180485D01*
X168961031Y-120132510D01*
X168944236Y-120064689D01*
X168966773Y-119998554D01*
X169011827Y-119959515D01*
X169021116Y-119954781D01*
X169163266Y-119882353D01*
X169324418Y-119765269D01*
X169465269Y-119624418D01*
X169582353Y-119463266D01*
X169672785Y-119285783D01*
X169684412Y-119249999D01*
X169734338Y-119096343D01*
X169734338Y-119096342D01*
X169734339Y-119096339D01*
X169765500Y-118899597D01*
X169765500Y-118700403D01*
X169734339Y-118503661D01*
X169734338Y-118503657D01*
X169734338Y-118503656D01*
X169672786Y-118314219D01*
X169639810Y-118249500D01*
X169582353Y-118136734D01*
X169465269Y-117975582D01*
X169324418Y-117834731D01*
X169163266Y-117717647D01*
X169163262Y-117717645D01*
X169011277Y-117640204D01*
X168960481Y-117592229D01*
X168943686Y-117524408D01*
X168966224Y-117458273D01*
X169011277Y-117419234D01*
X169163005Y-117341924D01*
X169200863Y-117314418D01*
X169200863Y-117314417D01*
X168637574Y-116751128D01*
X168696853Y-116735245D01*
X168813147Y-116668102D01*
X168908102Y-116573147D01*
X168975245Y-116456853D01*
X168991128Y-116397574D01*
X169554417Y-116960863D01*
X169554418Y-116960863D01*
X169581924Y-116923005D01*
X169672320Y-116745594D01*
X169733852Y-116556222D01*
X169765000Y-116359563D01*
X169765000Y-116160436D01*
X169733852Y-115963777D01*
X169672320Y-115774405D01*
X169581924Y-115596994D01*
X169554417Y-115559135D01*
X169554417Y-115559134D01*
X168991128Y-116122424D01*
X168975245Y-116063147D01*
X168908102Y-115946853D01*
X168813147Y-115851898D01*
X168696853Y-115784755D01*
X168637574Y-115768871D01*
X169200864Y-115205581D01*
X169200863Y-115205580D01*
X169163008Y-115178077D01*
X169011277Y-115100765D01*
X168960481Y-115052790D01*
X168943686Y-114984969D01*
X168966224Y-114918834D01*
X169011277Y-114879795D01*
X169011827Y-114879515D01*
X169163266Y-114802353D01*
X169324418Y-114685269D01*
X169465269Y-114544418D01*
X169582353Y-114383266D01*
X169672785Y-114205783D01*
X169680827Y-114181031D01*
X169734338Y-114016343D01*
X169734338Y-114016342D01*
X169734339Y-114016339D01*
X169765500Y-113819597D01*
X169765500Y-113620403D01*
X169734339Y-113423661D01*
X169734338Y-113423657D01*
X169734338Y-113423656D01*
X169672786Y-113234219D01*
X169582352Y-113056733D01*
X169465269Y-112895582D01*
X169324418Y-112754731D01*
X169163266Y-112637647D01*
X169011827Y-112560485D01*
X168961031Y-112512510D01*
X168944236Y-112444689D01*
X168966773Y-112378554D01*
X169011827Y-112339515D01*
X169021116Y-112334781D01*
X169163266Y-112262353D01*
X169324418Y-112145269D01*
X169465269Y-112004418D01*
X169582353Y-111843266D01*
X169672785Y-111665783D01*
X169685140Y-111627758D01*
X169734338Y-111476343D01*
X169734338Y-111476342D01*
X169734339Y-111476339D01*
X169765500Y-111279597D01*
X169765500Y-111080403D01*
X169734339Y-110883661D01*
X169734338Y-110883657D01*
X169734338Y-110883656D01*
X169672786Y-110694219D01*
X169582352Y-110516733D01*
X169465269Y-110355582D01*
X169324418Y-110214731D01*
X169163266Y-110097647D01*
X169011827Y-110020485D01*
X168961031Y-109972510D01*
X168944236Y-109904689D01*
X168966773Y-109838554D01*
X169011827Y-109799515D01*
X169021116Y-109794781D01*
X169163266Y-109722353D01*
X169324418Y-109605269D01*
X169465269Y-109464418D01*
X169582353Y-109303266D01*
X169672785Y-109125783D01*
X169685140Y-109087758D01*
X169734338Y-108936343D01*
X169734338Y-108936342D01*
X169734339Y-108936339D01*
X169765500Y-108739597D01*
X169765500Y-108540403D01*
X169734339Y-108343661D01*
X169734338Y-108343657D01*
X169734338Y-108343656D01*
X169672786Y-108154219D01*
X169582352Y-107976733D01*
X169465269Y-107815582D01*
X169324418Y-107674731D01*
X169163266Y-107557647D01*
X169011827Y-107480485D01*
X168961031Y-107432510D01*
X168944236Y-107364689D01*
X168966773Y-107298554D01*
X169011827Y-107259515D01*
X169045458Y-107242379D01*
X169163266Y-107182353D01*
X169324418Y-107065269D01*
X169465269Y-106924418D01*
X169582353Y-106763266D01*
X169672785Y-106585783D01*
X169685140Y-106547758D01*
X169734338Y-106396343D01*
X169734338Y-106396342D01*
X169734339Y-106396339D01*
X169765500Y-106199597D01*
X169765500Y-106000403D01*
X169734339Y-105803661D01*
X169734338Y-105803657D01*
X169734338Y-105803656D01*
X169672786Y-105614219D01*
X169582352Y-105436733D01*
X169465269Y-105275582D01*
X169324418Y-105134731D01*
X169163266Y-105017647D01*
X169100321Y-104985575D01*
X169011827Y-104940485D01*
X168961031Y-104892510D01*
X168944236Y-104824689D01*
X168966773Y-104758554D01*
X169011827Y-104719515D01*
X169021116Y-104714781D01*
X169163266Y-104642353D01*
X169324418Y-104525269D01*
X169465269Y-104384418D01*
X169582353Y-104223266D01*
X169672785Y-104045783D01*
X169685140Y-104007758D01*
X169734338Y-103856343D01*
X169734338Y-103856342D01*
X169734339Y-103856339D01*
X169765500Y-103659597D01*
X169765500Y-103460403D01*
X169734339Y-103263661D01*
X169734338Y-103263657D01*
X169734338Y-103263656D01*
X169672786Y-103074219D01*
X169582483Y-102896990D01*
X169582353Y-102896734D01*
X169465269Y-102735582D01*
X169324418Y-102594731D01*
X169163266Y-102477647D01*
X169144541Y-102468106D01*
X169011827Y-102400485D01*
X168961031Y-102352510D01*
X168944236Y-102284689D01*
X168966773Y-102218554D01*
X169011827Y-102179515D01*
X169084447Y-102142513D01*
X169163266Y-102102353D01*
X169324418Y-101985269D01*
X169465269Y-101844418D01*
X169582353Y-101683266D01*
X169672785Y-101505783D01*
X169681006Y-101480481D01*
X169734338Y-101316343D01*
X169734338Y-101316342D01*
X169734339Y-101316339D01*
X169765500Y-101119597D01*
X169765500Y-100920403D01*
X169734339Y-100723661D01*
X169734338Y-100723657D01*
X169734338Y-100723656D01*
X169672786Y-100534219D01*
X169582485Y-100356994D01*
X169582353Y-100356734D01*
X169465269Y-100195582D01*
X169324418Y-100054731D01*
X169163266Y-99937647D01*
X169011827Y-99860485D01*
X168961031Y-99812510D01*
X168944236Y-99744689D01*
X168966773Y-99678554D01*
X169011827Y-99639515D01*
X169021116Y-99634781D01*
X169163266Y-99562353D01*
X169324418Y-99445269D01*
X169465269Y-99304418D01*
X169582353Y-99143266D01*
X169672785Y-98965783D01*
X169680827Y-98941031D01*
X169734338Y-98776343D01*
X169734338Y-98776342D01*
X169734339Y-98776339D01*
X169765500Y-98579597D01*
X169765500Y-98380403D01*
X169734339Y-98183661D01*
X169734338Y-98183657D01*
X169734338Y-98183656D01*
X169672786Y-97994219D01*
X169582352Y-97816733D01*
X169465269Y-97655582D01*
X169324418Y-97514731D01*
X169163266Y-97397647D01*
X169011827Y-97320485D01*
X168961031Y-97272510D01*
X168944236Y-97204689D01*
X168966773Y-97138554D01*
X169011827Y-97099515D01*
X169021116Y-97094781D01*
X169163266Y-97022353D01*
X169324418Y-96905269D01*
X169465269Y-96764418D01*
X169582353Y-96603266D01*
X169672785Y-96425783D01*
X169685140Y-96387758D01*
X169734338Y-96236343D01*
X169734338Y-96236342D01*
X169734339Y-96236339D01*
X169765500Y-96039597D01*
X169765500Y-95840403D01*
X169734339Y-95643661D01*
X169734338Y-95643657D01*
X169734338Y-95643656D01*
X169672786Y-95454219D01*
X169582352Y-95276733D01*
X169465269Y-95115582D01*
X169324418Y-94974731D01*
X169163266Y-94857647D01*
X169011827Y-94780485D01*
X168961031Y-94732510D01*
X168944236Y-94664689D01*
X168966773Y-94598554D01*
X169011827Y-94559515D01*
X169025614Y-94552490D01*
X169163266Y-94482353D01*
X169324418Y-94365269D01*
X169465269Y-94224418D01*
X169582353Y-94063266D01*
X169672785Y-93885783D01*
X169734339Y-93696339D01*
X169765500Y-93499597D01*
X169765500Y-93300403D01*
X169734339Y-93103661D01*
X169734338Y-93103657D01*
X169734338Y-93103656D01*
X169672786Y-92914219D01*
X169635202Y-92840456D01*
X169582353Y-92736734D01*
X169465269Y-92575582D01*
X169324418Y-92434731D01*
X169163266Y-92317647D01*
X169084379Y-92277452D01*
X168985780Y-92227213D01*
X168796342Y-92165661D01*
X168648782Y-92142290D01*
X168599597Y-92134500D01*
X168400403Y-92134500D01*
X168334822Y-92144887D01*
X168203659Y-92165661D01*
X168203656Y-92165661D01*
X168014219Y-92227213D01*
X167836733Y-92317647D01*
X167744790Y-92384447D01*
X167675582Y-92434731D01*
X167675580Y-92434733D01*
X167675579Y-92434733D01*
X167534733Y-92575579D01*
X167534733Y-92575580D01*
X167534731Y-92575582D01*
X167502772Y-92619570D01*
X167449817Y-92692456D01*
X167394487Y-92735121D01*
X167324873Y-92741100D01*
X167263078Y-92708494D01*
X167228721Y-92647655D01*
X167225499Y-92619570D01*
X167225499Y-92587129D01*
X167225498Y-92587123D01*
X167225497Y-92587116D01*
X167219091Y-92527517D01*
X167168796Y-92392669D01*
X167168795Y-92392668D01*
X167168793Y-92392664D01*
X167082547Y-92277455D01*
X167082544Y-92277452D01*
X166967335Y-92191206D01*
X166967328Y-92191202D01*
X166832482Y-92140908D01*
X166832483Y-92140908D01*
X166772883Y-92134501D01*
X166772881Y-92134500D01*
X166772873Y-92134500D01*
X166772864Y-92134500D01*
X165147129Y-92134500D01*
X165147123Y-92134501D01*
X165087516Y-92140908D01*
X164952671Y-92191202D01*
X164952664Y-92191206D01*
X164837455Y-92277452D01*
X164837452Y-92277455D01*
X164751206Y-92392664D01*
X164751202Y-92392671D01*
X164700908Y-92527517D01*
X164695741Y-92575580D01*
X164694501Y-92587123D01*
X164694500Y-92587135D01*
X148606200Y-92587135D01*
X148644501Y-92515479D01*
X148785520Y-92175029D01*
X148892490Y-91822396D01*
X148892492Y-91822386D01*
X148892495Y-91822375D01*
X148964381Y-91460975D01*
X149000500Y-91094246D01*
X149000500Y-90725753D01*
X148964381Y-90359024D01*
X148892495Y-89997624D01*
X148892492Y-89997613D01*
X148892491Y-89997610D01*
X148892490Y-89997604D01*
X148785520Y-89644971D01*
X148644501Y-89304521D01*
X148470791Y-88979532D01*
X148266063Y-88673135D01*
X148032289Y-88388281D01*
X148032288Y-88388280D01*
X148032284Y-88388275D01*
X147771724Y-88127715D01*
X147486870Y-87893941D01*
X147486869Y-87893940D01*
X147486865Y-87893937D01*
X147180468Y-87689209D01*
X147180463Y-87689206D01*
X147180456Y-87689202D01*
X146855486Y-87515502D01*
X146855481Y-87515500D01*
X146515030Y-87374480D01*
X146162386Y-87267507D01*
X146162375Y-87267504D01*
X145800975Y-87195618D01*
X145524772Y-87168415D01*
X145434250Y-87159500D01*
X145065750Y-87159500D01*
X144982109Y-87167737D01*
X144699024Y-87195618D01*
X144337624Y-87267504D01*
X144337613Y-87267507D01*
X143984969Y-87374480D01*
X143644518Y-87515500D01*
X143644513Y-87515502D01*
X143319543Y-87689202D01*
X143319525Y-87689213D01*
X143013143Y-87893931D01*
X143013129Y-87893941D01*
X142728275Y-88127715D01*
X142467715Y-88388275D01*
X142233941Y-88673129D01*
X142233931Y-88673143D01*
X142029213Y-88979525D01*
X142029202Y-88979543D01*
X141855502Y-89304513D01*
X141855500Y-89304518D01*
X141714480Y-89644969D01*
X141607507Y-89997613D01*
X141607504Y-89997624D01*
X141535618Y-90359024D01*
X141499500Y-90725753D01*
X132500500Y-90725753D01*
X132464381Y-90359024D01*
X132392495Y-89997624D01*
X132392492Y-89997613D01*
X132392491Y-89997610D01*
X132392490Y-89997604D01*
X132285520Y-89644971D01*
X132144501Y-89304521D01*
X131970791Y-88979532D01*
X131766063Y-88673135D01*
X131532289Y-88388281D01*
X131532288Y-88388280D01*
X131532284Y-88388275D01*
X131271724Y-88127715D01*
X130986870Y-87893941D01*
X130986869Y-87893940D01*
X130986865Y-87893937D01*
X130680468Y-87689209D01*
X130680463Y-87689206D01*
X130680456Y-87689202D01*
X130355486Y-87515502D01*
X130355481Y-87515500D01*
X130015030Y-87374480D01*
X129662386Y-87267507D01*
X129662375Y-87267504D01*
X129300975Y-87195618D01*
X129024772Y-87168415D01*
X128934250Y-87159500D01*
X128565750Y-87159500D01*
X128482109Y-87167737D01*
X128199024Y-87195618D01*
X127837624Y-87267504D01*
X127837613Y-87267507D01*
X127484969Y-87374480D01*
X127144518Y-87515500D01*
X127144513Y-87515502D01*
X126819543Y-87689202D01*
X126819525Y-87689213D01*
X126513143Y-87893931D01*
X126513129Y-87893941D01*
X126228275Y-88127715D01*
X125967715Y-88388275D01*
X125733941Y-88673129D01*
X125733931Y-88673143D01*
X125529213Y-88979525D01*
X125529202Y-88979543D01*
X125355502Y-89304513D01*
X125355500Y-89304518D01*
X125214480Y-89644969D01*
X125107507Y-89997613D01*
X125107504Y-89997624D01*
X125035618Y-90359024D01*
X124999500Y-90725753D01*
X101550500Y-90725753D01*
X101550500Y-82847689D01*
X114030731Y-82847689D01*
X114058611Y-82987846D01*
X114058613Y-82987852D01*
X114113301Y-83119882D01*
X114113306Y-83119891D01*
X114192699Y-83238710D01*
X114192702Y-83238714D01*
X114293749Y-83339761D01*
X114293753Y-83339764D01*
X114412572Y-83419157D01*
X114412578Y-83419160D01*
X114412579Y-83419161D01*
X114544612Y-83473851D01*
X114544616Y-83473851D01*
X114544617Y-83473852D01*
X114684774Y-83501732D01*
X114684777Y-83501732D01*
X114827689Y-83501732D01*
X114921983Y-83482974D01*
X114967852Y-83473851D01*
X115099885Y-83419161D01*
X115218711Y-83339764D01*
X115319764Y-83238711D01*
X115399161Y-83119885D01*
X115453851Y-82987852D01*
X115481732Y-82847687D01*
X115481732Y-82704777D01*
X115481732Y-82704774D01*
X115453852Y-82564617D01*
X115453851Y-82564616D01*
X115453851Y-82564612D01*
X115399161Y-82432579D01*
X115399160Y-82432578D01*
X115399157Y-82432572D01*
X115319764Y-82313753D01*
X115319761Y-82313749D01*
X115218714Y-82212702D01*
X115218710Y-82212699D01*
X115099891Y-82133306D01*
X115099882Y-82133301D01*
X114967852Y-82078613D01*
X114967846Y-82078611D01*
X114827689Y-82050732D01*
X114827687Y-82050732D01*
X114684777Y-82050732D01*
X114684775Y-82050732D01*
X114544617Y-82078611D01*
X114544611Y-82078613D01*
X114412581Y-82133301D01*
X114412572Y-82133306D01*
X114293753Y-82212699D01*
X114293749Y-82212702D01*
X114192702Y-82313749D01*
X114192699Y-82313753D01*
X114113306Y-82432572D01*
X114113301Y-82432581D01*
X114058613Y-82564611D01*
X114058611Y-82564617D01*
X114030732Y-82704774D01*
X114030732Y-82704777D01*
X114030732Y-82847687D01*
X114030732Y-82847689D01*
X114030731Y-82847689D01*
X101550500Y-82847689D01*
X101550500Y-80956457D01*
X130489499Y-80956457D01*
X130517379Y-81096614D01*
X130517381Y-81096620D01*
X130572069Y-81228650D01*
X130572074Y-81228659D01*
X130651467Y-81347478D01*
X130651470Y-81347482D01*
X130752517Y-81448529D01*
X130752521Y-81448532D01*
X130871340Y-81527925D01*
X130871346Y-81527928D01*
X130871347Y-81527929D01*
X131003380Y-81582619D01*
X131003384Y-81582619D01*
X131003385Y-81582620D01*
X131143542Y-81610500D01*
X131143545Y-81610500D01*
X131286457Y-81610500D01*
X131380751Y-81591742D01*
X131426620Y-81582619D01*
X131558653Y-81527929D01*
X131677479Y-81448532D01*
X131778532Y-81347479D01*
X131857929Y-81228653D01*
X131912619Y-81096620D01*
X131940500Y-80956455D01*
X131940500Y-80813545D01*
X131940500Y-80813542D01*
X131912620Y-80673385D01*
X131912619Y-80673384D01*
X131912619Y-80673380D01*
X131857929Y-80541347D01*
X131857928Y-80541346D01*
X131857925Y-80541340D01*
X131778532Y-80422521D01*
X131778529Y-80422517D01*
X131677482Y-80321470D01*
X131677478Y-80321467D01*
X131558659Y-80242074D01*
X131558650Y-80242069D01*
X131426620Y-80187381D01*
X131426614Y-80187379D01*
X131286457Y-80159500D01*
X131286455Y-80159500D01*
X131143545Y-80159500D01*
X131143543Y-80159500D01*
X131003385Y-80187379D01*
X131003379Y-80187381D01*
X130871349Y-80242069D01*
X130871340Y-80242074D01*
X130752521Y-80321467D01*
X130752517Y-80321470D01*
X130651470Y-80422517D01*
X130651467Y-80422521D01*
X130572074Y-80541340D01*
X130572069Y-80541349D01*
X130517381Y-80673379D01*
X130517379Y-80673385D01*
X130489500Y-80813542D01*
X130489500Y-80813545D01*
X130489500Y-80956455D01*
X130489500Y-80956457D01*
X130489499Y-80956457D01*
X101550500Y-80956457D01*
X101550500Y-79611457D01*
X106894499Y-79611457D01*
X106922379Y-79751614D01*
X106922381Y-79751620D01*
X106977069Y-79883650D01*
X106977074Y-79883659D01*
X107056467Y-80002478D01*
X107056470Y-80002482D01*
X107157517Y-80103529D01*
X107157521Y-80103532D01*
X107276340Y-80182925D01*
X107276346Y-80182928D01*
X107276347Y-80182929D01*
X107408380Y-80237619D01*
X107408384Y-80237619D01*
X107408385Y-80237620D01*
X107548542Y-80265500D01*
X107548545Y-80265500D01*
X107691457Y-80265500D01*
X107785751Y-80246742D01*
X107831620Y-80237619D01*
X107963653Y-80182929D01*
X108082479Y-80103532D01*
X108183532Y-80002479D01*
X108217624Y-79951457D01*
X147845455Y-79951457D01*
X147873335Y-80091614D01*
X147873337Y-80091620D01*
X147928025Y-80223650D01*
X147928030Y-80223659D01*
X148007423Y-80342478D01*
X148007426Y-80342482D01*
X148108473Y-80443529D01*
X148108477Y-80443532D01*
X148227296Y-80522925D01*
X148227302Y-80522928D01*
X148227303Y-80522929D01*
X148359336Y-80577619D01*
X148359340Y-80577619D01*
X148359341Y-80577620D01*
X148499498Y-80605500D01*
X148499501Y-80605500D01*
X148642413Y-80605500D01*
X148736707Y-80586742D01*
X148782576Y-80577619D01*
X148914609Y-80522929D01*
X149033435Y-80443532D01*
X149134488Y-80342479D01*
X149213885Y-80223653D01*
X149268575Y-80091620D01*
X149296456Y-79951455D01*
X149296456Y-79808545D01*
X149296456Y-79808542D01*
X149268576Y-79668385D01*
X149268575Y-79668384D01*
X149268575Y-79668380D01*
X149213885Y-79536347D01*
X149213884Y-79536346D01*
X149213881Y-79536340D01*
X149134488Y-79417521D01*
X149134485Y-79417517D01*
X149033438Y-79316470D01*
X149033434Y-79316467D01*
X148914615Y-79237074D01*
X148914606Y-79237069D01*
X148782576Y-79182381D01*
X148782570Y-79182379D01*
X148642413Y-79154500D01*
X148642411Y-79154500D01*
X148499501Y-79154500D01*
X148499499Y-79154500D01*
X148359341Y-79182379D01*
X148359335Y-79182381D01*
X148227305Y-79237069D01*
X148227296Y-79237074D01*
X148108477Y-79316467D01*
X148108473Y-79316470D01*
X148007426Y-79417517D01*
X148007423Y-79417521D01*
X147928030Y-79536340D01*
X147928025Y-79536349D01*
X147873337Y-79668379D01*
X147873335Y-79668385D01*
X147845456Y-79808542D01*
X147845456Y-79808545D01*
X147845456Y-79951455D01*
X147845456Y-79951457D01*
X147845455Y-79951457D01*
X108217624Y-79951457D01*
X108262929Y-79883653D01*
X108317619Y-79751620D01*
X108345500Y-79611455D01*
X108345500Y-79468545D01*
X108345500Y-79468542D01*
X108317620Y-79328385D01*
X108317619Y-79328384D01*
X108317619Y-79328380D01*
X108289899Y-79261457D01*
X114324499Y-79261457D01*
X114352379Y-79401614D01*
X114352381Y-79401620D01*
X114407069Y-79533650D01*
X114407074Y-79533659D01*
X114486467Y-79652478D01*
X114486470Y-79652482D01*
X114587517Y-79753529D01*
X114587521Y-79753532D01*
X114706340Y-79832925D01*
X114706346Y-79832928D01*
X114706347Y-79832929D01*
X114838380Y-79887619D01*
X114838384Y-79887619D01*
X114838385Y-79887620D01*
X114978542Y-79915500D01*
X114978545Y-79915500D01*
X115121457Y-79915500D01*
X115215751Y-79896742D01*
X115261620Y-79887619D01*
X115393653Y-79832929D01*
X115512479Y-79753532D01*
X115514397Y-79751614D01*
X115551240Y-79714772D01*
X115613529Y-79652482D01*
X115613532Y-79652479D01*
X115692929Y-79533653D01*
X115747619Y-79401620D01*
X115775500Y-79261455D01*
X115775500Y-79118545D01*
X115775500Y-79118542D01*
X115747620Y-78978385D01*
X115747619Y-78978384D01*
X115747619Y-78978380D01*
X115692929Y-78846347D01*
X115692928Y-78846346D01*
X115692925Y-78846340D01*
X115613532Y-78727521D01*
X115613529Y-78727517D01*
X115512482Y-78626470D01*
X115512478Y-78626467D01*
X115393659Y-78547074D01*
X115393650Y-78547069D01*
X115261620Y-78492381D01*
X115261614Y-78492379D01*
X115121457Y-78464500D01*
X115121455Y-78464500D01*
X114978545Y-78464500D01*
X114978543Y-78464500D01*
X114838385Y-78492379D01*
X114838379Y-78492381D01*
X114706349Y-78547069D01*
X114706340Y-78547074D01*
X114587521Y-78626467D01*
X114587517Y-78626470D01*
X114486470Y-78727517D01*
X114486467Y-78727521D01*
X114407074Y-78846340D01*
X114407069Y-78846349D01*
X114352381Y-78978379D01*
X114352379Y-78978385D01*
X114324500Y-79118542D01*
X114324500Y-79118545D01*
X114324500Y-79261455D01*
X114324500Y-79261457D01*
X114324499Y-79261457D01*
X108289899Y-79261457D01*
X108262929Y-79196347D01*
X108262928Y-79196346D01*
X108262925Y-79196340D01*
X108252905Y-79181344D01*
X108183532Y-79077521D01*
X108183529Y-79077517D01*
X108082482Y-78976470D01*
X108082478Y-78976467D01*
X107963659Y-78897074D01*
X107963650Y-78897069D01*
X107831620Y-78842381D01*
X107831614Y-78842379D01*
X107691457Y-78814500D01*
X107691455Y-78814500D01*
X107548545Y-78814500D01*
X107548543Y-78814500D01*
X107408385Y-78842379D01*
X107408379Y-78842381D01*
X107276349Y-78897069D01*
X107276340Y-78897074D01*
X107157521Y-78976467D01*
X107157517Y-78976470D01*
X107056470Y-79077517D01*
X107056467Y-79077521D01*
X106977074Y-79196340D01*
X106977069Y-79196349D01*
X106922381Y-79328379D01*
X106922379Y-79328385D01*
X106894500Y-79468542D01*
X106894500Y-79468545D01*
X106894500Y-79611455D01*
X106894500Y-79611457D01*
X106894499Y-79611457D01*
X101550500Y-79611457D01*
X101550500Y-76681457D01*
X111334499Y-76681457D01*
X111362379Y-76821614D01*
X111362381Y-76821620D01*
X111417069Y-76953650D01*
X111417074Y-76953659D01*
X111496467Y-77072478D01*
X111496470Y-77072482D01*
X111597517Y-77173529D01*
X111597521Y-77173532D01*
X111716340Y-77252925D01*
X111716346Y-77252928D01*
X111716347Y-77252929D01*
X111848380Y-77307619D01*
X111848384Y-77307619D01*
X111848385Y-77307620D01*
X111988542Y-77335500D01*
X111988545Y-77335500D01*
X112131457Y-77335500D01*
X112225751Y-77316742D01*
X112271620Y-77307619D01*
X112403653Y-77252929D01*
X112420822Y-77241457D01*
X159814499Y-77241457D01*
X159842379Y-77381614D01*
X159842381Y-77381620D01*
X159897069Y-77513650D01*
X159897074Y-77513659D01*
X159976467Y-77632478D01*
X159976470Y-77632482D01*
X160077517Y-77733529D01*
X160077521Y-77733532D01*
X160196340Y-77812925D01*
X160196346Y-77812928D01*
X160196347Y-77812929D01*
X160328380Y-77867619D01*
X160328384Y-77867619D01*
X160328385Y-77867620D01*
X160468542Y-77895500D01*
X160468545Y-77895500D01*
X160611457Y-77895500D01*
X160705751Y-77876742D01*
X160751620Y-77867619D01*
X160883653Y-77812929D01*
X161002479Y-77733532D01*
X161103532Y-77632479D01*
X161182929Y-77513653D01*
X161237619Y-77381620D01*
X161252339Y-77307618D01*
X161265500Y-77241457D01*
X161265500Y-77098542D01*
X161237620Y-76958385D01*
X161237619Y-76958384D01*
X161237619Y-76958380D01*
X161195318Y-76856258D01*
X161182930Y-76826349D01*
X161182925Y-76826340D01*
X161103532Y-76707521D01*
X161103529Y-76707517D01*
X161002482Y-76606470D01*
X161002478Y-76606467D01*
X160883659Y-76527074D01*
X160883650Y-76527069D01*
X160751620Y-76472381D01*
X160751614Y-76472379D01*
X160611457Y-76444500D01*
X160611455Y-76444500D01*
X160468545Y-76444500D01*
X160468543Y-76444500D01*
X160328385Y-76472379D01*
X160328379Y-76472381D01*
X160196349Y-76527069D01*
X160196340Y-76527074D01*
X160077521Y-76606467D01*
X160077517Y-76606470D01*
X159976470Y-76707517D01*
X159976467Y-76707521D01*
X159897074Y-76826340D01*
X159897069Y-76826349D01*
X159842381Y-76958379D01*
X159842379Y-76958385D01*
X159814500Y-77098542D01*
X159814500Y-77098545D01*
X159814500Y-77241455D01*
X159814500Y-77241457D01*
X159814499Y-77241457D01*
X112420822Y-77241457D01*
X112522479Y-77173532D01*
X112623532Y-77072479D01*
X112702929Y-76953653D01*
X112757619Y-76821620D01*
X112785500Y-76681455D01*
X112785500Y-76538545D01*
X112785500Y-76538542D01*
X112757620Y-76398385D01*
X112757619Y-76398384D01*
X112757619Y-76398380D01*
X112752680Y-76386457D01*
X116779110Y-76386457D01*
X116806990Y-76526614D01*
X116806992Y-76526620D01*
X116861680Y-76658650D01*
X116861685Y-76658659D01*
X116941078Y-76777478D01*
X116941081Y-76777482D01*
X117042128Y-76878529D01*
X117042132Y-76878532D01*
X117160951Y-76957925D01*
X117160960Y-76957930D01*
X117190869Y-76970318D01*
X117292991Y-77012619D01*
X117292995Y-77012619D01*
X117292996Y-77012620D01*
X117433153Y-77040500D01*
X117433156Y-77040500D01*
X117576068Y-77040500D01*
X117670362Y-77021742D01*
X117716231Y-77012619D01*
X117848264Y-76957929D01*
X117967090Y-76878532D01*
X118068143Y-76777479D01*
X118147540Y-76658653D01*
X118202230Y-76526620D01*
X118215192Y-76461457D01*
X119674499Y-76461457D01*
X119702379Y-76601614D01*
X119702381Y-76601620D01*
X119757069Y-76733650D01*
X119757074Y-76733659D01*
X119836467Y-76852478D01*
X119836470Y-76852482D01*
X119937517Y-76953529D01*
X119937521Y-76953532D01*
X120056340Y-77032925D01*
X120056346Y-77032928D01*
X120056347Y-77032929D01*
X120188380Y-77087619D01*
X120188384Y-77087619D01*
X120188385Y-77087620D01*
X120328542Y-77115500D01*
X120328545Y-77115500D01*
X120471457Y-77115500D01*
X120565751Y-77096742D01*
X120611620Y-77087619D01*
X120743653Y-77032929D01*
X120774051Y-77012618D01*
X120808873Y-76989351D01*
X120834534Y-76972204D01*
X120862479Y-76953532D01*
X120963532Y-76852479D01*
X121042929Y-76733653D01*
X121097619Y-76601620D01*
X121125087Y-76463532D01*
X121125500Y-76461457D01*
X121125500Y-76318542D01*
X121097620Y-76178385D01*
X121097619Y-76178384D01*
X121097619Y-76178380D01*
X121042929Y-76046347D01*
X121042928Y-76046346D01*
X121042925Y-76046340D01*
X120963532Y-75927521D01*
X120963529Y-75927517D01*
X120887469Y-75851457D01*
X145225455Y-75851457D01*
X145253335Y-75991614D01*
X145253337Y-75991620D01*
X145308025Y-76123650D01*
X145308030Y-76123659D01*
X145387423Y-76242478D01*
X145387426Y-76242482D01*
X145488473Y-76343529D01*
X145488477Y-76343532D01*
X145607296Y-76422925D01*
X145607302Y-76422928D01*
X145607303Y-76422929D01*
X145739336Y-76477619D01*
X145739340Y-76477619D01*
X145739341Y-76477620D01*
X145879498Y-76505500D01*
X145879501Y-76505500D01*
X146022413Y-76505500D01*
X146116707Y-76486742D01*
X146162576Y-76477619D01*
X146294609Y-76422929D01*
X146413435Y-76343532D01*
X146514488Y-76242479D01*
X146593885Y-76123653D01*
X146648575Y-75991620D01*
X146652586Y-75971457D01*
X158014499Y-75971457D01*
X158042379Y-76111614D01*
X158042381Y-76111620D01*
X158097069Y-76243650D01*
X158097074Y-76243659D01*
X158176467Y-76362478D01*
X158176470Y-76362482D01*
X158277517Y-76463529D01*
X158277521Y-76463532D01*
X158396340Y-76542925D01*
X158396346Y-76542928D01*
X158396347Y-76542929D01*
X158528380Y-76597619D01*
X158528384Y-76597619D01*
X158528385Y-76597620D01*
X158668542Y-76625500D01*
X158668545Y-76625500D01*
X158811457Y-76625500D01*
X158907139Y-76606467D01*
X158951620Y-76597619D01*
X159083653Y-76542929D01*
X159202479Y-76463532D01*
X159303532Y-76362479D01*
X159382929Y-76243653D01*
X159437619Y-76111620D01*
X159465500Y-75971455D01*
X159465500Y-75828545D01*
X159465500Y-75828542D01*
X159437620Y-75688385D01*
X159437619Y-75688384D01*
X159437619Y-75688380D01*
X159382929Y-75556347D01*
X159382928Y-75556346D01*
X159382925Y-75556340D01*
X159303532Y-75437521D01*
X159303529Y-75437517D01*
X159202482Y-75336470D01*
X159202478Y-75336467D01*
X159083659Y-75257074D01*
X159083650Y-75257069D01*
X158951620Y-75202381D01*
X158951614Y-75202379D01*
X158811457Y-75174500D01*
X158811455Y-75174500D01*
X158668545Y-75174500D01*
X158668543Y-75174500D01*
X158528385Y-75202379D01*
X158528379Y-75202381D01*
X158396349Y-75257069D01*
X158396340Y-75257074D01*
X158277521Y-75336467D01*
X158277517Y-75336470D01*
X158176470Y-75437517D01*
X158176467Y-75437521D01*
X158097074Y-75556340D01*
X158097069Y-75556349D01*
X158042381Y-75688379D01*
X158042379Y-75688385D01*
X158014500Y-75828542D01*
X158014500Y-75828545D01*
X158014500Y-75971455D01*
X158014500Y-75971457D01*
X158014499Y-75971457D01*
X146652586Y-75971457D01*
X146676456Y-75851455D01*
X146676456Y-75708545D01*
X146676456Y-75708542D01*
X146648576Y-75568385D01*
X146648575Y-75568384D01*
X146648575Y-75568380D01*
X146593885Y-75436347D01*
X146593884Y-75436346D01*
X146593881Y-75436340D01*
X146514488Y-75317521D01*
X146514485Y-75317517D01*
X146413438Y-75216470D01*
X146413434Y-75216467D01*
X146294615Y-75137074D01*
X146294606Y-75137069D01*
X146162576Y-75082381D01*
X146162570Y-75082379D01*
X146022413Y-75054500D01*
X146022411Y-75054500D01*
X145879501Y-75054500D01*
X145879499Y-75054500D01*
X145739341Y-75082379D01*
X145739335Y-75082381D01*
X145607305Y-75137069D01*
X145607296Y-75137074D01*
X145488477Y-75216467D01*
X145488473Y-75216470D01*
X145387426Y-75317517D01*
X145387423Y-75317521D01*
X145308030Y-75436340D01*
X145308025Y-75436349D01*
X145253337Y-75568379D01*
X145253335Y-75568385D01*
X145225456Y-75708542D01*
X145225456Y-75708545D01*
X145225456Y-75851455D01*
X145225456Y-75851457D01*
X145225455Y-75851457D01*
X120887469Y-75851457D01*
X120862482Y-75826470D01*
X120862478Y-75826467D01*
X120831181Y-75805555D01*
X120743659Y-75747074D01*
X120743650Y-75747069D01*
X120611620Y-75692381D01*
X120611614Y-75692379D01*
X120471457Y-75664500D01*
X120471455Y-75664500D01*
X120328545Y-75664500D01*
X120328543Y-75664500D01*
X120188385Y-75692379D01*
X120188379Y-75692381D01*
X120056349Y-75747069D01*
X120056340Y-75747074D01*
X119937521Y-75826467D01*
X119937517Y-75826470D01*
X119836470Y-75927517D01*
X119836467Y-75927521D01*
X119757074Y-76046340D01*
X119757069Y-76046349D01*
X119702381Y-76178379D01*
X119702379Y-76178385D01*
X119674500Y-76318542D01*
X119674500Y-76318545D01*
X119674500Y-76461455D01*
X119674500Y-76461457D01*
X119674499Y-76461457D01*
X118215192Y-76461457D01*
X118230111Y-76386455D01*
X118230111Y-76243545D01*
X118230111Y-76243542D01*
X118202231Y-76103385D01*
X118202230Y-76103384D01*
X118202230Y-76103380D01*
X118147540Y-75971347D01*
X118147539Y-75971346D01*
X118147536Y-75971340D01*
X118068143Y-75852521D01*
X118068140Y-75852517D01*
X117967093Y-75751470D01*
X117967089Y-75751467D01*
X117848270Y-75672074D01*
X117848261Y-75672069D01*
X117716231Y-75617381D01*
X117716225Y-75617379D01*
X117576068Y-75589500D01*
X117576066Y-75589500D01*
X117433156Y-75589500D01*
X117433154Y-75589500D01*
X117292996Y-75617379D01*
X117292990Y-75617381D01*
X117160960Y-75672069D01*
X117160951Y-75672074D01*
X117042132Y-75751467D01*
X117042128Y-75751470D01*
X116941081Y-75852517D01*
X116941078Y-75852521D01*
X116861685Y-75971340D01*
X116861680Y-75971349D01*
X116806992Y-76103379D01*
X116806990Y-76103385D01*
X116779111Y-76243542D01*
X116779111Y-76243545D01*
X116779111Y-76386455D01*
X116779111Y-76386457D01*
X116779110Y-76386457D01*
X112752680Y-76386457D01*
X112710617Y-76284905D01*
X112710616Y-76284904D01*
X112702933Y-76266355D01*
X112702925Y-76266340D01*
X112623532Y-76147521D01*
X112623529Y-76147517D01*
X112522482Y-76046470D01*
X112522478Y-76046467D01*
X112403659Y-75967074D01*
X112403650Y-75967069D01*
X112271620Y-75912381D01*
X112271614Y-75912379D01*
X112131457Y-75884500D01*
X112131455Y-75884500D01*
X111988545Y-75884500D01*
X111988543Y-75884500D01*
X111848385Y-75912379D01*
X111848379Y-75912381D01*
X111716349Y-75967069D01*
X111716340Y-75967074D01*
X111597521Y-76046467D01*
X111597517Y-76046470D01*
X111496470Y-76147517D01*
X111496467Y-76147521D01*
X111417074Y-76266340D01*
X111417069Y-76266349D01*
X111362381Y-76398379D01*
X111362379Y-76398385D01*
X111334500Y-76538542D01*
X111334500Y-76538545D01*
X111334500Y-76681455D01*
X111334500Y-76681457D01*
X111334499Y-76681457D01*
X101550500Y-76681457D01*
X101550500Y-74671457D01*
X113374499Y-74671457D01*
X113402379Y-74811614D01*
X113402381Y-74811620D01*
X113457069Y-74943650D01*
X113457074Y-74943659D01*
X113536467Y-75062478D01*
X113536470Y-75062482D01*
X113637517Y-75163529D01*
X113637521Y-75163532D01*
X113756340Y-75242925D01*
X113756346Y-75242928D01*
X113756347Y-75242929D01*
X113888380Y-75297619D01*
X113888384Y-75297619D01*
X113888385Y-75297620D01*
X114028542Y-75325500D01*
X114028545Y-75325500D01*
X114171457Y-75325500D01*
X114265751Y-75306742D01*
X114311620Y-75297619D01*
X114443653Y-75242929D01*
X114562479Y-75163532D01*
X114663532Y-75062479D01*
X114742929Y-74943653D01*
X114797619Y-74811620D01*
X114813361Y-74732482D01*
X114825500Y-74671457D01*
X114825500Y-74528542D01*
X114797620Y-74388385D01*
X114797619Y-74388384D01*
X114797619Y-74388380D01*
X114778183Y-74341457D01*
X126554499Y-74341457D01*
X126582379Y-74481614D01*
X126582381Y-74481620D01*
X126637069Y-74613650D01*
X126637074Y-74613659D01*
X126716467Y-74732478D01*
X126716470Y-74732482D01*
X126817517Y-74833529D01*
X126817521Y-74833532D01*
X126936340Y-74912925D01*
X126936346Y-74912928D01*
X126936347Y-74912929D01*
X127068380Y-74967619D01*
X127068384Y-74967619D01*
X127068385Y-74967620D01*
X127208542Y-74995500D01*
X127208545Y-74995500D01*
X127351457Y-74995500D01*
X127445751Y-74976742D01*
X127491620Y-74967619D01*
X127623653Y-74912929D01*
X127742479Y-74833532D01*
X127843532Y-74732479D01*
X127922929Y-74613653D01*
X127977619Y-74481620D01*
X128005500Y-74341455D01*
X128005500Y-74198545D01*
X128005500Y-74198542D01*
X127977620Y-74058385D01*
X127977619Y-74058384D01*
X127977619Y-74058380D01*
X127922929Y-73926347D01*
X127922928Y-73926346D01*
X127922925Y-73926340D01*
X127843532Y-73807521D01*
X127843529Y-73807517D01*
X127742482Y-73706470D01*
X127742478Y-73706467D01*
X127623659Y-73627074D01*
X127623650Y-73627069D01*
X127491620Y-73572381D01*
X127491614Y-73572379D01*
X127351457Y-73544500D01*
X127351455Y-73544500D01*
X127208545Y-73544500D01*
X127208543Y-73544500D01*
X127068385Y-73572379D01*
X127068379Y-73572381D01*
X126936349Y-73627069D01*
X126936340Y-73627074D01*
X126817521Y-73706467D01*
X126817517Y-73706470D01*
X126716470Y-73807517D01*
X126716467Y-73807521D01*
X126637074Y-73926340D01*
X126637069Y-73926349D01*
X126582381Y-74058379D01*
X126582379Y-74058385D01*
X126554500Y-74198542D01*
X126554500Y-74198545D01*
X126554500Y-74341455D01*
X126554500Y-74341457D01*
X126554499Y-74341457D01*
X114778183Y-74341457D01*
X114742929Y-74256347D01*
X114742927Y-74256345D01*
X114742923Y-74256337D01*
X114663532Y-74137521D01*
X114663529Y-74137517D01*
X114562482Y-74036470D01*
X114562478Y-74036467D01*
X114443659Y-73957074D01*
X114443650Y-73957069D01*
X114311620Y-73902381D01*
X114311614Y-73902379D01*
X114171457Y-73874500D01*
X114171455Y-73874500D01*
X114028545Y-73874500D01*
X114028543Y-73874500D01*
X113888385Y-73902379D01*
X113888379Y-73902381D01*
X113756349Y-73957069D01*
X113756340Y-73957074D01*
X113637521Y-74036467D01*
X113637517Y-74036470D01*
X113536470Y-74137517D01*
X113536467Y-74137521D01*
X113457074Y-74256340D01*
X113457069Y-74256349D01*
X113402381Y-74388379D01*
X113402379Y-74388385D01*
X113374500Y-74528542D01*
X113374500Y-74528545D01*
X113374500Y-74671455D01*
X113374500Y-74671457D01*
X113374499Y-74671457D01*
X101550500Y-74671457D01*
X101550500Y-61674500D01*
X101570185Y-61607461D01*
X101622989Y-61561706D01*
X101674500Y-61550500D01*
X171825500Y-61550500D01*
X171892539Y-61570185D01*
G37*
%TD.AperFunction*%
%TD*%
M02*
